<svg width="338" height="246" viewBox="0 0 338 246" fill="none" xmlns="http://www.w3.org/2000/svg">
<g clip-path="url(#clip0_618_2738)">
<rect width="338" height="246" rx="16" fill="white"/>
<path d="M305.71 200.108C305.553 199.626 304.36 199.838 304.245 199.408C304.131 198.979 305.276 198.62 306.154 197.411C306.312 197.193 307.31 195.82 306.927 195.242C306.202 194.147 301.156 196.874 299.945 195.344C299.679 195.008 299.569 194.432 298.778 193.359C298.463 192.932 298.26 192.726 298.019 192.732C297.676 192.741 297.554 193.169 297.015 193.945C296.208 195.108 295.916 194.962 295.384 195.915C294.989 196.623 294.942 197.075 294.657 197.102C294.254 197.139 294.088 196.258 293.595 196.224C293.093 196.189 292.59 197.06 292.341 197.74C291.873 199.016 292.162 199.992 292.227 200.964C292.296 202.021 292.133 203.568 290.984 205.553L280.145 222.805C282.473 219.288 289.08 209.697 291.742 206.18C292.511 205.164 293.336 204.144 294.608 203.952C295.831 203.768 297.32 204.373 299.399 204.337C299.641 204.333 300.317 204.313 300.481 203.956C300.617 203.66 300.28 203.403 300.402 203.125C300.567 202.752 301.307 202.912 302.317 202.664C303.028 202.49 303.512 202.201 303.927 201.953C304.053 201.878 305.92 200.748 305.71 200.108H305.71V200.108Z" fill="#F2F2F2"/>
<path d="M277.323 204.136C277.041 204.074 276.801 204.72 276.556 204.652C276.313 204.584 276.466 203.919 276.126 203.14C276.065 203 275.678 202.114 275.284 202.135C274.536 202.175 274.42 205.436 273.319 205.588C273.077 205.622 272.762 205.509 272.007 205.588C271.706 205.619 271.547 205.659 271.48 205.779C271.386 205.949 271.561 206.133 271.786 206.621C272.125 207.353 271.969 207.454 272.284 207.989C272.517 208.387 272.726 208.541 272.657 208.688C272.559 208.897 272.078 208.724 271.919 208.956C271.757 209.192 272.04 209.69 272.302 210.008C272.794 210.606 273.357 210.745 273.853 210.995C274.392 211.265 275.105 211.792 275.748 212.928L281.097 223.221C280.04 221.064 277.235 215.057 276.275 212.737C275.998 212.067 275.735 211.368 276.008 210.689C276.27 210.036 276.997 209.48 277.579 208.451C277.647 208.331 277.833 207.994 277.704 207.81C277.598 207.658 277.374 207.749 277.273 207.609C277.138 207.421 277.43 207.104 277.599 206.537C277.719 206.138 277.717 205.818 277.715 205.542C277.714 205.459 277.698 204.218 277.323 204.136V204.136V204.136Z" fill="#F2F2F2"/>
<path d="M282.658 206.647L282.826 205.096L282.929 204.999C283.406 204.548 283.705 204.071 283.817 203.58C283.835 203.502 283.848 203.423 283.862 203.343C283.918 203.024 283.988 202.628 284.294 202.216C284.466 201.986 284.92 201.468 285.389 201.649C285.515 201.697 285.601 201.778 285.66 201.865C285.675 201.85 285.69 201.835 285.706 201.819C285.909 201.622 286.05 201.55 286.186 201.481C286.291 201.428 286.399 201.373 286.583 201.227C286.663 201.162 286.727 201.105 286.781 201.056C286.946 200.91 287.156 200.738 287.444 200.806C287.749 200.889 287.854 201.18 287.923 201.373C288.047 201.716 288.086 201.953 288.111 202.109C288.12 202.167 288.131 202.231 288.139 202.252C288.205 202.42 289.044 202.464 289.36 202.482C290.069 202.52 290.683 202.554 290.831 203.039C290.937 203.386 290.716 203.765 290.156 204.194C289.981 204.328 289.807 204.42 289.655 204.489C289.748 204.578 289.823 204.698 289.827 204.861C289.837 205.248 289.44 205.546 288.646 205.746C288.448 205.796 288.183 205.863 287.835 205.846C287.672 205.838 287.529 205.813 287.406 205.79C287.388 205.859 287.355 205.931 287.295 206C287.118 206.202 286.832 206.254 286.445 206.14C286.017 206.021 285.679 205.859 285.381 205.716C285.12 205.592 284.896 205.486 284.707 205.457C284.357 205.408 284.03 205.624 283.638 205.912L282.658 206.647L282.658 206.647Z" fill="#F2F2F2"/>
<path d="M285.456 197.815L283.912 198.046L283.791 197.971C283.234 197.624 282.697 197.457 282.193 197.473C282.113 197.476 282.033 197.482 281.951 197.489C281.628 197.516 281.227 197.55 280.751 197.358C280.485 197.25 279.868 196.942 279.925 196.444C279.938 196.31 279.996 196.206 280.065 196.127C280.047 196.116 280.028 196.105 280.008 196.094C279.767 195.948 279.661 195.83 279.559 195.715C279.481 195.628 279.401 195.537 279.213 195.397C279.13 195.336 279.058 195.288 278.997 195.248C278.814 195.127 278.594 194.967 278.587 194.671C278.59 194.355 278.845 194.18 279.014 194.064C279.315 193.857 279.534 193.76 279.68 193.696C279.733 193.673 279.792 193.646 279.811 193.633C279.957 193.526 279.786 192.704 279.724 192.395C279.581 191.699 279.457 191.098 279.89 190.832C280.199 190.642 280.622 190.759 281.18 191.191C281.353 191.326 281.487 191.471 281.592 191.601C281.654 191.488 281.751 191.386 281.909 191.34C282.281 191.232 282.669 191.54 283.065 192.257C283.164 192.435 283.295 192.675 283.367 193.015C283.401 193.175 283.413 193.32 283.421 193.444C283.493 193.444 283.572 193.458 283.654 193.498C283.894 193.618 284.016 193.881 284.004 194.284C283.997 194.728 283.926 195.095 283.864 195.42C283.81 195.703 283.764 195.947 283.784 196.137C283.826 196.488 284.118 196.749 284.496 197.054L285.456 197.815H285.456Z" fill="#F2F2F2"/>
<path d="M285.664 193.183L285.832 191.632L285.935 191.535C286.412 191.084 286.711 190.607 286.823 190.116C286.84 190.038 286.854 189.959 286.868 189.878C286.924 189.56 286.993 189.163 287.3 188.752C287.472 188.522 287.926 188.004 288.395 188.185C288.521 188.232 288.606 188.314 288.666 188.401C288.681 188.386 288.696 188.371 288.712 188.355C288.914 188.158 289.056 188.086 289.192 188.017C289.297 187.963 289.405 187.909 289.588 187.762C289.669 187.698 289.733 187.64 289.787 187.592C289.952 187.445 290.162 187.274 290.45 187.342C290.755 187.425 290.86 187.716 290.929 187.908C291.053 188.252 291.091 188.488 291.117 188.645C291.126 188.702 291.136 188.767 291.144 188.788C291.211 188.956 292.05 188.999 292.366 189.018C293.075 189.056 293.689 189.089 293.837 189.575C293.942 189.922 293.722 190.301 293.161 190.73C292.987 190.864 292.812 190.956 292.66 191.025C292.754 191.113 292.828 191.233 292.833 191.397C292.843 191.784 292.446 192.081 291.651 192.282C291.454 192.332 291.189 192.399 290.841 192.382C290.678 192.374 290.534 192.349 290.412 192.325C290.394 192.395 290.361 192.467 290.3 192.536C290.124 192.738 289.838 192.789 289.451 192.675C289.023 192.556 288.685 192.394 288.387 192.252C288.126 192.128 287.901 192.022 287.713 191.993C287.362 191.944 287.035 192.16 286.644 192.448L285.664 193.183L285.664 193.183Z" fill="#F2F2F2"/>
<path d="M280.658 222.893L280.385 222.624L280.39 222.241L280.385 222.624L280.005 222.584C280.007 222.548 280.005 222.465 280.002 222.335C279.987 221.621 279.942 219.45 280.244 216.115C280.456 213.786 280.809 211.422 281.294 209.088C281.78 206.75 282.284 205.011 282.689 203.613C282.995 202.558 283.303 201.558 283.604 200.584C284.408 197.981 285.167 195.522 285.637 192.717C285.742 192.091 285.96 190.788 285.513 189.25C285.254 188.358 284.809 187.518 284.192 186.755L284.79 186.273C285.471 187.116 285.962 188.046 286.25 189.037C286.746 190.742 286.508 192.162 286.393 192.844C285.915 195.699 285.149 198.181 284.337 200.809C284.038 201.78 283.73 202.776 283.426 203.826C283.024 205.211 282.525 206.935 282.045 209.243C281.566 211.55 281.217 213.884 281.008 216.184C280.71 219.477 280.754 221.616 280.769 222.319C280.777 222.694 280.778 222.772 280.658 222.893V222.893Z" fill="#F2F2F2"/>
<path d="M282.554 187.637C282.523 187.63 282.492 187.623 282.461 187.614C281.831 187.437 281.326 186.924 280.959 186.089C280.787 185.697 280.747 185.284 280.666 184.46C280.653 184.333 280.597 183.69 280.666 182.838C280.711 182.281 280.771 182.058 280.923 181.882C281.091 181.687 281.318 181.575 281.557 181.518C281.564 181.445 281.588 181.373 281.636 181.304C281.833 181.021 282.163 181.137 282.342 181.198C282.433 181.23 282.545 181.271 282.672 181.293C282.87 181.327 282.989 181.292 283.169 181.24C283.341 181.19 283.555 181.128 283.85 181.133C284.433 181.141 284.865 181.403 285.007 181.489C285.757 181.939 286.015 182.657 286.315 183.489C286.374 183.655 286.572 184.257 286.618 185.033C286.651 185.593 286.578 185.822 286.494 185.985C286.322 186.322 286.059 186.478 285.405 186.806C284.723 187.15 284.381 187.323 284.1 187.411C283.447 187.616 283.036 187.745 282.554 187.637V187.637Z" fill="#F2F2F2"/>
<path d="M58.6543 200.108C58.4969 199.626 57.3041 199.838 57.1895 199.408C57.0754 198.979 58.22 198.62 59.0979 197.411C59.2562 197.193 60.2538 195.82 59.8712 195.242C59.146 194.147 54.1 196.874 52.8888 195.344C52.6229 195.008 52.5136 194.432 51.7217 193.359C51.4067 192.932 51.2046 192.726 50.9631 192.732C50.6204 192.741 50.4978 193.169 49.9593 193.945C49.1516 195.108 48.8602 194.962 48.3281 195.915C47.9332 196.623 47.8864 197.075 47.6015 197.102C47.1985 197.139 47.032 196.258 46.5395 196.224C46.0369 196.189 45.534 197.06 45.2847 197.74C44.8169 199.016 45.1066 199.992 45.1708 200.964C45.2406 202.021 45.0767 203.568 43.9277 205.553L33.0894 222.805C35.417 219.288 42.0242 209.697 44.6863 206.18C45.4548 205.164 46.2806 204.144 47.5517 203.952C48.7755 203.768 50.2645 204.373 52.3428 204.337C52.5855 204.333 53.261 204.313 53.4254 203.956C53.5612 203.66 53.2239 203.403 53.3466 203.125C53.5112 202.752 54.2516 202.912 55.2607 202.664C55.9723 202.49 56.4557 202.201 56.8714 201.953C56.9968 201.878 58.8638 200.748 58.6543 200.108H58.6543L58.6543 200.108Z" fill="#F2F2F2"/>
<path d="M30.2668 204.136C29.985 204.074 29.7449 204.72 29.5004 204.652C29.2568 204.584 29.4104 203.919 29.0701 203.14C29.0087 203 28.6219 202.114 28.2277 202.135C27.4806 202.175 27.3643 205.436 26.2631 205.588C26.0214 205.622 25.7066 205.509 24.951 205.588C24.6505 205.619 24.4909 205.659 24.4242 205.779C24.3296 205.949 24.5046 206.133 24.7304 206.621C25.0689 207.353 24.913 207.454 25.2278 207.989C25.4615 208.387 25.6701 208.541 25.601 208.688C25.5032 208.897 25.0224 208.724 24.8635 208.956C24.7013 209.192 24.9839 209.69 25.2461 210.008C25.7382 210.606 26.301 210.745 26.7972 210.995C27.3364 211.265 28.0489 211.792 28.6926 212.928L34.0407 223.221C32.9845 221.064 30.1795 215.057 29.2194 212.737C28.9422 212.067 28.6796 211.368 28.9521 210.689C29.2144 210.036 29.9412 209.48 30.5236 208.451C30.5916 208.331 30.7767 207.994 30.6483 207.81C30.5423 207.658 30.3186 207.749 30.2175 207.609C30.0818 207.421 30.374 207.104 30.5435 206.537C30.663 206.138 30.6608 205.818 30.6588 205.542C30.6583 205.459 30.6419 204.218 30.2668 204.136V204.136L30.2668 204.136Z" fill="#F2F2F2"/>
<path d="M35.6023 206.647L35.7704 205.096L35.8735 204.999C36.3505 204.548 36.6489 204.071 36.7609 203.58C36.7787 203.502 36.7925 203.423 36.8066 203.343C36.8624 203.024 36.9317 202.628 37.2385 202.216C37.4102 201.986 37.8644 201.468 38.3329 201.649C38.4593 201.697 38.5447 201.778 38.6039 201.865C38.6188 201.85 38.6341 201.835 38.6504 201.819C38.8527 201.622 38.9943 201.55 39.1306 201.481C39.2354 201.428 39.3436 201.373 39.5267 201.227C39.607 201.162 39.6713 201.105 39.7255 201.056C39.8899 200.91 40.1002 200.738 40.3881 200.806C40.6934 200.889 40.7981 201.18 40.8675 201.373C40.9916 201.716 41.0298 201.953 41.055 202.109C41.0641 202.167 41.0747 202.231 41.0827 202.252C41.1495 202.42 41.9883 202.464 42.3039 202.482C43.0133 202.52 43.6272 202.554 43.7748 203.039C43.8807 203.386 43.66 203.765 43.0997 204.194C42.9252 204.328 42.7507 204.42 42.5987 204.489C42.6922 204.578 42.7667 204.698 42.7713 204.861C42.7815 205.248 42.384 205.546 41.5898 205.746C41.3924 205.796 41.127 205.863 40.7796 205.846C40.616 205.838 40.4727 205.813 40.3505 205.79C40.3323 205.859 40.2989 205.931 40.2387 206C40.0619 206.202 39.7764 206.254 39.3889 206.14C38.9611 206.021 38.6231 205.859 38.3249 205.716C38.0644 205.592 37.8397 205.486 37.6513 205.457C37.3007 205.408 36.9738 205.624 36.5826 205.912L35.6023 206.647H35.6023L35.6023 206.647Z" fill="#F2F2F2"/>
<path d="M38.4 197.815L36.8561 198.046L36.7356 197.971C36.1785 197.624 35.6408 197.457 35.137 197.473C35.0568 197.476 34.9769 197.482 34.8954 197.489C34.5726 197.516 34.1713 197.55 33.6949 197.358C33.4293 197.25 32.8122 196.942 32.8687 196.444C32.8824 196.31 32.9401 196.206 33.0091 196.127C32.9907 196.116 32.9723 196.105 32.9524 196.094C32.7109 195.948 32.6053 195.83 32.5036 195.715C32.4254 195.628 32.3448 195.537 32.1567 195.397C32.0742 195.336 32.002 195.288 31.9413 195.248C31.7576 195.127 31.5381 194.967 31.5309 194.671C31.5342 194.355 31.7893 194.18 31.9582 194.064C32.2593 193.857 32.4784 193.76 32.6237 193.696C32.6768 193.673 32.7365 193.646 32.7548 193.633C32.9008 193.526 32.7301 192.704 32.6677 192.395C32.525 191.699 32.4015 191.098 32.8339 190.832C33.1432 190.642 33.5658 190.759 34.1239 191.191C34.2975 191.326 34.4311 191.471 34.5363 191.601C34.5981 191.488 34.6955 191.386 34.8527 191.34C35.225 191.232 35.6136 191.54 36.0089 192.257C36.1077 192.435 36.2396 192.675 36.3114 193.015C36.345 193.175 36.3572 193.32 36.3655 193.444C36.4375 193.444 36.5159 193.458 36.5977 193.498C36.8382 193.618 36.9604 193.881 36.9484 194.284C36.9416 194.728 36.8705 195.095 36.8083 195.42C36.7543 195.703 36.7086 195.947 36.7284 196.137C36.7699 196.488 37.0622 196.749 37.4401 197.054L38.4001 197.815H38.4H38.4Z" fill="#F2F2F2"/>
<path d="M38.6081 193.183L38.7762 191.632L38.8793 191.535C39.3563 191.084 39.6547 190.607 39.7667 190.116C39.7845 190.038 39.7983 189.959 39.8124 189.878C39.8682 189.56 39.9375 189.163 40.2443 188.752C40.416 188.522 40.8702 188.004 41.3387 188.185C41.4651 188.232 41.5505 188.314 41.6097 188.401C41.6246 188.386 41.6399 188.371 41.6562 188.355C41.8585 188.158 42.0001 188.086 42.1364 188.017C42.2412 187.963 42.3494 187.909 42.5325 187.762C42.6128 187.698 42.6771 187.64 42.7313 187.592C42.8957 187.445 43.106 187.274 43.3939 187.342C43.6992 187.425 43.8039 187.716 43.8733 187.908C43.9974 188.252 44.0355 188.488 44.0608 188.645C44.0699 188.702 44.0805 188.767 44.0885 188.788C44.1553 188.956 44.9941 188.999 45.3097 189.018C46.0191 189.056 46.633 189.089 46.7806 189.575C46.8865 189.922 46.6658 190.301 46.1055 190.73C45.931 190.864 45.7565 190.956 45.6045 191.025C45.698 191.113 45.7725 191.233 45.7771 191.397C45.7873 191.784 45.3898 192.081 44.5956 192.282C44.3982 192.332 44.1328 192.399 43.7854 192.382C43.6218 192.374 43.4785 192.349 43.3563 192.325C43.3381 192.395 43.3047 192.467 43.2445 192.536C43.0677 192.738 42.7822 192.789 42.3947 192.675C41.9669 192.556 41.6289 192.394 41.3307 192.252C41.0702 192.128 40.8455 192.022 40.6571 191.993C40.3065 191.944 39.9796 192.16 39.5884 192.448L38.6081 193.183H38.6081L38.6081 193.183Z" fill="#F2F2F2"/>
<path d="M33.6018 222.893L33.3288 222.624L33.3337 222.241L33.3288 222.624L32.9494 222.584C32.9512 222.548 32.9487 222.465 32.9459 222.335C32.9313 221.621 32.886 219.45 33.1886 216.115C33.3999 213.786 33.7529 211.422 34.238 209.088C34.7238 206.75 35.2281 205.011 35.6331 203.613C35.9387 202.558 36.2472 201.558 36.5483 200.584C37.352 197.981 38.1108 195.522 38.5807 192.717C38.686 192.091 38.9044 190.788 38.4572 189.25C38.1978 188.358 37.7536 187.518 37.1365 186.755L37.7338 186.273C38.4147 187.116 38.9059 188.046 39.194 189.037C39.6898 190.742 39.4519 192.162 39.3375 192.844C38.8592 195.699 38.0928 198.181 37.2813 200.809C36.9817 201.78 36.6741 202.776 36.3698 203.826C35.9685 205.211 35.4688 206.935 34.9893 209.243C34.5097 211.55 34.1612 213.884 33.9522 216.184C33.6537 219.477 33.6985 221.616 33.7132 222.319C33.7208 222.694 33.7224 222.772 33.6018 222.893V222.893H33.6018Z" fill="#F2F2F2"/>
<path d="M35.4981 187.637C35.4674 187.63 35.4365 187.623 35.4055 187.614C34.7756 187.437 34.2703 186.924 33.9033 186.089C33.7315 185.697 33.691 185.284 33.6101 184.46C33.5974 184.333 33.5414 183.69 33.6103 182.838C33.6551 182.281 33.715 182.058 33.8667 181.882C34.035 181.687 34.2619 181.575 34.5016 181.518C34.5081 181.445 34.5323 181.373 34.5801 181.304C34.7774 181.021 35.1075 181.137 35.2866 181.198C35.3768 181.23 35.4893 181.271 35.6158 181.293C35.8146 181.327 35.9333 181.292 36.113 181.24C36.2849 181.19 36.4987 181.128 36.7942 181.133C37.3772 181.141 37.8089 181.403 37.9512 181.489C38.7008 181.939 38.9596 182.657 39.2591 183.489C39.3186 183.655 39.5161 184.257 39.5621 185.033C39.5953 185.593 39.5219 185.822 39.4377 185.985C39.2659 186.322 39.0027 186.478 38.3495 186.806C37.6671 187.15 37.3248 187.323 37.044 187.411C36.3908 187.616 35.9806 187.745 35.4981 187.637V187.637Z" fill="#F2F2F2"/>
<path d="M266.163 223.058C266.163 223.351 266.398 223.586 266.692 223.586H337.471C337.764 223.586 338 223.351 338 223.058C338 222.764 337.764 222.529 337.471 222.529H266.692C266.398 222.529 266.163 222.764 266.163 223.058Z" fill="#333333"/>
<path d="M0 223.058C0 223.351 0.235516 223.586 0.528797 223.586H71.3085C71.6018 223.586 71.8373 223.351 71.8373 223.058C71.8373 222.764 71.6018 222.529 71.3085 222.529H0.528797C0.235516 222.529 0 222.764 0 223.058Z" fill="#333333"/>
<path d="M233.316 223.302H105.789V63.7055C105.789 47.4145 111.941 31.9126 123.11 20.0547C135.292 7.12235 151.785 0 169.553 0C204.712 0 233.316 28.5783 233.316 63.7055V223.302ZM106.678 222.414H232.428V63.7055C232.428 29.0677 204.222 0.887882 169.553 0.887882C152.033 0.887882 135.769 7.91095 123.757 20.6634C112.744 32.3557 106.678 47.6417 106.678 63.7055V222.414Z" fill="#333333"/>
<path d="M169.553 66.8805C169.437 66.8805 169.324 66.8354 169.239 66.7505L123.119 20.6729C122.946 20.4995 122.946 20.2186 123.119 20.0452C123.293 19.8718 123.574 19.8718 123.748 20.0452L169.109 65.3649V0.443941C169.109 0.198774 169.307 0 169.553 0C169.798 0 169.997 0.198774 169.997 0.443941V66.4366C169.997 66.6161 169.889 66.778 169.723 66.8467C169.668 66.8695 169.61 66.8805 169.553 66.8805Z" fill="#333333"/>
<path d="M215.795 20.5089L169.246 66.1244L169.869 66.7582L216.417 21.1428L215.795 20.5089Z" fill="#333333"/>
<path d="M232.872 66.1472H106.234V67.0359H232.872V66.1472Z" fill="#333333"/>
<path d="M262.247 246C261.199 246 260.165 245.642 259.31 244.947L232.591 223.202L233.153 222.514L259.871 244.258C261.009 245.184 262.54 245.37 263.866 244.746C265.193 244.121 266.023 242.823 266.032 241.358L267.26 48.7632C267.269 47.3616 266.542 46.1191 265.316 45.4391C264.091 44.76 262.653 44.8009 261.468 45.5494C244.398 56.3341 233.848 63.2067 233.248 63.9337C233.25 63.932 233.284 63.8897 233.303 63.8132L232.441 63.5978C232.52 63.2821 232.667 62.6947 260.993 44.799C262.457 43.8747 264.234 43.824 265.747 44.6629C267.262 45.5026 268.159 47.0375 268.148 48.7689L266.921 241.363C266.909 243.173 265.884 244.777 264.245 245.549C263.603 245.851 262.922 246 262.247 246Z" fill="#333333"/>
<path d="M233.002 182.258L232.743 183.108L266.655 193.426L266.914 192.576L233.002 182.258Z" fill="#333333"/>
<path d="M232.895 143.393L232.849 144.28L266.761 146.056L266.808 145.168L232.895 143.393Z" fill="#333333"/>
<path d="M267.295 95.6749L232.765 104.23L232.979 105.092L267.509 96.5367L267.295 95.6749Z" fill="#333333"/>
<path d="M76.4148 246C75.7396 246 75.0588 245.851 74.4166 245.549C72.7776 244.777 71.7523 243.173 71.7408 241.363L70.5129 48.7689C70.5019 47.0376 71.3997 45.5026 72.9145 44.6629C74.4277 43.8236 76.205 43.8749 77.6682 44.799C105.994 62.6947 106.141 63.2822 106.22 63.5978L105.358 63.8133C105.377 63.8898 105.412 63.932 105.413 63.9338C104.813 63.2067 94.2637 56.3341 77.1931 45.5495C76.0089 44.8014 74.5709 44.7602 73.3456 45.4391C72.1194 46.1191 71.3927 47.3616 71.4016 48.7633L72.6294 241.358C72.6388 242.823 73.4687 244.121 74.7954 244.746C76.1226 245.371 77.6531 245.184 78.7902 244.259L105.509 222.514L106.07 223.203L79.3513 244.947C78.4971 245.642 77.4628 246 76.4148 246Z" fill="#333333"/>
<path d="M105.659 182.257L71.7476 192.577L72.0066 193.427L105.919 183.107L105.659 182.257Z" fill="#333333"/>
<path d="M105.766 143.395L71.8535 145.167L71.8999 146.055L105.813 144.283L105.766 143.395Z" fill="#333333"/>
<path d="M71.366 95.6745L71.1521 96.5363L105.682 105.093L105.896 104.231L71.366 95.6745Z" fill="#333333"/>
<path d="M78.2399 160.263C80.9394 160.263 83.1277 158.076 83.1277 155.379C83.1277 152.682 80.9394 150.496 78.2399 150.496C75.5405 150.496 73.3521 152.682 73.3521 155.379C73.3521 158.076 75.5405 160.263 78.2399 160.263Z" fill="#333333"/>
<path d="M128.113 160.531H142.048V142.758H128.113V160.531Z" fill="#FFB6B6"/>
<path d="M141.158 110.766C141.864 109.441 142.195 108.864 142.048 108.1C141.789 106.758 140.288 106.028 139.676 105.73C137.709 104.774 135.159 104.831 133.153 106.026C131.948 106.744 131.304 107.655 130.781 108.396C130.312 109.06 128.854 111.125 129.002 113.728C129.113 115.683 130.008 115.804 129.891 116.987C129.599 119.955 123.888 119.913 122.479 123.207C121.208 126.178 123.755 131.114 127.52 132.983C133.251 135.828 139.454 130.4 140.565 129.428C143.242 127.086 145.012 123.863 144.42 123.207C144.073 122.823 143.16 123.59 141.751 123.207C140.145 122.771 139.293 121.221 139.083 120.838C137.867 118.625 138.58 116.205 138.786 115.506C138.978 114.856 139.704 113.493 141.158 110.766H141.158Z" fill="#333333"/>
<path d="M148.621 220.983L152.684 220.982L154.617 205.323L148.62 205.324L148.621 220.983Z" fill="#FFB6B6"/>
<path d="M162.542 220.891C162.669 221.103 162.736 221.791 162.736 222.038C162.736 222.799 162.118 223.416 161.357 223.416H148.773C148.253 223.416 147.832 222.995 147.832 222.476V221.953C147.832 221.953 147.21 220.379 148.491 218.44C148.491 218.44 150.084 219.959 152.464 217.581L153.166 216.31L158.247 220.023L161.063 220.369C161.679 220.445 162.226 220.357 162.542 220.891H162.542Z" fill="#333333"/>
<path d="M125.198 220.983L129.261 220.982L131.194 205.323L125.197 205.324L125.198 220.983Z" fill="#FFB6B6"/>
<path d="M139.12 220.891C139.246 221.103 139.313 221.791 139.313 222.038C139.313 222.799 138.695 223.416 137.934 223.416H125.35C124.831 223.416 124.409 222.995 124.409 222.476V221.953C124.409 221.953 123.787 220.379 125.068 218.44C125.068 218.44 126.661 219.959 129.041 217.581L129.743 216.31L134.824 220.023L137.64 220.369C138.256 220.445 138.803 220.357 139.12 220.891H139.12Z" fill="#333333"/>
<path d="M138.193 117.283L137.897 126.466L127.223 127.947L132.708 115.48L138.193 117.283Z" fill="#FFB6B6"/>
<path d="M135.228 120.245C138.667 120.245 141.455 117.46 141.455 114.024C141.455 110.589 138.667 107.804 135.228 107.804C131.79 107.804 129.002 110.589 129.002 114.024C129.002 117.46 131.79 120.245 135.228 120.245Z" fill="#FFB6B6"/>
<path d="M128.113 153.422C128.113 153.422 121.441 160.679 125.592 167.196L124.999 188.228C124.999 188.228 122.529 203.464 125.395 213.471L130.336 213.111L133.894 187.043L137.452 169.862L145.754 186.747C145.754 186.747 145.161 198.892 148.126 211.926H154.648L154.056 181.711L141.928 150.759L128.113 153.422L128.113 153.422Z" fill="#333333"/>
<path d="M137.897 122.911L137.45 122.749L131.374 120.541C131.374 120.541 123.665 126.466 123.665 129.724C123.665 132.983 127.816 144.831 127.816 144.831C127.816 144.831 122.183 150.756 127.223 151.052C132.263 151.348 133.242 145.671 141.544 149.226L143.827 142.462C143.827 142.462 147.384 134.76 145.605 132.983L137.897 122.911V122.911Z" fill="#EDEDED"/>
<path d="M146.857 118.662C147.226 116.937 148.415 115.729 149.514 115.963C150.612 116.197 151.204 117.785 150.835 119.511C150.698 120.202 150.396 120.85 149.956 121.401L148.303 128.69L145.42 128.029L146.887 120.747C146.711 120.064 146.701 119.349 146.857 118.662V118.662Z" fill="#FFB6B6"/>
<path d="M127.418 126.226L140.713 134.595L145.523 121.27L150.504 122.58L146.15 138.122C145.527 140.347 143.098 141.529 140.961 140.646L122.709 133.113L127.418 126.226Z" fill="#EDEDED"/>
<path d="M147.719 126.434L141.915 120.146C141.821 120.044 141.774 119.906 141.786 119.768C141.798 119.629 141.868 119.501 141.978 119.417L147.38 115.286C147.489 115.202 147.629 115.168 147.765 115.191C147.9 115.214 148.021 115.293 148.096 115.408L152.792 122.585C152.934 122.802 152.883 123.095 152.676 123.251L148.383 126.493C148.339 126.526 148.292 126.551 148.243 126.568C148.062 126.629 147.856 126.582 147.719 126.434L147.719 126.434Z" fill="#FFD000"/>
<path d="M141.398 119.536C141.463 119.466 141.551 119.373 141.659 119.264C141.578 119.233 141.506 119.176 141.459 119.095L141.132 118.531C141.047 118.385 141.064 118.201 141.177 118.075C141.845 117.32 144.209 114.798 146.489 114.125C146.632 114.082 146.786 114.128 146.886 114.237L147.349 114.741C147.406 114.803 147.439 114.878 147.449 114.956C147.617 114.874 147.786 114.796 147.957 114.722C148.064 114.675 148.189 114.697 148.275 114.776L148.491 114.974C148.628 115.1 148.617 115.319 148.469 115.431L141.971 120.323C141.823 120.435 141.61 120.386 141.526 120.221L141.35 119.874C141.293 119.762 141.312 119.627 141.398 119.536H141.398Z" fill="#333333"/>
<path d="M189.613 193.182C187.503 194.453 187.295 195.053 186.016 195.578C185.369 195.843 184.158 196.208 181.82 195.877C178.599 195.421 176.613 194.121 171.029 191.086C167.047 188.92 165.1 187.973 162.337 187.492C160.266 187.131 159.063 187.262 158.14 187.492C154.922 188.292 153.165 190.772 152.745 191.385C151.291 193.504 151.106 195.573 150.946 197.374C150.744 199.644 150.453 202.923 152.145 205.46C154.266 208.639 157.22 207.23 162.337 210.252C167.992 213.591 167.046 216.885 171.629 218.637C177.493 220.879 183.877 217.335 184.218 217.14C190.289 213.661 191.531 207.348 194.709 207.856C196.608 208.159 196.797 210.514 199.805 211.15C200.368 211.269 202.684 211.759 204.301 210.252C205.294 209.326 205.264 211.399 204.751 210.102C204.092 208.437 202.763 205.187 201.903 203.364C201.444 202.39 201.961 202.089 201.603 199.471C201.428 198.192 201.34 197.546 201.004 196.776C200.171 194.866 198.553 193.88 197.407 193.182C196.012 192.332 194.642 191.496 192.911 191.684C191.92 191.792 191.151 192.255 189.613 193.182H189.613Z" fill="#333333"/>
<path d="M153.044 200.369C152.513 200.804 152.386 201.686 152.145 203.364C151.922 204.916 152.058 205.868 152.145 207.556C152.276 210.092 152.07 209.856 152.145 213.246C152.207 216.037 152.238 217.432 152.445 218.637C152.816 220.805 153.014 219.972 154.843 225.525C155.214 226.652 155.51 227.608 156.342 227.921C157.384 228.313 158.586 227.437 158.74 227.322C158.992 227.133 159.883 226.466 159.939 225.525C160.009 224.331 158.656 224.028 157.541 222.231C156.844 221.108 156.677 219.985 156.342 217.739C156.023 215.602 155.864 214.534 156.342 213.546C157.213 211.744 159.208 211.185 159.339 211.15C160.533 210.835 160.918 211.281 162.337 211.15C163.663 211.027 165.848 210.404 166.233 209.353C167.288 206.474 155.585 198.29 153.044 200.369Z" fill="#333333"/>
<path d="M157.84 196.177C157.309 196.612 157.182 197.494 156.941 199.171C156.718 200.723 156.854 201.675 156.941 203.364C157.072 205.899 156.866 205.663 156.941 209.054C157.003 211.844 157.034 213.239 157.241 214.444C157.612 216.612 157.81 215.779 159.639 221.332C160.01 222.459 160.305 223.415 161.138 223.728C162.18 224.12 163.381 223.244 163.536 223.129C163.788 222.94 164.679 222.273 164.735 221.332C164.805 220.138 163.452 219.835 162.337 218.038C161.64 216.916 161.473 215.793 161.138 213.546C160.819 211.409 160.66 210.341 161.138 209.353C162.009 207.551 164.004 206.992 164.135 206.958C165.329 206.642 165.714 207.089 167.133 206.958C168.459 206.835 170.644 206.211 171.029 205.161C172.084 202.281 160.38 194.098 157.84 196.177Z" fill="#333333"/>
<path d="M166.833 210.851C166.495 211.365 166.108 212.691 165.334 215.343C164.989 216.525 162.753 224.307 162.037 226.723C161.831 227.417 161.564 228.284 160.838 229.119C160.227 229.821 159.9 229.799 159.639 230.316C158.959 231.664 160.286 233.565 160.538 233.91C160.832 234.312 162.195 236.179 164.135 236.006C164.338 235.988 165.649 235.872 165.934 235.108C166.37 233.937 163.802 232.838 163.835 230.915C163.855 229.78 164.766 229.31 165.934 227.921C168.439 224.941 167.371 223.393 169.231 221.033C172.013 217.503 177.184 217.438 177.923 217.439C179.838 217.442 182.503 217.446 184.218 219.236C186.609 221.732 185.621 226.098 186.616 232.712C186.616 232.712 186.777 233.785 187.215 235.407C187.939 238.086 188.516 238.777 188.714 239.001C188.984 239.306 189.774 240.172 191.112 240.499C191.297 240.544 192.149 240.739 193.21 240.499C193.915 240.339 194.557 240.194 195.009 239.6C195.442 239.031 195.607 238.172 195.309 237.504C194.948 236.695 194.204 236.827 193.21 236.006C192.509 235.428 192.143 234.622 191.412 233.012C191.088 232.299 190.603 231.218 190.213 229.718C189.761 227.981 189.706 226.64 189.613 224.028C189.536 221.827 189.573 219.997 189.613 218.038C189.66 215.757 189.724 215.012 189.613 213.546C189.497 212.008 189.384 210.511 189.014 209.653C187.023 205.037 171.227 204.155 166.833 210.851Z" fill="#333333"/>
<path d="M154.243 190.487C152.962 189.779 152.779 188.122 152.445 185.096C152.201 182.892 152.056 181.579 152.745 180.005C153.674 177.881 155.417 176.889 155.742 176.711C156.097 176.516 158.425 175.282 160.838 176.112C161.175 176.228 162.066 176.889 163.835 178.208C165.947 179.782 166.256 180.082 166.533 180.604C167.273 182 167.194 183.888 166.533 184.198C166.031 184.433 165.162 183.772 164.735 183.299C164.223 182.734 164.3 182.391 163.835 181.802C163.467 181.335 163.121 181.172 162.037 180.604C159.353 179.197 159.217 179.01 158.74 179.107C157.55 179.347 156.983 180.791 156.941 180.903C156.578 181.866 156.827 182.742 157.241 184.198C157.46 184.968 157.709 185.562 158.14 186.593C158.922 188.46 159.127 188.6 159.039 188.989C158.751 190.264 155.936 191.422 154.243 190.487V190.487Z" fill="#333333"/>
<path d="M184.967 195.727C184.472 195.809 184.231 198.64 184.967 201.118C185.471 202.812 186.486 204.528 186.667 204.83C186.81 205.068 186.947 205.286 187.365 205.909C189.41 208.959 190.443 210.483 190.962 210.401C191.655 210.293 189.759 208.656 189.613 207.091C189.343 204.181 188.035 203.821 185.717 199.604C184.462 197.322 185.354 195.663 184.967 195.727Z" fill="#FFD000"/>
<path d="M195.458 194.829C195.709 193.555 194.284 191.785 192.761 191.535C190.539 191.17 188.611 194.118 187.965 196.027C187.077 198.652 188.074 200.908 188.564 202.016C189.179 203.407 189.639 203.498 189.763 203.514C190.67 203.627 191.745 201.967 192.161 200.519C192.527 199.244 192.114 199.07 192.461 198.123C193.175 196.174 195.191 196.189 195.458 194.829V194.829Z" fill="#333333"/>
<path d="M185.409 201.217L125.93 162.436L126.807 162.237L186.286 201.018L185.409 201.217Z" fill="#FFD000"/>
<path d="M128.677 161.952C128.89 163.834 128.09 165.47 126.891 165.605C125.692 165.74 124.548 164.324 124.335 162.441C124.24 161.689 124.326 160.927 124.587 160.216L123.786 152.228L126.948 151.92L127.936 159.838C128.348 160.474 128.603 161.198 128.677 161.952H128.677Z" fill="#FFB6B6"/>
<path d="M127.143 124.07L121.821 128.929L121.418 145.21L123.899 157.451L127.59 157.046L126.259 142.927L128.483 127.33L127.143 124.07Z" fill="#EDEDED"/>
<path d="M138.193 110.47C138.9 109.145 139.23 108.568 139.083 107.804C138.825 106.461 137.323 105.732 136.711 105.434C134.744 104.478 132.194 104.535 130.188 105.73C128.983 106.448 128.339 107.359 127.816 108.1C127.347 108.764 125.889 110.828 126.037 113.432C126.148 115.386 127.043 115.508 126.927 116.69C126.634 119.659 120.924 119.616 119.514 122.911C118.243 125.882 120.79 130.817 124.555 132.686C130.286 135.532 136.489 130.104 137.6 129.132C140.277 126.79 142.047 123.567 141.455 122.911C141.108 122.527 140.195 123.294 138.786 122.911C137.18 122.475 136.328 120.924 136.118 120.541C134.902 118.329 135.615 115.909 135.821 115.209C136.013 114.56 136.74 113.196 138.193 110.47Z" fill="#333333"/>
<path d="M169.553 66.8805C169.504 66.8805 169.455 66.8725 169.408 66.8562L109.199 46.1456C108.967 46.0658 108.844 45.8132 108.924 45.5813C109.004 45.3496 109.256 45.2262 109.489 45.3062L169.549 65.9657L229.753 44.0975C229.985 44.0143 230.239 44.1329 230.323 44.3631C230.407 44.5935 230.288 44.8482 230.057 44.9321L169.705 66.8538C169.656 66.8716 169.604 66.8805 169.553 66.8805L169.553 66.8805Z" fill="#333333"/>
</g>
<defs>
<clipPath id="clip0_618_2738">
<rect width="338" height="246" rx="16" fill="white"/>
</clipPath>
</defs>
</svg>
