<svg width="338" height="246" viewBox="0 0 338 246" fill="none" xmlns="http://www.w3.org/2000/svg">
<g clip-path="url(#clip0_618_2809)">
<rect width="338" height="246" rx="16" fill="white"/>
<path opacity="0.1" d="M112.371 245.862C128.831 245.862 142.175 243.66 142.175 240.943C142.175 238.227 128.831 236.025 112.371 236.025C95.9106 236.025 82.5669 238.227 82.5669 240.943C82.5669 243.66 95.9106 245.862 112.371 245.862Z" fill="#FFD000"/>
<path opacity="0.1" d="M274.382 246C294.922 246 311.573 243.798 311.573 241.082C311.573 238.365 294.922 236.163 274.382 236.163C253.842 236.163 237.191 238.365 237.191 241.082C237.191 243.798 253.842 246 274.382 246Z" fill="#FFD000"/>
<path opacity="0.1" d="M4.23326 106.29H35.2761V149.764H6.50588C6.42941 150.21 6.35601 150.66 6.27648 151.109H35.2761V186.17C35.2241 186.155 35.1783 186.136 35.1293 186.117C34.3096 185.784 33.496 185.432 32.6823 185.055L32.1624 184.813C31.3467 184.417 30.5311 183.998 29.7154 183.556C29.4309 183.402 29.1465 183.241 28.8651 183.078C24.3369 180.472 20.2233 177.169 16.6669 173.285C16.5629 173.181 16.4651 173.071 16.3611 172.971C15.8655 172.417 15.3792 171.858 14.9082 171.286L14.3882 170.657C13.8315 169.957 13.2932 169.237 12.7701 168.508C12.6937 168.401 12.6202 168.294 12.5407 168.194C10.4135 165.163 8.64729 161.882 7.27974 158.419C7.23691 158.316 7.20021 158.203 7.16045 158.105C6.74038 156.995 6.36824 155.874 6.04402 154.742C5.90332 154.268 5.76873 153.799 5.6525 153.306C5.60968 153.161 5.57297 153.02 5.53933 152.879C3.80198 145.911 3.59705 138.673 3.59705 131.486C3.59705 130.646 3.59705 129.804 3.59705 128.971C3.59705 126.064 3.63069 123.138 3.67963 120.215C3.67963 119.458 3.71022 118.704 3.72551 117.943C3.76833 116.014 3.82951 114.084 3.90903 112.154C3.92739 111.617 3.95186 111.082 3.97938 110.548C3.97938 110.24 3.99468 109.932 4.02527 109.624C4.09868 108.505 4.15985 107.396 4.23326 106.29Z" fill="#FFD000"/>
<path opacity="0.1" d="M35.2761 57.8842H18.2483C21.0163 53.4327 24.0406 49.155 27.3051 45.0741C29.8347 41.881 32.505 38.7697 35.2761 35.7714V57.8842Z" fill="#FFD000"/>
<path opacity="0.1" d="M35.2761 59.2293V104.945H4.33112C4.33112 104.813 4.35253 104.677 4.3617 104.545C4.38923 104.184 4.41676 103.823 4.44735 103.464C4.48099 103.043 4.5177 102.619 4.55746 102.207C4.59722 101.795 4.64005 101.293 4.68593 100.837C4.73181 100.381 4.77463 99.9192 4.82663 99.4635C4.87862 99.0078 4.92451 98.5521 4.97956 98.0995C5.03462 97.647 5.08356 97.1881 5.14168 96.7356C5.18756 96.3584 5.23649 95.9844 5.28543 95.6073C5.35578 95.0762 5.42919 94.5419 5.50872 94.0139C5.50872 93.9353 5.53013 93.8536 5.54237 93.7782C6.10064 89.913 6.86132 86.0816 7.82111 82.3006C8.82577 78.3344 10.1087 74.4481 11.6598 70.6723C13.3083 66.7223 15.2385 62.9028 17.4346 59.245L35.2761 59.2293Z" fill="#FFD000"/>
<path opacity="0.1" d="M42.6874 106.287V149.764H108.991V106.287H42.6874ZM42.6874 151.106V188.443C43.0667 188.524 43.4429 188.603 43.816 188.669C44.3238 188.77 44.8285 188.861 45.3454 188.939C45.4433 188.955 45.5442 188.971 45.6513 188.98C45.8531 189.015 46.0611 189.043 46.263 189.071C46.7738 189.144 47.2816 189.203 47.7924 189.25C48.034 189.276 48.2787 189.298 48.5234 189.316L49.1137 189.364C49.4349 189.389 49.753 189.408 50.068 189.417C50.2638 189.417 50.4596 189.436 50.6614 189.442C50.8144 189.442 50.9673 189.442 51.1264 189.442C51.2854 189.442 51.5118 189.442 51.7045 189.442C51.9675 189.442 52.2306 189.442 52.4906 189.442H52.8423C53.1054 189.442 53.3684 189.442 53.6284 189.417H53.6467C53.8272 189.417 54.0107 189.417 54.1943 189.392C54.2452 189.395 54.2963 189.395 54.3472 189.392C54.5001 189.392 54.6531 189.392 54.7999 189.37H54.9069L55.9316 189.288C56.2681 189.257 56.6076 189.216 56.9502 189.178L57.6475 189.093C60.4847 188.685 63.2904 188.071 66.0437 187.258C72.2284 185.485 78.2786 183.006 84.4602 181.189C92.4526 178.848 101.283 177.697 109.006 180.561V151.106H42.6874ZM108.991 57.8843V0.00318657C101.732 -0.0776224 94.4925 0.794759 87.4486 2.59915C70.6593 6.93307 55.5951 16.3332 42.6874 28.3387V57.8811H46.0153V59.2231H42.6874V104.945H108.991V59.2262H59.6785V57.8843H108.991ZM194.155 38.3329C190.001 38.182 185.872 36.8306 182.137 34.7438C174.995 30.7524 169.291 24.5894 162.916 19.388C149.672 8.55476 133.247 2.01773 116.396 0.396037V57.8843H211.048L211.284 57.6297L194.155 38.3329ZM202.777 36.7615L211.92 47.0699V34.0586C208.858 34.4483 206.176 35.3755 202.79 36.7489L202.777 36.7615ZM211.92 197.714V151.106H192.439C192.387 150.908 192.335 150.707 192.274 150.506C192.332 150.707 192.381 150.908 192.436 151.106H116.408V184.813C117.13 185.363 117.843 185.941 118.55 186.529C119.311 187.157 120.064 187.82 120.819 188.471L121.581 189.118C121.945 189.433 122.312 189.747 122.682 190.042C123.416 190.654 124.157 191.258 124.906 191.853C125.276 192.167 125.655 192.45 126.031 192.745C132.004 197.437 138.305 201.672 144.882 205.414C146.356 206.252 147.844 207.07 149.345 207.868C150.345 208.393 151.351 208.915 152.361 209.421C153.878 210.181 155.407 210.915 156.949 211.621C171.161 218.176 186.19 222.675 201.606 224.987C205.03 225.507 208.467 225.915 211.917 226.213V197.711H212.223L211.92 197.714ZM116.408 59.2262V104.945H211.932V59.2262H116.408ZM116.408 106.287V149.764H211.932V106.287H116.408ZM219.346 34.0021V48.5155L231.015 35.3598C227.149 34.7186 223.259 34.2608 219.346 33.9864V34.0021ZM219.346 106.302V149.764H312.255V106.287L219.346 106.302ZM311.915 201.165L312.243 151.106H219.346V226.713C225.331 226.971 231.324 226.898 237.301 226.493H237.405C240.26 226.308 243.101 226.04 245.93 225.688H245.994C261.083 223.884 275.837 219.839 289.795 213.679M330.17 113.446C329.821 112.601 329.457 111.761 329.087 110.932C328.396 109.36 327.665 107.833 326.912 106.305H319.663V149.764H337.991C337.982 137.457 334.95 124.886 330.179 113.43L330.17 113.446ZM319.663 151.122V194.178C324.826 189.093 329.188 183.276 332.329 176.626C336.107 168.618 337.835 159.947 337.975 151.116L319.663 151.122ZM319.663 93.6337V104.948H326.233C324.246 101.053 322.055 97.2709 319.672 93.618L319.663 93.6337ZM256.654 42.5316C256.17 42.3431 255.687 42.1514 255.201 41.9659C250.071 40.0197 244.83 38.4012 239.506 37.1197L221.65 57.2557L221.307 57.6297L221.536 57.8874H285.09C276.239 51.6271 266.697 46.4672 256.663 42.5159L256.654 42.5316ZM286.953 59.2419H220.649L219.346 60.4676V104.945H230.768H230.786H312.267V83.4007C304.896 74.2412 296.389 66.1139 286.962 59.2262L286.953 59.2419Z" fill="#FFD000"/>
<path opacity="0.1" d="M35.2761 82.2881V104.945H4.33112C4.33112 104.813 4.35253 104.677 4.3617 104.545C4.38923 104.184 4.41676 103.823 4.44735 103.464C4.48099 103.043 4.5177 102.619 4.55746 102.207C4.59722 101.795 4.64005 101.293 4.68593 100.837C4.73181 100.381 4.77463 99.9192 4.82663 99.4635C4.87862 99.0078 4.92451 98.5521 4.97956 98.0995C5.03462 97.647 5.08356 97.1881 5.14168 96.7356C5.18756 96.3584 5.23649 95.9844 5.28543 95.6073C5.35578 95.0762 5.42919 94.5419 5.50872 94.0139C5.50872 93.9353 5.53013 93.8536 5.54237 93.7782C6.10064 89.913 6.86132 86.0816 7.82111 82.3007L35.2761 82.2881Z" fill="#FFD000"/>
<path opacity="0.1" d="M4.23326 106.29H35.2761V149.764H6.50588C6.42941 150.21 6.35601 150.66 6.27648 151.109H35.2761V186.17C35.2241 186.155 35.1783 186.136 35.1293 186.117C34.3096 185.784 33.496 185.432 32.6823 185.055L32.1624 184.813C31.3467 184.417 30.5311 183.998 29.7154 183.556C29.4309 183.402 29.1465 183.241 28.8651 183.078C24.3369 180.472 20.2233 177.169 16.6669 173.285C16.5629 173.181 16.4651 173.071 16.3611 172.971C15.8655 172.417 15.3792 171.858 14.9082 171.286L14.3882 170.657C13.8315 169.957 13.2932 169.237 12.7701 168.508C12.6937 168.401 12.6202 168.294 12.5407 168.194C10.4135 165.163 8.64729 161.882 7.27974 158.419C7.23691 158.316 7.20021 158.203 7.16045 158.105C6.74038 156.995 6.36824 155.874 6.04402 154.742C5.90332 154.268 5.76873 153.799 5.6525 153.306C5.60968 153.161 5.57297 153.02 5.53933 152.879C3.80198 145.911 3.59705 138.673 3.59705 131.486C3.59705 130.646 3.59705 129.804 3.59705 128.971C3.59705 126.064 3.63069 123.138 3.67963 120.215C3.67963 119.458 3.71022 118.704 3.72551 117.943C3.76833 116.014 3.82951 114.084 3.90903 112.154C3.92739 111.617 3.95186 111.082 3.97938 110.548C3.97938 110.24 3.99468 109.932 4.02527 109.624C4.09868 108.505 4.15985 107.396 4.23326 106.29Z" fill="#FFD000"/>
<path opacity="0.1" d="M66.0284 65.7726V104.945H42.6874V65.7726H46.0153V52.51H59.6755V65.7726H66.0284Z" fill="#FFD000"/>
<path opacity="0.1" d="M66.0284 106.287H42.6904V149.761H66.0284V106.287Z" fill="#FFD000"/>
<path opacity="0.1" d="M42.6874 151.109H66.0284V187.252C63.2751 188.064 60.4694 188.677 57.6322 189.084L56.9349 189.172C56.5923 189.213 56.2528 189.247 55.9163 189.282C55.5799 189.316 55.2312 189.341 54.8916 189.363H54.7846C54.6378 189.363 54.4787 189.382 54.335 189.385H54.179C53.9954 189.385 53.8119 189.404 53.6284 189.411C53.3684 189.426 53.1084 189.429 52.8423 189.433C52.7291 189.433 52.6221 189.433 52.5089 189.433C52.2459 189.433 51.9859 189.433 51.7228 189.433H51.1447C50.9887 189.433 50.8388 189.433 50.6767 189.433L50.0864 189.411C49.7805 189.411 49.4502 189.376 49.1321 189.354L48.5448 189.31L47.8138 189.241C47.2999 189.194 46.7891 189.134 46.2844 189.062L45.6727 188.974L45.3668 188.93C44.856 188.848 44.3513 188.76 43.8375 188.659C43.4612 188.593 43.0881 188.512 42.7088 188.433L42.6874 151.109Z" fill="#FFD000"/>
<path opacity="0.1" d="M211.932 61.1464H192.687V104.941H211.932V61.1464Z" fill="#FFD000"/>
<path opacity="0.1" d="M211.935 106.287V149.764H116.409V131.011H167.29V142.074H192.687V106.287H211.935Z" fill="#FFD000"/>
<path opacity="0.1" d="M212.238 197.723H211.932V226.244C208.486 225.945 205.05 225.537 201.624 225.022C186.201 222.702 171.166 218.194 156.949 211.627C152.844 209.729 148.823 207.657 144.885 205.411C138.308 201.667 132.006 197.432 126.031 192.742C124.53 191.56 123.049 190.351 121.587 189.115C120.574 188.257 119.568 187.377 118.55 186.522C117.843 185.935 117.13 185.356 116.409 184.803V151.109H192.433C192.381 150.908 192.329 150.707 192.274 150.509C192.332 150.707 192.387 150.908 192.439 151.109H211.932V197.704C212.036 197.708 212.137 197.717 212.238 197.723Z" fill="#FFD000"/>
<path opacity="0.1" d="M262.126 57.8842H249.585V53.8803H255.207V41.9533C255.694 42.1356 256.179 42.3231 256.663 42.5159V53.8803H262.126V57.8842Z" fill="#FFD000"/>
<path opacity="0.1" d="M292.34 104.945H230.774C230.774 104.945 230.774 104.945 230.795 104.96L230.768 104.945H219.346V61.1496H222.583V93.5205H237.371V74.3494H249.588V59.2293H262.129V74.3619H274.345V93.533H292.34V104.945Z" fill="#FFD000"/>
<path opacity="0.1" d="M219.346 106.287V149.764H292.34V106.287H219.346ZM312.154 200.942L312.255 166.528H292.34V151.128H219.346V226.713C225.331 226.971 231.324 226.897 237.301 226.493H237.405C240.26 226.308 243.101 226.04 245.93 225.688H245.994C261.083 223.884 275.837 219.839 289.795 213.679" fill="#FFD000"/>
<path opacity="0.1" d="M320.96 151.109H337.988C337.838 159.937 336.113 168.608 332.338 176.616C329.197 183.27 324.832 189.087 319.675 194.169V166.512H320.96V151.109Z" fill="#FFD000"/>
<path opacity="0.1" d="M337.997 149.764H320.96V113.43H330.179C334.95 124.886 337.982 137.457 337.997 149.764Z" fill="#FFD000"/>
<path opacity="0.1" d="M211.935 73.3217H201.624V87.0526H211.935V73.3217Z" fill="#FFD000"/>
<path opacity="0.1" d="M211.935 101.783H201.624V104.945H211.935V101.783Z" fill="#FFD000"/>
<path opacity="0.1" d="M211.935 106.287H201.624V115.511H211.935V106.287Z" fill="#FFD000"/>
<path opacity="0.1" d="M211.935 130.244H201.624V143.975H211.935V130.244Z" fill="#FFD000"/>
<path opacity="0.1" d="M211.935 158.705H201.624V172.436H211.935V158.705Z" fill="#FFD000"/>
<path opacity="0.1" d="M211.932 197.704C212.036 197.704 212.137 197.704 212.238 197.723H211.932V200.913H201.624V187.167H211.932V197.704Z" fill="#FFD000"/>
<path opacity="0.1" d="M211.932 215.622V226.229C208.486 225.929 205.05 225.521 201.624 225.006V215.622H211.932Z" fill="#FFD000"/>
<path opacity="0.1" d="M160.598 148.755H116.409V149.764H160.598V148.755Z" fill="#FFD000"/>
<path opacity="0.1" d="M160.598 151.106H116.409V154.972H160.598V151.106Z" fill="#FFD000"/>
<path opacity="0.1" d="M160.598 167.644H116.409V173.86H160.598V167.644Z" fill="#FFD000"/>
<path opacity="0.1" d="M160.595 186.532V192.748H126.031C124.53 191.571 123.048 190.362 121.584 189.122C120.571 188.264 119.568 187.384 118.547 186.532H160.595Z" fill="#FFD000"/>
<path opacity="0.1" d="M160.595 205.417V211.627H156.946C152.845 209.727 148.825 207.654 144.885 205.408L160.595 205.417Z" fill="#FFD000"/>
<path opacity="0.1" d="M246.003 110.501H237.304V119.439H246.003V110.501Z" fill="#FFD000"/>
<path opacity="0.1" d="M57.6537 68.8557H48.9547V77.7939H57.6537V68.8557Z" fill="#FFD000"/>
<path opacity="0.1" d="M57.6537 89.6171H48.9547V98.5553H57.6537V89.6171Z" fill="#FFD000"/>
<path opacity="0.1" d="M57.6537 110.378H48.9547V119.317H57.6537V110.378Z" fill="#FFD000"/>
<path opacity="0.1" d="M57.6537 131.137H48.9547V140.075H57.6537V131.137Z" fill="#FFD000"/>
<path opacity="0.1" d="M57.6537 151.898H48.9547V160.836H57.6537V151.898Z" fill="#FFD000"/>
<path opacity="0.1" d="M57.6537 172.659H48.9547V181.598H57.6537V172.659Z" fill="#FFD000"/>
<path opacity="0.1" d="M279.212 110.501H270.513V119.439H279.212V110.501Z" fill="#FFD000"/>
<path opacity="0.1" d="M246.003 132.548H237.304V141.486H246.003V132.548Z" fill="#FFD000"/>
<path opacity="0.1" d="M279.212 132.548H270.513V141.486H279.212V132.548Z" fill="#FFD000"/>
<path opacity="0.1" d="M246.003 154.591H237.304V163.53H246.003V154.591Z" fill="#FFD000"/>
<path opacity="0.1" d="M279.212 154.591H270.513V163.53H279.212V154.591Z" fill="#FFD000"/>
<path opacity="0.1" d="M246.003 176.638H237.304V185.576H246.003V176.638Z" fill="#FFD000"/>
<path opacity="0.1" d="M279.212 176.638H270.513V185.576H279.212V176.638Z" fill="#FFD000"/>
<path opacity="0.1" d="M246.003 198.685H237.304V207.623H246.003V198.685Z" fill="#FFD000"/>
<path opacity="0.1" d="M279.212 198.685H270.513V207.623H279.212V198.685Z" fill="#FFD000"/>
<path opacity="0.1" d="M237.304 226.493V220.729H246V225.672L237.304 226.493Z" fill="#FFD000"/>
<path opacity="0.1" d="M5.50568 93.7719V98.8853H35.2761V93.7719H5.50568ZM8.47263 98.5647H6.04401V94.0862H8.49098L8.47263 98.5647ZM11.4365 98.5647H8.98955V94.0862H11.4365V98.5647ZM14.3943 98.5647H11.9473V94.0862H14.3943V98.5647ZM17.3582 98.5647H14.9143V94.0862H17.3612L17.3582 98.5647ZM20.319 98.5647H17.8721V94.0862H20.319V98.5647ZM23.2829 98.5647H20.8359V94.0862H23.2829V98.5647ZM26.2468 98.5647H23.7998V94.0862H26.2468V98.5647ZM29.2076 98.5647H26.7607V94.0862H29.2076V98.5647ZM32.1685 98.5647H29.7215V94.0862H32.1685V98.5647ZM35.1293 98.5647H32.6823V94.0862H35.1293V98.5647Z" fill="#FFD000"/>
<path opacity="0.1" d="M5.50568 108.65V113.763H35.2761V108.65H5.50568ZM8.47263 113.44H6.04401V108.974H8.49098L8.47263 113.44ZM11.4365 113.44H8.98955V108.974H11.4365V113.44ZM14.3943 113.44H11.9473V108.974H14.3943V113.44ZM17.3582 113.44H14.9143V108.974H17.3612L17.3582 113.44ZM20.319 113.44H17.8721V108.974H20.319V113.44ZM23.2829 113.44H20.8359V108.974H23.2829V113.44ZM26.2468 113.44H23.7998V108.974H26.2468V113.44ZM29.2076 113.44H26.7607V108.974H29.2076V113.44ZM32.1685 113.44H29.7215V108.974H32.1685V113.44ZM35.1293 113.44H32.6823V108.974H35.1293V113.44Z" fill="#FFD000"/>
<path opacity="0.1" d="M5.50568 123.534V128.657H35.2761V123.534H5.50568ZM8.47263 128.324H6.04401V123.855H8.49098L8.47263 128.324ZM11.4365 128.324H8.98955V123.855H11.4365V128.324ZM14.3943 128.324H11.9473V123.855H14.3943V128.324ZM17.3582 128.324H14.9143V123.855H17.3612L17.3582 128.324ZM20.319 128.324H17.8721V123.855H20.319V128.324ZM23.2829 128.324H20.8359V123.855H23.2829V128.324ZM26.2468 128.324H23.7998V123.855H26.2468V128.324ZM29.2076 128.324H26.7607V123.855H29.2076V128.324ZM32.1685 128.324H29.7215V123.855H32.1685V128.324ZM35.1293 128.324H32.6823V123.855H35.1293V128.324Z" fill="#FFD000"/>
<path opacity="0.1" d="M5.50568 138.419V143.526H35.2761V138.419H5.50568ZM8.47263 143.208H6.04401V138.736H8.49098L8.47263 143.208ZM11.4365 143.208H8.98955V138.736H11.4365V143.208ZM14.3943 143.208H11.9473V138.736H14.3943V143.208ZM17.3582 143.208H14.9143V138.736H17.3612L17.3582 143.208ZM20.319 143.208H17.8721V138.736H20.319V143.208ZM23.2829 143.208H20.8359V138.736H23.2829V143.208ZM26.2468 143.208H23.7998V138.736H26.2468V143.208ZM29.2076 143.208H26.7607V138.736H29.2076V143.208ZM32.1685 143.208H29.7215V138.736H32.1685V143.208ZM35.1293 143.208H32.6823V138.736H35.1293V143.208Z" fill="#FFD000"/>
<path opacity="0.1" d="M5.63416 153.3C5.75345 153.781 5.88803 154.262 6.02873 154.736V153.62H8.4757V158.089H7.16657C7.20633 158.193 7.24609 158.306 7.28586 158.404H35.2761V153.3H5.63416ZM11.4457 158.089H8.99874V153.62H11.4457V158.089ZM14.4035 158.089H11.9565V153.62H14.4035V158.089ZM17.3674 158.089H14.9143V153.62H17.3613L17.3674 158.089ZM20.3282 158.089H17.8812V153.62H20.3282V158.089ZM23.2921 158.089H20.8451V153.62H23.2921V158.089ZM26.256 158.089H23.809V153.62H26.256V158.089ZM29.2168 158.089H26.7699V153.62H29.2168V158.089ZM32.1777 158.089H29.7307V153.62H32.1777V158.089ZM35.1385 158.089H32.6915V153.62H35.1385V158.089Z" fill="#FFD000"/>
<path opacity="0.1" d="M12.5468 168.184C12.6233 168.285 12.6967 168.398 12.7762 168.498H14.3943V170.645C14.5686 170.859 14.7399 171.072 14.9173 171.274V168.486H17.3643V172.971H16.3733C16.4711 173.074 16.566 173.184 16.6791 173.285H35.2853V168.184H12.5468ZM20.319 172.971H17.872V168.505H20.319V172.971ZM23.2829 172.971H20.8359V168.505H23.2829V172.971ZM26.2468 172.971H23.7998V168.505H26.2468V172.971ZM29.2076 172.971H26.7606V168.505H29.2076V172.971ZM32.1685 172.971H29.7215V168.505H32.1685V172.971ZM35.1293 172.971H32.6823V168.505H35.1293V172.971Z" fill="#FFD000"/>
<path opacity="0.1" d="M28.8773 183.065C29.1557 183.229 29.4401 183.38 29.7276 183.543V183.386H32.1746V184.8L32.6946 185.048V183.386H35.1416V186.104C35.1885 186.128 35.2377 186.147 35.2884 186.161V183.065H28.8773Z" fill="#FFD000"/>
<path opacity="0.1" d="M230.774 104.945H230.792H230.774ZM211.932 197.701H212.238H211.932ZM192.274 150.506C192.332 150.707 192.381 150.908 192.436 151.106C192.387 150.908 192.335 150.707 192.274 150.506ZM230.774 104.935H230.792H230.774ZM46.0275 57.8748V59.2167H59.6908V57.8748H46.0275ZM211.932 197.701H212.238H211.932ZM192.274 150.506C192.332 150.707 192.381 150.908 192.436 151.106C192.387 150.908 192.335 150.707 192.274 150.506ZM230.774 104.935H230.792H230.774ZM211.932 197.692H212.238H211.932ZM192.274 150.506C192.332 150.707 192.381 150.908 192.436 151.106C192.387 150.908 192.335 150.707 192.274 150.506Z" fill="#FFD000"/>
<path d="M141.19 119.323C141.19 119.323 139.985 119.15 139.985 117.346C139.985 115.542 139.122 112.173 139.122 112.173C139.122 112.157 138.376 106.305 137.345 105.375C136.315 104.445 134.99 98.9827 134.99 98.9827C134.99 98.9827 134.764 96.019 134.302 95.381C133.84 94.743 133.216 93.1811 132.295 90.9528C131.375 88.7246 127.536 87.1814 127.536 87.1814C127.536 87.1814 120.596 83.0455 118.629 81.6972C118.45 81.5865 118.283 81.4569 118.131 81.3107C117.788 80.8487 116.295 80.8393 116.295 80.8393C116.139 79.8273 115.989 78.6644 115.94 77.6116C115.94 77.4985 115.94 77.3853 115.925 77.2722C118.118 75.9402 119.77 73.8401 120.578 71.3574C120.614 71.238 120.645 71.1123 120.678 70.9928C120.81 70.9484 120.931 70.8762 121.033 70.781C121.136 70.6857 121.218 70.5695 121.275 70.4397C121.452 70.0343 121.455 69.5597 121.676 69.1826C121.933 68.7363 122.422 68.4975 122.807 68.1612C123.78 67.3126 124.031 65.8826 123.985 64.5815C123.954 63.5287 123.789 62.4664 123.853 61.4199L123.872 61.1559C123.89 60.9987 123.911 60.8416 123.939 60.6907C124.089 59.9113 124.416 59.1759 124.6 58.4028C124.783 57.6296 124.802 56.7591 124.373 56.0928C123.746 55.1154 122.44 54.9205 121.293 54.82C119.993 54.7068 118.831 54.8545 117.999 53.7451C117.61 53.1653 117.172 52.6216 116.69 52.1203C116.519 51.9569 114.855 50.9135 114.855 50.8443C113.231 50.0715 111.39 49.9264 109.67 50.4358C108.808 50.6935 107.994 51.1146 107.119 51.3252C105.232 51.784 103.06 51.2875 101.457 52.3969C100.564 53.0254 100.029 54.0248 99.5274 54.9991C99.1196 55.8016 98.7057 56.603 98.2856 57.4034C97.6096 58.7202 96.9214 60.059 96.637 61.5173C96.5771 61.8346 96.5403 62.1561 96.5268 62.479V62.4947C96.5268 62.611 96.5268 62.7273 96.5268 62.8436V62.9913C96.5268 63.1013 96.5268 63.2081 96.5452 63.3055C96.5635 63.403 96.5605 63.4344 96.5697 63.5004C96.5788 63.5664 96.5941 63.7141 96.6125 63.8147C96.6308 63.9152 96.6675 64.0912 96.7042 64.2295C96.7195 64.2892 96.7409 64.3458 96.7593 64.4024C96.7899 64.5092 96.8266 64.6129 96.8664 64.7167C96.8878 64.7701 96.9092 64.8267 96.9336 64.8801C96.9795 64.9901 97.0346 65.0969 97.0896 65.1944C97.1141 65.2384 97.1325 65.2792 97.1569 65.3201C97.2423 65.4662 97.3362 65.6069 97.4383 65.7412C98.0929 66.5803 99.0564 67.1146 99.7691 67.9003C99.7691 67.9318 99.7691 67.9632 99.7691 67.9915C99.7691 68.0795 99.7691 68.1643 99.7691 68.2523C99.8069 70.0046 100.261 71.7208 101.091 73.2518C101.922 74.7827 103.104 76.0819 104.535 77.0365C104.535 77.1559 104.55 77.2785 104.556 77.3979C104.616 78.3308 104.604 79.267 104.522 80.1981C104.398 80.0474 104.242 79.9273 104.066 79.8468C103.89 79.7663 103.699 79.7274 103.507 79.733C103.375 79.7264 103.244 79.738 103.115 79.7676L103.088 79.7456V79.7738C102.415 79.9436 101.586 80.6633 100.794 82.7092C100.794 82.7092 98.3835 85.5 96.5483 85.3838C94.713 85.2675 90.0668 88.2877 90.0668 88.2877C90.0668 88.2877 85.5338 91.3111 84.5612 94.391C84.0175 96.1375 83.3657 97.8465 82.6097 99.5075L77.0061 111.372L75.9723 120.784C75.9723 120.784 76.5443 124.971 76.4311 125.609C76.3179 126.247 78.7832 132.001 78.7832 132.001C78.7832 132.001 86.9286 146.706 90.2565 147.46L90.4951 147.288C90.6374 147.364 90.7885 147.422 90.9447 147.46L91.6298 146.964C91.671 147.517 91.6536 148.074 91.5778 148.623C91.119 150.075 91.7491 159.551 92.5505 161.408C93.3519 163.266 93.0674 187.619 93.0674 187.619L92.9543 189.769C92.9543 189.769 92.9543 189.838 92.9818 189.957L92.9543 190.467L93.0369 190.511C93.1226 191.192 93.0947 191.884 92.9543 192.557C92.6667 193.499 92.5505 196.165 92.5505 196.165C92.5505 196.165 90.2595 211.212 91.3454 214.236C92.4312 217.259 93.355 220.572 93.355 220.572C93.355 220.572 94.502 224.343 93.41 224.987C92.3181 225.631 89.2135 226.713 89.8527 228.284C90.4339 229.736 92.6392 233.627 92.9665 234.196L92.939 234.494L92.4893 239.501C92.5621 240.162 92.7366 240.807 93.0063 241.412C93.4987 242.502 94.4561 243.633 96.276 243.511C96.5819 243.489 96.9367 243.451 97.2793 243.404C100.61 242.945 104.712 241.418 104.712 241.418C104.499 241.279 104.304 241.113 104.131 240.924C103.967 240.761 103.837 240.566 103.75 240.35C103.662 240.134 103.618 239.901 103.62 239.667C103.669 238.756 102.008 234.412 101.595 233.344C101.531 233.19 101.497 233.102 101.497 233.102C101.497 233.102 105.284 229.035 104.654 225.43C104.654 225.43 100.463 222.916 101.843 221.536C103.222 220.157 105.688 216.194 105.688 216.194C105.688 216.194 105.801 201.375 105.688 199.163C105.57 197.627 105.641 196.082 105.899 194.565C105.945 194.335 106 194.112 106.058 193.892C107.966 194.185 109.891 194.335 111.82 194.342C112.524 194.342 113.24 194.342 113.962 194.298C113.962 194.507 113.971 194.734 113.989 194.977C114.148 198.647 114.445 205.084 114.686 207.475C115.029 210.904 116.922 220.144 116.922 220.144C116.922 220.144 113.31 222.526 117.552 228.397C117.552 228.397 117.552 230.525 117.271 230.833C116.971 231.84 116.729 232.864 116.546 233.9C116.369 235.006 116.295 236.125 116.583 236.707C117.271 238.096 121.4 237.983 121.4 237.983L121.501 237.964C122.281 237.881 123.069 237.958 123.819 238.191C124.569 238.423 125.267 238.807 125.872 239.318C127.441 240.613 133.397 240.044 136.62 239.633C137.884 239.469 138.728 239.318 138.728 239.318C138.769 239.171 138.783 239.018 138.771 238.866C138.737 238.052 138.116 236.267 133.907 234.673C133.907 234.673 129.949 231.939 130.004 229.557H129.922H129.463C129.796 229.538 130.011 229.557 130.011 229.557C130.011 229.557 128.46 223.743 129.093 223.271C129.726 222.8 127.83 216.357 127.83 216.357C127.83 216.357 126.744 205.546 126.686 204.788C126.688 204.138 126.784 203.492 126.97 202.871L126.686 196.944C126.686 196.944 126.631 194.973 126.686 194.332C126.676 193.776 126.633 193.22 126.554 192.67C126.527 192.45 126.499 192.22 126.469 191.994C127.952 191.607 128.916 191.249 128.916 191.249L128.744 170.617C130.004 168.102 130.237 162.587 130.231 158.674C130.231 156.16 130.121 154.299 130.121 154.299L131.843 151.411C131.843 151.411 132.24 147.954 131.61 147.196C131.332 146.854 131.457 146.499 131.687 146.206C131.806 146.109 131.932 146.021 132.063 145.942C132.063 145.942 132.045 145.914 132.023 145.873C132.143 145.77 132.271 145.677 132.406 145.594C132.406 145.594 131.794 144.619 132.341 144.208C132.855 144.566 133.314 144.836 133.663 145.056C133.638 145.286 133.614 145.418 133.614 145.418L133.761 145.103C134.097 145.298 134.302 145.418 134.302 145.418C134.302 145.418 137 139.896 136.942 139.082C136.884 138.268 138.777 134.839 138.777 134.839C138.777 134.839 139.006 133.038 140.04 132.284C141.074 131.53 140.841 126.064 140.841 126.064C140.841 126.064 141.129 123.217 141.817 122.054C142.505 120.891 141.19 119.323 141.19 119.323ZM89.5713 116.9L89.6233 118.217C89.3175 117.711 89.0972 117.346 89.0972 117.346L89.5713 116.9Z" fill="url(#paint0_linear_618_2809)"/>
<path d="M134.449 143.032L133.788 145.924C133.788 145.924 128.497 143.148 127.542 139.622C126.588 136.096 129.139 134.757 129.139 134.757L134.07 136.904L134.449 143.032Z" fill="white"/>
<path opacity="0.1" d="M134.449 143.032L133.788 145.924C133.788 145.924 128.497 143.148 127.542 139.622C126.588 136.096 129.139 134.757 129.139 134.757L134.07 136.904L134.449 143.032Z" fill="#333333"/>
<path d="M104.752 241.437C104.752 241.437 99.8578 243.285 96.4932 243.517C94.7069 243.64 93.7679 242.515 93.2846 241.43C93.0206 240.828 92.8503 240.186 92.7799 239.529L93.2173 234.548L93.4498 231.895L100.598 229.987L101.61 233.168L101.705 233.41C102.112 234.472 103.742 238.794 103.693 239.696C103.691 239.927 103.735 240.156 103.821 240.369C103.907 240.582 104.034 240.775 104.195 240.937C104.359 241.127 104.546 241.295 104.752 241.437Z" fill="white"/>
<path d="M138.18 238.904C138.193 239.055 138.178 239.207 138.138 239.353C138.138 239.353 127.671 241.148 125.53 239.353C124.926 238.829 124.222 238.44 123.464 238.212C122.705 237.983 121.909 237.92 121.125 238.027C121.125 238.027 117.075 238.14 116.399 236.77C116.118 236.194 116.191 235.079 116.366 233.979C116.544 232.948 116.78 231.929 117.075 230.927L117.237 230.795L118.201 230L129.481 229.657H129.567C129.512 232.027 133.397 234.746 133.397 234.746C137.523 236.317 138.131 238.093 138.18 238.904Z" fill="white"/>
<path opacity="0.1" d="M138.18 238.904C138.191 239.055 138.176 239.207 138.135 239.353C138.135 239.353 127.671 241.147 125.53 239.353C124.926 238.829 124.223 238.441 123.465 238.212C122.707 237.984 121.911 237.921 121.128 238.027C121.128 238.027 117.075 238.14 116.402 236.77C116.121 236.191 116.191 235.079 116.366 233.979C117.926 234.139 120.388 234.538 121.354 235.49C122.817 236.939 125.294 238.385 126.814 238.498C128.004 238.577 135.122 238.809 138.18 238.904Z" fill="#333333"/>
<path opacity="0.1" d="M104.752 241.437C104.752 241.437 99.8578 243.285 96.4932 243.517C94.707 243.64 93.7679 242.515 93.2877 241.427C94.5326 241.858 96.2608 242.31 97.1692 241.895C98.2459 241.405 102.063 241.088 104.204 240.953C104.367 241.136 104.551 241.298 104.752 241.437Z" fill="#333333"/>
<path d="M112.013 92.5148C107.976 90.9025 102.782 85.5755 104.079 83.0864C104.367 82.4583 104.538 81.7803 104.584 81.0876C104.667 80.1471 104.679 79.2014 104.62 78.259C104.529 76.7156 104.349 75.1792 104.079 73.658C104.079 73.658 116.684 73.9502 115.95 75.8579C115.736 76.4173 115.702 77.3885 115.76 78.4759C115.818 79.5633 115.971 80.7921 116.13 81.8324C116.35 83.2592 116.571 84.3466 116.571 84.3466C116.571 84.3466 115.8 85.4561 115.347 85.5158C114.894 85.5755 117.806 94.8122 112.013 92.5148Z" fill="#CF6F80"/>
<path opacity="0.1" d="M101.696 233.41L101.601 233.517C97.8329 228.834 93.2754 234.67 93.2754 234.67L93.2081 234.548L93.4406 231.895L100.589 229.987L101.601 233.168L101.696 233.41Z" fill="#333333"/>
<path opacity="0.1" d="M129.57 229.987C129.57 229.987 126.817 229.928 125.349 231.26C123.881 232.593 116.785 231.549 117.091 231.26C117.181 231.117 117.236 230.953 117.25 230.783L118.213 229.987L129.494 229.645C129.536 229.855 129.57 229.987 129.57 229.987Z" fill="#333333"/>
<path d="M106.385 193.213C106.18 193.734 106.024 194.274 105.92 194.826C105.665 196.336 105.594 197.873 105.709 199.402C105.822 201.602 105.709 216.344 105.709 216.344C105.709 216.344 103.29 220.276 101.941 221.662C100.592 223.048 104.694 225.537 104.694 225.537C105.305 229.12 101.598 233.168 101.598 233.168C97.8299 228.485 93.2724 234.324 93.2724 234.324C93.2724 234.324 90.7948 229.925 90.177 228.353C89.5591 226.782 92.5964 225.694 93.6639 225.056C94.7314 224.418 93.6119 220.656 93.6119 220.656C93.6119 220.656 92.7096 217.36 91.639 214.352C90.5685 211.344 92.8197 196.372 92.8197 196.372C92.8197 196.372 92.9359 193.713 93.2143 192.786C93.3547 192.117 93.3826 191.428 93.2968 190.749C93.2785 190.52 93.2571 190.328 93.2418 190.199C93.2265 190.071 93.2143 190.011 93.2143 190.011L93.2571 189.935L94.7864 187.006C94.7864 187.006 107.119 191.369 106.385 193.213Z" fill="#FFD000"/>
<path d="M129.57 229.642C129.57 229.642 126.817 229.582 125.349 230.899C123.881 232.216 116.785 231.188 117.091 230.899C117.396 230.61 117.372 228.469 117.372 228.469C113.209 222.63 116.76 220.26 116.76 220.26C116.76 220.26 114.901 211.068 114.564 207.658C114.329 205.276 114.038 198.874 113.882 195.219C113.815 193.647 113.775 192.566 113.775 192.566L117.176 191.862L117.614 191.771L125.817 190.08C125.817 190.08 126.043 191.651 126.196 192.937C126.273 193.486 126.315 194.039 126.325 194.593C126.27 195.222 126.325 197.189 126.325 197.189L126.603 203.088C126.421 203.707 126.328 204.349 126.325 204.996C126.38 205.747 127.447 216.502 127.447 216.502C127.447 216.502 129.304 222.919 128.671 223.381C128.038 223.843 129.57 229.642 129.57 229.642Z" fill="#FFD000"/>
<path opacity="0.1" d="M115.95 75.8579C115.736 76.4173 115.702 77.3885 115.76 78.4759C114.072 79.5205 112.131 80.0547 110.16 80.0169C108.19 79.9791 106.269 79.3709 104.62 78.2622C104.529 76.7177 104.349 75.1802 104.079 73.658C104.079 73.658 116.684 73.944 115.95 75.8579Z" fill="#333333"/>
<path d="M120.822 68.9123C120.825 70.0448 120.651 71.1705 120.308 72.2468C119.542 74.6585 117.971 76.7141 115.872 78.0505C113.773 79.3869 111.282 79.9179 108.839 79.5497C106.396 79.1815 104.159 77.9378 102.522 76.0384C100.885 74.139 99.9544 71.7062 99.8945 69.17C99.8945 69.082 99.8945 69.0003 99.8945 68.9123C99.8707 67.4847 100.124 66.0665 100.639 64.7405C101.154 63.4145 101.921 62.2072 102.896 61.189C103.87 60.1708 105.032 59.3621 106.313 58.8101C107.595 58.2581 108.97 57.9738 110.36 57.9738C111.749 57.9738 113.125 58.2581 114.407 58.8101C115.688 59.3621 116.85 60.1708 117.824 61.189C118.798 62.2072 119.565 63.4145 120.081 64.7405C120.596 66.0665 120.849 67.4847 120.825 68.9123H120.822Z" fill="#CF6F80"/>
<path opacity="0.1" d="M112.013 92.5148C107.976 90.9025 102.782 85.5754 104.079 83.0863C104.367 82.4582 104.538 81.7803 104.584 81.0875L110.111 85.7546L113.53 88.6365L116.13 81.8355C116.35 83.2623 116.571 84.3497 116.571 84.3497C116.571 84.3497 115.8 85.4592 115.347 85.5189C114.894 85.5786 117.806 94.8122 112.013 92.5148Z" fill="#333333"/>
<path d="M126.306 113.141L121.691 192.811L115.671 193.217L100.084 147.02L102.641 92.1754L103.18 80.5878L110.111 86.4366L113.533 89.3185L116.21 82.3195L121.186 86.776L126.306 113.141Z" fill="#FFD000"/>
<path opacity="0.1" d="M106.385 193.213C106.18 193.734 106.024 194.274 105.92 194.826C101.54 194.131 97.2861 192.765 93.2999 190.775L93.2173 190.731L93.2449 190.225L93.2602 189.961L94.7895 187.031C94.7895 187.031 107.119 191.369 106.385 193.213Z" fill="#333333"/>
<path opacity="0.1" d="M117.247 194.838C116.127 195.034 114.998 195.166 113.864 195.234C113.796 193.663 113.757 192.582 113.757 192.582L117.158 191.878L117.247 194.838Z" fill="#333333"/>
<path opacity="0.1" d="M126.178 192.953C124.003 193.534 120.645 194.188 117.638 193.779L117.595 191.787L125.799 190.096C125.799 190.096 126.025 191.651 126.178 192.953Z" fill="#333333"/>
<path opacity="0.1" d="M117.583 194.144C105.042 196.344 93.5568 190.036 93.5568 190.036L93.667 187.899C93.667 187.899 93.9514 163.671 93.1623 161.814C92.3731 159.956 91.7583 150.537 92.2049 149.092C92.6515 147.646 90.5746 125.967 90.5746 125.967L90.2381 117.167L77.9238 112.041L83.4295 100.249C84.1731 98.596 84.8127 96.8954 85.3442 95.1579C86.3016 92.0968 90.7459 89.0891 90.7459 89.0891C90.7459 89.0891 95.3034 86.0846 97.105 86.1977C98.9065 86.3109 101.268 83.5389 101.268 83.5389C103.011 78.9724 104.59 81.0404 104.59 81.0404C104.59 81.2573 104.59 81.0404 104.504 81.7161C103.892 86.7289 114.396 102.569 114.546 102.848L115.546 127.884L116.558 159.567L117.583 194.144Z" fill="#333333"/>
<path d="M117.247 194.144C104.706 196.344 93.2173 190.036 93.2173 190.036L93.3305 187.899C93.3305 187.899 93.615 163.671 92.8227 161.814C92.0305 159.956 91.4188 150.537 91.8684 149.092C92.3181 147.646 90.2381 125.967 90.2381 125.967L89.8986 117.167L77.5781 112.022L83.0838 100.23C83.8258 98.5764 84.4654 96.8759 84.9986 95.139C85.9529 92.0779 90.4003 89.0703 90.4003 89.0703C90.4003 89.0703 94.9577 86.0657 96.7563 86.1789C98.5548 86.292 100.919 83.5201 100.919 83.5201C102.666 78.9536 104.59 81.0215 104.59 81.0215C104.59 81.2384 104.406 81.3358 104.504 81.6972C105.85 86.5592 114.059 102.55 114.209 102.829L115.222 127.865L116.234 159.548L117.247 194.144Z" fill="white"/>
<path opacity="0.1" d="M113.867 103.543C112.518 102.965 105.373 94.5828 105.373 94.5828V92.6751C105.113 92.0465 103.568 92.4299 102.314 92.8699L102.852 81.2824L103.464 81.8041C104.804 86.6629 113.711 103.263 113.867 103.543Z" fill="#333333"/>
<path d="M114.206 102.848C112.854 102.27 105.709 93.8882 105.709 93.8882V91.9805C105.449 91.3519 103.904 91.7354 102.65 92.1754L103.192 80.5878L103.804 81.1095C105.146 85.9683 114.056 102.572 114.206 102.848Z" fill="white"/>
<path opacity="0.1" d="M93.5569 144.651C93.7251 144.651 102.277 143.727 102.277 143.727C102.277 143.727 107.456 154.189 107.116 156.735C106.777 159.281 106.162 161.534 104.079 161.135C101.996 160.736 92.8687 161.449 92.8687 161.449L93.5569 144.651Z" fill="#333333"/>
<path d="M93.2173 143.956C93.3856 143.956 101.938 143.032 101.938 143.032C101.938 143.032 107.113 153.498 106.777 156.04C106.44 158.583 105.819 160.839 103.739 160.44C101.659 160.041 92.5291 160.755 92.5291 160.755L93.2173 143.956Z" fill="white"/>
<path d="M99.662 139.044C99.662 139.044 107.511 143.378 107.679 144.701C107.847 146.024 103.684 144.123 102.785 143.893C102.193 143.747 101.591 143.65 100.983 143.604L94.9852 143.771L99.662 139.044Z" fill="#CF6F80"/>
<path opacity="0.1" d="M111.677 104.083C112.133 104.083 112.503 103.704 112.503 103.235C112.503 102.766 112.133 102.386 111.677 102.386C111.221 102.386 110.851 102.766 110.851 103.235C110.851 103.704 111.221 104.083 111.677 104.083Z" fill="#333333"/>
<path d="M111.677 103.738C112.133 103.738 112.503 103.358 112.503 102.889C112.503 102.421 112.133 102.041 111.677 102.041C111.221 102.041 110.851 102.421 110.851 102.889C110.851 103.358 111.221 103.738 111.677 103.738Z" fill="#666666"/>
<path opacity="0.1" d="M113.197 140.817C113.653 140.817 114.023 140.437 114.023 139.968C114.023 139.499 113.653 139.119 113.197 139.119C112.741 139.119 112.371 139.499 112.371 139.968C112.371 140.437 112.741 140.817 113.197 140.817Z" fill="#333333"/>
<path d="M113.197 140.468C113.653 140.468 114.023 140.088 114.023 139.619C114.023 139.151 113.653 138.771 113.197 138.771C112.741 138.771 112.371 139.151 112.371 139.619C112.371 140.088 112.741 140.468 113.197 140.468Z" fill="#666666"/>
<path opacity="0.1" d="M112.499 122.45C112.956 122.45 113.325 122.07 113.325 121.601C113.325 121.133 112.956 120.753 112.499 120.753C112.043 120.753 111.674 121.133 111.674 121.601C111.674 122.07 112.043 122.45 112.499 122.45Z" fill="#333333"/>
<path d="M112.499 122.104C112.956 122.104 113.325 121.724 113.325 121.256C113.325 120.787 112.956 120.407 112.499 120.407C112.043 120.407 111.674 120.787 111.674 121.256C111.674 121.724 112.043 122.104 112.499 122.104Z" fill="#666666"/>
<path d="M131.537 143.428C131.537 143.428 132.1 144.296 131.537 144.701C130.974 145.107 131.592 146.087 131.592 146.087C131.592 146.087 130.188 146.932 130.806 147.693C131.424 148.454 131.032 151.889 131.032 151.889L129.344 154.761C129.344 154.761 129.445 156.612 129.451 159.114C129.451 163.017 129.228 168.505 127.992 171.006L128.163 191.532C128.163 191.532 122.251 193.751 117.302 193.075L116.568 160.139C116.568 160.139 117.638 141.461 118.033 137.878C118.264 136.018 118.358 134.143 118.314 132.268C118.314 132.268 118.146 126.661 117.58 124.059C117.58 124.059 116.968 112.786 116.907 109.665C116.88 108.172 116.956 103.816 117.042 99.6741C117.136 95.1453 117.244 90.8743 117.244 90.8743L116.127 81.7978C116.127 81.7978 117.244 81.6815 117.58 82.1435C117.731 82.2882 117.895 82.4176 118.069 82.5301C119.996 83.8689 126.805 87.986 126.805 87.986C126.805 87.986 130.573 89.526 131.476 91.7322C132.378 93.9385 133.005 95.5036 133.442 96.1322C133.88 96.7607 134.118 99.715 134.118 99.715C134.118 99.715 135.415 105.152 136.428 106.073C137.44 106.994 138.18 112.852 138.18 112.852L129.234 120.08C129.234 120.08 128.448 132.105 128.279 132.57C128.111 133.035 131.537 143.428 131.537 143.428Z" fill="white"/>
<path d="M131.876 143.428C131.876 143.428 132.436 144.296 131.876 144.701C131.317 145.107 131.928 146.087 131.928 146.087C131.928 146.087 130.534 146.942 131.145 147.702C131.757 148.463 131.372 151.898 131.372 151.898L129.683 154.771C129.683 154.771 129.784 156.622 129.793 159.123C129.793 163.027 129.57 168.514 128.334 171.016L128.503 191.541C128.503 191.541 122.581 193.76 117.638 193.085L116.907 160.148C116.907 160.148 117.978 141.47 118.372 137.887C118.603 136.027 118.696 134.152 118.651 132.278C118.651 132.278 118.482 126.671 117.919 124.069C117.919 124.069 117.308 112.795 117.243 109.675C117.216 108.182 117.295 103.826 117.378 99.6835C117.473 95.1548 117.58 90.8837 117.58 90.8837L116.106 81.6847C116.106 81.6847 117.58 81.6847 117.919 82.153C118.069 82.2993 118.233 82.4289 118.409 82.5395C120.336 83.8784 127.148 87.9954 127.148 87.9954C127.148 87.9954 130.913 89.5354 131.815 91.7417C132.718 93.9479 133.345 95.513 133.785 96.1416C134.225 96.7702 134.458 99.7244 134.458 99.7244C134.458 99.7244 135.755 105.161 136.767 106.082C137.78 107.003 138.511 112.849 138.511 112.849L129.564 120.077C129.564 120.077 128.778 132.102 128.607 132.567C128.435 133.032 131.876 143.428 131.876 143.428Z" fill="white"/>
<path opacity="0.1" d="M121.162 93.5519L121.969 95.9718L117.718 100.372C117.812 95.8461 117.919 91.5719 117.919 91.5719L116.445 82.3729C116.445 82.3729 117.919 82.3729 118.259 82.8412C118.408 82.9872 118.572 83.1158 118.748 83.2246L122.364 93.9416L121.162 93.5519Z" fill="#333333"/>
<path d="M120.822 92.8574L121.633 95.2773L117.381 99.6773C117.476 95.1485 117.583 90.8774 117.583 90.8774L116.106 81.6784C116.106 81.6784 117.583 81.6784 117.919 82.1467C118.07 82.2922 118.233 82.4217 118.409 82.5332L122.027 93.2471L120.822 92.8574Z" fill="white"/>
<path opacity="0.1" d="M120.822 68.9123C120.825 70.0448 120.651 71.1705 120.308 72.2468C120.251 72.2561 120.192 72.2533 120.135 72.2387C120.078 72.2242 120.025 72.1981 119.978 72.1619C119.898 69.3334 118.543 66.6777 116.876 64.4181C116.408 63.7358 115.841 63.1316 115.194 62.6267C114.54 62.122 113.727 61.8856 112.912 61.9635C111.995 62.0924 111.184 62.7335 110.257 62.8152C109.034 62.9189 107.939 62.0484 106.725 62.0044C106.231 62.0092 105.744 62.1222 105.296 62.3357C104.848 62.5492 104.45 62.8584 104.128 63.2426C103.49 64.0181 103.016 64.9214 102.736 65.8952C102.255 67.3718 101.993 68.9144 101.959 70.4711C101.944 71.3511 101.861 72.4542 101.066 72.7748C101.126 72.1276 101.054 71.4747 100.856 70.8574C100.657 70.2402 100.336 69.672 99.9128 69.1888L99.8945 69.17C99.8945 69.082 99.8945 69.0003 99.8945 68.9123C99.8707 67.4847 100.124 66.0665 100.639 64.7405C101.154 63.4145 101.921 62.2072 102.896 61.189C103.87 60.1708 105.032 59.3621 106.313 58.8101C107.595 58.2581 108.97 57.9738 110.36 57.9738C111.749 57.9738 113.125 58.2581 114.407 58.8101C115.688 59.3621 116.85 60.1708 117.824 61.189C118.798 62.2072 119.565 63.4145 120.081 64.7405C120.596 66.0665 120.849 67.4847 120.825 68.9123H120.822Z" fill="#333333"/>
<path d="M114.693 51.8375C113.103 51.0692 111.295 50.9239 109.609 51.4289C108.762 51.6866 107.963 52.1046 107.104 52.3152C105.269 52.7709 103.128 52.2774 101.552 53.3806C100.678 54.0091 100.151 55.0023 99.662 55.9671L98.4386 58.3619C97.7718 59.6725 97.0988 61.005 96.8205 62.4476C96.5421 63.8901 96.7104 65.5055 97.6005 66.6652C98.2489 67.5106 99.2063 68.0418 99.9098 68.8369C100.331 69.3205 100.651 69.8884 100.849 70.5049C101.047 71.1214 101.119 71.7733 101.06 72.4197C101.858 72.1054 101.935 70.9991 101.953 70.1191C101.987 68.5624 102.249 67.0198 102.73 65.5432C103.009 64.5692 103.483 63.6657 104.122 62.8907C104.444 62.5068 104.843 62.1978 105.29 61.9843C105.738 61.7708 106.225 61.6577 106.718 61.6524C107.942 61.6964 109.04 62.5638 110.251 62.4601C111.169 62.3816 111.983 61.7373 112.906 61.6116C113.721 61.5324 114.535 61.7689 115.188 62.2747C115.835 62.7789 116.401 63.3832 116.867 64.0661C118.537 66.3258 119.892 68.9752 119.972 71.81C120.318 72.0708 120.816 71.7314 120.987 71.3291C121.159 70.9269 121.165 70.4554 121.382 70.072C121.633 69.6289 122.113 69.3932 122.489 69.06C123.444 68.2146 123.682 66.7909 123.645 65.4992C123.609 64.2075 123.364 62.897 123.603 61.6273C123.746 60.8479 124.071 60.1187 124.248 59.3488C124.425 58.5788 124.447 57.7145 124.028 57.0514C123.416 56.0771 122.128 55.8854 121.006 55.7942C119.73 55.6811 118.589 55.8257 117.776 54.7225C117.394 54.1469 116.964 53.6064 116.491 53.1071C116.329 52.9437 114.693 51.9066 114.693 51.8375Z" fill="#512E4E"/>
<path opacity="0.1" d="M81.4474 118.113L78.251 112.041L77.2386 121.41C77.2386 121.41 77.8014 125.571 77.6882 126.209C77.575 126.847 79.9945 132.567 79.9945 132.567C79.9945 132.567 87.9869 147.193 91.2505 147.948L102.277 139.852L99.3531 136.036C99.3531 136.036 98.3406 135.631 98.0868 136.036C98.0868 136.036 92.6576 126.438 92.0947 125.744C91.5319 125.049 91.6421 123.663 91.6421 123.663C91.6421 123.663 90.7979 122.739 91.0793 121.872C91.3607 121.004 89.449 117.997 89.449 117.997L91.1924 116.322L81.4474 118.113Z" fill="#333333"/>
<path d="M78.4193 111.35L77.5751 112.041L76.5626 121.41C76.5626 121.41 77.1254 125.571 77.0123 126.209C76.8991 126.847 79.3216 132.567 79.3216 132.567C79.3216 132.567 87.3109 147.193 90.5746 147.948L101.604 139.852L98.6771 136.036C98.6771 136.036 97.6647 135.631 97.4108 136.036C97.4108 136.036 91.9816 126.438 91.4188 125.744C90.856 125.049 90.9692 123.663 90.9692 123.663C90.9692 123.663 90.125 122.739 90.4064 121.872C90.6878 121.004 88.773 117.997 88.773 117.997L90.5165 116.322L78.4193 111.35Z" fill="white"/>
<path opacity="0.1" d="M130.806 148.051C131.418 148.815 131.032 152.244 131.032 152.244L129.344 155.116C129.344 155.116 129.445 156.971 129.451 159.469L126.612 160.381C126.356 160.463 126.084 160.481 125.819 160.433C125.554 160.386 125.305 160.274 125.091 160.107C124.877 159.94 124.705 159.722 124.589 159.473C124.473 159.224 124.417 158.95 124.425 158.674L124.915 142.454L131.537 145.056C130.974 145.459 131.592 146.445 131.592 146.445C131.592 146.445 130.188 147.288 130.806 148.051Z" fill="#333333"/>
<path d="M131.145 147.702C131.757 148.466 131.372 151.898 131.372 151.898L129.683 154.771C129.683 154.771 129.784 156.622 129.793 159.123L126.903 160.051C126.652 160.131 126.385 160.148 126.126 160.101C125.867 160.054 125.623 159.945 125.413 159.781C125.204 159.618 125.036 159.405 124.922 159.161C124.809 158.917 124.754 158.649 124.762 158.379L125.254 142.108L131.879 144.711C131.314 145.113 131.931 146.096 131.931 146.096C131.931 146.096 130.534 146.942 131.145 147.702Z" fill="white"/>
<path d="M133.338 139.971C133.338 139.971 132.889 142.922 131.763 143.095C130.638 143.268 130.133 147.869 129.01 147.706C127.888 147.542 128.631 143.428 128.671 142.63C128.711 141.832 127.447 138.525 128.393 137.774C129.338 137.023 132.329 137.774 132.329 137.774L133.338 139.971Z" fill="#CF6F80"/>
<path opacity="0.1" d="M135.733 117.246L137.856 112.846C137.856 112.846 138.7 116.199 138.7 117.99C138.7 119.782 139.881 119.958 139.881 119.958C139.881 119.958 141.175 121.529 140.493 122.673C139.811 123.817 139.535 126.665 139.535 126.665C139.535 126.665 139.759 132.098 138.746 132.85C137.734 133.601 137.523 135.395 137.523 135.395C137.523 135.395 135.663 138.805 135.721 139.616C135.779 140.427 133.134 145.917 133.134 145.917C133.134 145.917 134.427 139.094 126.888 136.146C126.888 136.146 126.83 133.83 127.392 133.195C127.955 132.56 128.833 132.271 128.282 129.062C127.732 125.854 128.123 122.019 128.123 121.249C128.123 120.479 129.812 115.677 129.812 115.677L135.733 117.246Z" fill="#333333"/>
<path d="M136.651 112.217L138.505 112.846C138.505 112.846 139.352 116.199 139.352 117.99C139.352 119.782 140.533 119.958 140.533 119.958C140.533 119.958 141.826 121.529 141.144 122.673C140.462 123.817 140.19 126.665 140.19 126.665C140.19 126.665 140.413 132.098 139.401 132.85C138.388 133.601 138.162 135.395 138.162 135.395C138.162 135.395 136.305 138.805 136.364 139.616C136.422 140.427 133.773 145.917 133.773 145.917C133.773 145.917 135.07 139.094 127.527 136.146C127.527 136.146 127.472 133.83 128.035 133.195C128.597 132.56 129.475 132.271 128.925 129.062C128.374 125.854 128.766 122.019 128.766 121.249C128.766 120.479 130.454 115.677 130.454 115.677L136.651 112.217Z" fill="white"/>
<path opacity="0.1" d="M95.7102 226.26C95.7102 226.26 98.6649 224.352 100.604 225.738C102.543 227.124 95.7102 226.26 95.7102 226.26Z" fill="#333333"/>
<path opacity="0.1" d="M118.669 220.361C118.669 220.361 121.284 220.015 123.48 222.445C125.676 224.874 118.669 220.361 118.669 220.361Z" fill="#333333"/>
<g opacity="0.1">
<path d="M122.495 68.3718C122.119 68.7049 121.636 68.9437 121.385 69.3869C121.171 69.7672 121.165 70.2354 120.994 70.644C120.822 71.0526 120.324 71.3857 119.978 71.128C119.899 68.2995 118.54 65.6438 116.873 63.381C116.407 62.6981 115.841 62.0937 115.194 61.5896C114.54 61.0839 113.725 60.8474 112.909 60.9264C111.992 61.0553 111.184 61.6964 110.257 61.775C109.034 61.8819 107.936 61.0113 106.722 60.9673C106.228 60.9723 105.741 61.0857 105.294 61.2998C104.847 61.5139 104.449 61.8238 104.128 62.2087C103.489 62.9825 103.015 63.885 102.736 64.8581C102.255 66.3348 101.994 67.8773 101.959 69.434C101.941 70.3109 101.861 71.4046 101.072 71.7314C101.091 71.9636 101.091 72.1969 101.072 72.4291C101.867 72.1148 101.947 71.0086 101.965 70.1286C101.999 68.5719 102.261 67.0293 102.742 65.5527C103.021 64.5786 103.495 63.6751 104.134 62.9001C104.456 62.5163 104.854 62.2073 105.301 61.9938C105.748 61.7803 106.235 61.6671 106.728 61.6619C107.951 61.7059 109.052 62.5733 110.264 62.4696C111.181 62.391 111.995 61.7467 112.915 61.621C113.731 61.5419 114.546 61.7784 115.2 62.2841C115.847 62.7883 116.414 63.3926 116.88 64.0755C118.547 66.3352 119.905 68.9846 119.984 71.8194C120.33 72.0803 120.828 71.7408 121 71.3386C121.171 70.9363 121.177 70.4649 121.391 70.0814C121.642 69.6383 122.125 69.4026 122.501 69.0695C123.456 68.224 123.694 66.8004 123.658 65.5087C123.658 65.4678 123.658 65.4269 123.658 65.3892C123.6 66.5081 123.309 67.6489 122.495 68.3718Z" fill="#333333"/>
<path d="M99.9159 68.1486C99.2124 67.3535 98.252 66.8224 97.6066 65.9801C97.0632 65.2345 96.7528 64.3369 96.7165 63.4061C96.6203 64.5693 96.9364 65.7289 97.6066 66.6715C98.252 67.5169 99.2124 68.048 99.9159 68.8432C100.591 69.6209 100.997 70.6068 101.069 71.6466C101.116 71.0138 101.038 70.3778 100.84 69.7767C100.642 69.1757 100.327 68.6219 99.9159 68.1486Z" fill="#333333"/>
<path d="M124.254 58.6605C124.074 59.4305 123.753 60.1627 123.606 60.939C123.519 61.4577 123.487 61.9846 123.511 62.5104C123.521 62.2109 123.553 61.9126 123.606 61.6179C123.753 60.8384 124.074 60.1093 124.254 59.3393C124.359 58.9146 124.393 58.4747 124.355 58.0382C124.336 58.2479 124.302 58.4558 124.254 58.6605Z" fill="#333333"/>
</g>
<path opacity="0.1" d="M40.5983 239.039C57.0586 239.039 70.4024 236.837 70.4024 234.12C70.4024 231.404 57.0586 229.202 40.5983 229.202C24.1379 229.202 10.7942 231.404 10.7942 234.12C10.7942 236.837 24.1379 239.039 40.5983 239.039Z" fill="#FFD000"/>
<path d="M41.5587 139.899H39.6409V184.266H41.5587V139.899Z" fill="#535461"/>
<path d="M53.6101 184.131L53.4908 186.13L53.3195 188.958L53.2492 190.134L53.0809 192.962L53.0075 194.137L52.8362 196.966L50.9031 229.045C50.8191 230.425 50.2264 231.72 49.2456 232.667C48.2648 233.614 46.9697 234.142 45.6238 234.142H35.5729C34.2273 234.142 32.9325 233.614 31.9522 232.667C30.9719 231.72 30.3798 230.425 30.2966 229.045L28.3726 196.944L28.2014 194.115L28.131 192.94L27.9597 190.112L27.8894 188.936L27.7181 186.108L27.5957 184.109C27.5745 183.724 27.63 183.339 27.7587 182.977C27.8875 182.615 28.0869 182.284 28.3447 182.004C28.6025 181.724 28.9132 181.502 29.2578 181.35C29.6024 181.197 29.9736 181.119 30.3486 181.12H50.9062C51.2798 181.123 51.6488 181.205 51.9903 181.361C52.3319 181.516 52.6389 181.742 52.8923 182.024C53.1456 182.306 53.34 182.639 53.4635 183.001C53.587 183.363 53.6368 183.748 53.6101 184.131Z" fill="#666666"/>
<path d="M53.4908 186.13L53.3195 188.949H27.8771L27.7058 186.13H53.4908Z" fill="#9D9CB5"/>
<path d="M53.2491 190.124L53.0809 192.946H28.1187L27.9474 190.124H53.2491Z" fill="#9D9CB5"/>
<path d="M53.0075 194.125L52.8393 196.944H28.3604L28.1891 194.125H53.0075Z" fill="#9D9CB5"/>
<path d="M24.7786 156.527C35.946 164.831 40.6075 177.817 40.6075 177.817C40.6075 177.817 27.1491 177.342 15.9787 169.039C4.80831 160.736 0.156006 147.753 0.156006 147.753C0.156006 147.753 13.6082 148.224 24.7786 156.527Z" fill="#FFD000"/>
<path d="M0.14679 147.753C0.14679 147.753 14.119 155.72 18.6 162.317C23.081 168.913 40.6074 177.817 40.6074 177.817" stroke="#535461" stroke-width="2" stroke-miterlimit="10"/>
<path d="M31.988 139.801C38.0657 144.318 40.6074 151.386 40.6074 151.386C40.6074 151.386 33.2818 151.128 27.2011 146.612C21.1204 142.096 18.5847 135.024 18.5847 135.024C18.5847 135.024 25.9073 135.282 31.988 139.801Z" fill="#FFD000"/>
<path d="M18.5847 135.024C18.5847 135.024 26.1887 139.361 28.6265 142.951C31.0643 146.54 40.6074 151.386 40.6074 151.386" stroke="#535461" stroke-width="2" stroke-miterlimit="10"/>
<path d="M49.4318 151.028C42.4488 158.913 40.9714 169.218 40.9714 169.218C40.9714 169.218 50.8174 166.735 57.7944 158.847C64.7713 150.958 66.2548 140.656 66.2548 140.656C66.2548 140.656 56.4149 143.142 49.4318 151.028Z" fill="#FFD000"/>
<path d="M66.2609 140.659C66.2609 140.659 57.1643 148.743 54.8519 154.312C52.5395 159.881 40.9714 169.218 40.9714 169.218" stroke="#535461" stroke-width="2" stroke-miterlimit="10"/>
<path d="M305.77 148.252C305.77 148.252 300.72 122.437 302.654 119.225C302.654 119.225 302.724 116.24 302.608 112.434C302.608 112.289 302.608 112.145 302.608 111.997C302.948 112.23 303.302 112.44 303.669 112.626C305.45 113.566 307.495 113.837 309.45 113.392L307.921 111.642C307.554 111.224 307.171 110.771 307.092 110.218C307.012 109.665 307.232 109.172 307.422 108.678C308.875 104.907 308.951 100.164 306.153 97.2856C303.788 94.8656 303.213 91.7417 300.647 89.5323C298.772 87.9137 297.741 85.5409 296.769 83.2467C295.946 81.3075 295.117 79.3527 294.646 77.2973C294.279 75.6913 294.132 74.0288 293.627 72.4605C293.123 70.8923 292.177 69.368 290.7 68.6672C290.174 68.4189 289.59 68.2775 289.11 67.9475C288.479 67.5106 288.1 66.8004 287.644 66.1781C285.329 63.0353 277.575 64.8864 273.905 66.1624C272.907 66.4837 271.983 67.0097 271.189 67.7086L271.222 67.6521C271.25 67.6049 271.283 67.5578 271.314 67.5106C270.912 67.8444 270.565 68.2423 270.286 68.6892C269.751 69.5597 269.528 70.5749 269.081 71.5177C268.543 72.6334 265.548 75.7479 266.836 77.0019C266.926 77.0861 267.03 77.1541 267.142 77.203C267.625 77.4098 268.158 77.4644 268.671 77.3602L268.616 77.4953C268.176 78.6017 267.951 79.7856 267.952 80.9807C267.952 86.1443 272.097 90.3305 277.214 90.3305C278.176 90.3315 279.133 90.1799 280.05 89.8811C280.071 90.0005 280.089 90.12 280.111 90.2394C280.111 90.2865 280.126 90.3337 280.132 90.3808L279.97 90.6134C279.962 90.599 279.953 90.5854 279.943 90.5725L275.14 97.4679C274.406 97.999 270.179 101.142 269.941 103.499C269.69 106.079 269.439 109.099 269.439 109.099L269.405 109.747C269.195 109.927 268.95 110.058 268.686 110.131C268.422 110.205 268.146 110.218 267.876 110.171C266.377 109.92 266.377 115.828 266.377 115.828C266.377 115.828 265.38 116.771 264.695 115.954C264.01 115.137 262.199 117.906 262.199 117.906L250.851 118.408L250.591 118.424L249.979 116.479C249.914 116.273 249.772 116.103 249.584 116.005C249.397 115.907 249.18 115.888 248.979 115.954C248.932 115.97 248.886 115.99 248.842 116.014L248.799 116.039L248.719 116.095L248.679 116.133C248.658 116.153 248.637 116.175 248.618 116.199L248.582 116.243L248.563 116.262C248.493 116.362 248.446 116.478 248.427 116.6C248.408 116.723 248.417 116.848 248.453 116.966L248.979 118.635C246.789 119.087 244.55 120.363 246.376 123.877L237.121 122.12L240.115 124.703L255.574 127.981C255.369 128.358 255.503 128.905 256.143 129.675C258.896 132.997 263.912 133.899 265.931 134.132C266.464 135.357 267.13 136.517 267.916 137.589L267.741 140.898C267.741 140.898 262.63 166.122 261.694 167.402C262.167 166.851 262.599 166.266 262.988 165.651C261.505 170.834 259.431 177.927 258.886 178.989C258.012 180.686 257.201 187.553 258.198 187.993C258.504 188.128 259.379 188.062 260.627 187.965V188.534L260.572 210.09C260.572 210.09 260.823 223.312 260.134 224.572C259.446 225.833 259.263 228.476 259.263 228.476C259.263 228.476 256.51 233.69 254.329 235.786C254.314 235.802 254.298 235.817 254.28 235.83L254.213 235.34C254.213 235.34 251.591 238.74 245.792 238.548C245.792 238.548 242.302 240.88 247.477 241.006C252.653 241.132 259.263 240.818 259.263 240.818C259.263 240.818 263.878 233.589 267.744 234.532V240.01H268.928V234.444C269.477 234.073 269.947 233.591 270.309 233.027C270.671 232.464 270.919 231.83 271.036 231.166C271.137 230.481 271.063 229.781 270.82 229.134C270.578 228.488 270.176 227.917 269.653 227.479C269.418 227.261 269.23 226.996 269.1 226.699C268.97 226.403 268.901 226.082 268.898 225.757L268.855 225.795C268.855 225.685 268.827 225.572 268.815 225.455C268.475 222.627 268.05 216.791 269.552 212.473C271.611 206.551 272.235 198.305 270.736 193.396C270.252 191.827 269.855 190.231 269.546 188.616C269.509 188.411 269.476 188.216 269.445 188.034C270.47 188.176 271.484 188.386 272.482 188.663C275.954 189.646 283.549 189.829 290.033 189.775C290.049 189.957 290.067 190.149 290.088 190.341C290.204 191.674 290.446 192.991 290.81 194.276C291.624 196.79 291.997 207.875 291.997 207.875C291.997 207.875 293.046 216.989 292.474 220.697C292.168 222.759 291.862 224.83 291.688 226.911V226.951C291.688 226.951 289.969 231.98 288.712 234.711C288.681 234.78 288.648 234.849 288.617 234.915C288.282 234.947 287.952 235.022 287.635 235.138C287.635 235.138 285.95 238.596 284.271 239.168C282.591 239.74 283.148 241.622 286.95 240.931C290.752 240.239 296.493 239.674 296.493 239.674L296.741 236.147L297.909 234.645L297.604 238.162L298.848 237.91L298.683 233.633L300.595 231.175C300.595 231.175 302.904 229.063 299.472 224.909V225C299.436 224.94 299.402 224.877 299.362 224.817V224.799C298.793 223.893 298.341 222.206 299.17 219.211C300.668 213.799 301.54 208.887 301.54 208.887C301.54 208.887 304.886 195.728 300.864 189.502H301.042C300.629 188.626 300.338 187.695 300.176 186.736C300.156 186.623 300.137 186.507 300.121 186.387C303.097 186.211 306.018 185.658 308.401 184.464C308.392 184.451 306.957 153.224 305.77 148.252ZM267.986 126.473V126.536L267.374 126.567L267.986 126.473ZM265.888 126.771C265.787 126.794 265.693 126.84 265.613 126.907C265.35 127.289 265.184 127.733 265.132 128.198L264.178 127.978C264.178 127.978 263.508 127.83 262.545 127.664L262.089 127.193C263.343 127.086 264.646 126.929 265.888 126.771Z" fill="url(#paint1_linear_618_2809)"/>
<path d="M297.463 233.677L297.099 238.13L298.319 237.879L298.136 233.049L297.463 233.677Z" fill="#666666"/>
<path d="M269.619 212.532C268.148 216.838 268.564 222.649 268.894 225.471C269.017 226.515 269.13 227.149 269.13 227.149C269.13 227.149 266.931 232.297 266.747 232.492C266.564 232.687 260.275 236.631 260.275 236.631L255.88 239.268C255.88 239.268 251.42 237.26 253.558 236.568C253.995 236.388 254.388 236.113 254.711 235.761C256.852 233.671 259.541 228.476 259.541 228.476C259.541 228.476 259.724 225.839 260.397 224.585C261.07 223.331 260.826 210.153 260.826 210.153L260.878 188.672V185.872L269.243 185.935C269.296 186.885 269.417 187.831 269.604 188.763C269.904 190.373 270.293 191.964 270.769 193.528C272.244 198.427 271.632 206.633 269.619 212.532Z" fill="#FFB0B1"/>
<path opacity="0.1" d="M269.13 227.149C269.13 227.149 266.931 232.297 266.747 232.492C266.564 232.687 260.275 236.631 260.275 236.631L255.88 239.268C255.88 239.268 251.42 237.26 253.558 236.568C253.995 236.388 254.388 236.113 254.711 235.761L254.901 237.134L256.366 237.071L268.907 225.477C269.017 226.515 269.13 227.149 269.13 227.149Z" fill="#333333"/>
<path d="M268.977 225.77L256.366 237.442L254.901 237.505L254.595 235.305C254.595 235.305 252.032 238.693 246.336 238.504C246.336 238.504 242.917 240.827 247.985 240.953C253.053 241.078 259.526 240.764 259.526 240.764C259.526 240.764 264.046 233.536 267.83 234.478V239.938H268.992V234.428C269.533 234.054 269.994 233.572 270.348 233.01C270.703 232.449 270.943 231.819 271.054 231.16C271.155 230.48 271.083 229.786 270.847 229.143C270.611 228.5 270.218 227.93 269.705 227.489C269.476 227.268 269.294 227.002 269.168 226.707C269.043 226.411 268.978 226.092 268.977 225.77Z" fill="#666666"/>
<path d="M298.625 219.245C297.812 222.231 298.255 223.912 298.812 224.814V224.833C299.526 225.947 300.022 227.193 300.274 228.501L300.323 228.784L294.585 237.379L291.471 238.636C291.471 238.636 286.464 236.88 287.378 236.377C287.608 236.254 287.966 235.6 288.375 234.698C289.599 231.98 291.287 226.964 291.287 226.964V226.923C291.465 224.852 291.746 222.787 292.058 220.732C292.618 217.033 291.59 207.953 291.59 207.953C291.59 207.953 291.223 196.913 290.428 194.401C290.069 193.125 289.83 191.815 289.715 190.492C289.55 188.92 289.513 187.626 289.513 187.626C289.513 187.626 292.811 182.911 298.855 188.003C299.338 188.409 299.763 188.883 300.118 189.411C304.293 195.514 300.931 208.959 300.931 208.959C300.931 208.959 300.09 213.849 298.625 219.245Z" fill="#FFB0B1"/>
<path opacity="0.1" d="M300.332 228.784L294.594 237.379L291.48 238.636C291.48 238.636 286.473 236.88 287.387 236.377C287.617 236.254 287.975 235.6 288.385 234.698C290.504 234.68 291.602 236.754 291.602 236.754L294.288 236.314C294.288 236.314 297.83 229.161 298.625 228.724C299.42 228.287 298.748 225.459 298.748 225.459V224.739C298.769 224.764 298.787 224.792 298.812 224.817V224.836C299.526 225.95 300.022 227.196 300.274 228.504L300.332 228.784Z" fill="#333333"/>
<path d="M291.786 236.939C291.786 236.939 290.257 234.054 287.326 235.12C287.326 235.12 285.678 238.577 284.029 239.136C282.38 239.696 282.931 241.581 286.656 240.893C290.382 240.205 295.998 239.636 295.998 239.636L296.242 236.119L300.029 231.163C300.029 231.163 302.286 229.06 298.928 224.921V225.641C298.928 225.641 299.601 228.469 298.806 228.906C298.01 229.343 294.481 236.499 294.481 236.499L291.786 236.939Z" fill="#666666"/>
<path opacity="0.1" d="M269.252 185.928C269.305 186.879 269.426 187.824 269.613 188.757C266.169 188.238 262.973 188.496 260.878 188.666V185.866L269.252 185.928Z" fill="#333333"/>
<path opacity="0.1" d="M300.457 190.193C300.457 190.193 295.563 190.438 289.727 190.489C289.562 188.917 289.526 187.622 289.526 187.622C289.526 187.622 292.823 182.908 298.867 188C299.35 188.406 299.775 188.88 300.13 189.408C300.225 189.675 300.334 189.938 300.457 190.193Z" fill="#333333"/>
<path d="M300.457 189.628C300.457 189.628 279.022 190.693 272.489 188.81C265.955 186.928 259.48 188.559 258.504 188.122C257.528 187.685 258.321 180.843 259.177 179.149C260.033 177.455 264.732 160.324 264.732 160.324L269.252 136.106L274.015 134.757L274.351 134.66L282.65 132.309L288.73 130.584C288.73 130.584 300.821 179.087 299.784 182.663C299.408 184.033 299.347 185.473 299.607 186.871C299.765 187.826 300.052 188.753 300.457 189.628Z" fill="#666666"/>
<path d="M253.494 119.543C253.494 119.543 249.212 124.257 252.454 126.884C255.696 129.512 257.828 127.136 257.828 127.136L253.494 119.543Z" fill="#C7DAF5"/>
<path opacity="0.1" d="M253.494 119.543C253.494 119.543 249.212 124.257 252.454 126.884C255.696 129.512 257.828 127.136 257.828 127.136L253.494 119.543Z" fill="#333333"/>
<path d="M288.091 88.5486C288.091 88.5486 287.589 89.0389 286.834 89.7617C285.757 90.7957 284.164 92.3074 282.751 93.5739C280.793 95.3245 279.178 96.6099 279.756 95.513C280.334 94.4162 280.224 92.5054 279.937 90.7171C279.915 90.5977 279.897 90.4783 279.875 90.362C279.637 89.0486 279.322 87.7514 278.93 86.4775C278.93 86.4775 282.093 82.2787 283.842 80.6224C284.494 79.9939 284.95 79.7362 284.977 80.173C285.008 80.7607 285.436 82.0587 285.968 83.4352C285.984 83.4792 285.999 83.5201 286.017 83.5641C286.372 84.5069 286.773 85.4749 287.124 86.3109C287.663 87.5932 288.091 88.5486 288.091 88.5486Z" fill="#FFB0B1"/>
<path opacity="0.1" d="M286.017 83.5641C285.72 85.2066 284.999 86.737 283.929 87.9953C282.86 89.2536 281.481 90.1936 279.937 90.7171C279.693 89.2824 279.357 87.8661 278.93 86.4774C278.93 86.4774 284.885 78.5733 284.977 80.173C284.999 80.7795 285.464 82.1247 286.017 83.5641Z" fill="#333333"/>
<path opacity="0.1" d="M279.343 92.8291L280.114 91.7134C280.114 91.7134 280.625 94.9128 282.503 93.5016C284.381 92.0905 284.473 104.121 284.473 104.121L282.457 135.087L267.891 134.192L268.304 119.229L269.953 111.686L274.03 100.721L276.456 97.097L279.343 92.8291Z" fill="#333333"/>
<path d="M284.473 104.313L282.637 132.312L282.445 135.279L274.324 134.779L274.018 134.76L267.9 134.383L268.313 119.417L269.962 111.874L274.039 100.909L276.465 97.2855L279.352 93.0019L280.123 91.8893C280.123 91.8893 280.634 95.0887 282.512 93.6776L282.552 93.6493C284.387 92.455 284.473 104.313 284.473 104.313Z" fill="#666666"/>
<path d="M270.167 109.253C270.167 109.253 269.436 110.825 267.968 110.57C266.5 110.316 266.503 116.227 266.503 116.227C266.503 116.227 265.527 117.17 264.854 116.353C264.181 115.536 262.407 118.298 262.407 118.298L251.292 118.801C251.292 118.801 256.238 121.124 255.268 128.151C255.268 128.151 272.06 127.082 272.611 125.451C273.161 123.82 270.167 109.253 270.167 109.253Z" fill="white"/>
<path opacity="0.03" d="M270.167 109.253C270.167 109.253 269.436 110.825 267.968 110.57C266.5 110.316 266.503 116.227 266.503 116.227C266.503 116.227 265.527 117.17 264.854 116.353C264.181 115.536 262.407 118.298 262.407 118.298L251.292 118.801C251.292 118.801 256.238 121.124 255.268 128.151C255.268 128.151 272.06 127.082 272.611 125.451C273.161 123.82 270.167 109.253 270.167 109.253Z" fill="#333333"/>
<path d="M237.864 122.494L240.794 125.065L264.915 130.272L261.924 127.136L237.864 122.494Z" fill="white"/>
<path d="M279.389 93.819C278.988 94.4476 277.841 97.6658 276.884 100.475C276.086 102.817 275.419 104.875 275.419 104.875C275.419 104.875 273.862 115.291 273.067 117.173C272.271 119.056 272.703 126.397 272.703 126.397L269.739 144.528C269.739 144.528 268.396 153.878 266.322 159.463C264.276 164.96 261.997 167.537 261.927 167.618C262.844 166.342 267.845 141.219 267.845 141.219L269.497 109.533C269.497 109.533 269.739 106.522 269.983 103.948C270.228 101.374 275.183 97.8607 275.183 97.8607L279.961 90.8805C280.441 91.5405 280.12 92.6908 279.389 93.819Z" fill="white"/>
<path d="M266.931 134.54C266.931 134.54 259.896 134.226 256.488 130.021C253.081 125.816 264.365 128.343 264.365 128.343L267.298 129.034L266.931 134.54Z" fill="#FFB0B1"/>
<path opacity="0.1" d="M299.784 182.666C299.408 184.036 299.347 185.477 299.607 186.874C291.933 187.434 283.723 185.303 283.723 185.303C282.194 186.749 278.165 188.879 278.165 188.879L275.969 160.909C274.565 157.137 274.015 137.378 274.015 137.378C274.015 137.378 274.14 136.344 274.321 134.795C274.321 134.757 274.321 134.716 274.336 134.679C274.883 130.351 275.969 122.227 276.501 121.13C277.236 119.621 274.244 115.608 274.244 115.608L275.605 103.681L275.77 102.242C278.64 100.925 280.839 96.7198 280.839 96.7198L282.527 93.6807C284.362 92.4708 284.457 104.329 284.457 104.329L282.622 132.328L288.703 130.602C288.703 130.602 300.821 179.09 299.784 182.666Z" fill="#333333"/>
<path d="M307.661 184.599C299.295 188.867 284.09 184.913 284.09 184.913C282.561 186.359 278.533 188.49 278.533 188.49L276.333 160.519C274.932 156.747 274.382 136.989 274.382 136.989C274.382 136.989 276.15 122.246 276.884 120.74C277.098 120.3 276.994 119.647 276.74 118.943C275.492 115.592 275.033 111.985 275.4 108.417L275.988 103.291L276.15 101.855C279.022 100.535 281.221 96.3301 281.221 96.3301L282.75 93.577L285.564 88.5046L286.898 86.1035L287.124 86.314L288.853 87.9231C288.853 87.9231 289.587 88.5517 290.688 89.4945C293.083 91.5688 297.221 95.2207 299.356 97.4553C301.234 99.4227 301.828 107.075 301.999 112.836C302.112 116.63 302.045 119.603 302.045 119.603C300.151 122.805 305.104 148.516 305.104 148.516C306.257 153.485 307.661 184.599 307.661 184.599Z" fill="white"/>
<path opacity="0.03" d="M291.602 96.2673C291.602 96.2673 285.861 107.497 286.528 111.764C287.195 116.032 289.091 120.863 288.177 121.991C287.862 122.419 287.456 122.766 286.99 123.005C286.523 123.244 286.009 123.369 285.488 123.371C284.57 123.434 282.123 125.191 282.123 125.379C282.123 125.568 279.863 125.568 277.841 126.448C275.819 127.328 272.834 127.827 272.834 127.827C272.834 127.827 267.023 127.639 266.481 128.204C265.94 128.77 265.383 132.155 266.542 134.855C267.702 137.554 268.989 139.569 269.962 139.937C270.935 140.304 277.107 138.18 282.114 137.677C287.121 137.174 292.557 133.098 292.557 133.098C292.557 133.098 298.543 130.898 299.592 127.199C300.641 123.5 298.31 103.169 298.31 103.169C298.31 103.169 296.548 93.6933 291.602 96.2673Z" fill="#333333"/>
<path opacity="0.03" d="M290.868 95.3244C290.868 95.3244 285.127 106.557 285.8 110.822C286.473 115.086 288.363 119.92 287.446 121.051C287.132 121.479 286.727 121.827 286.261 122.066C285.795 122.306 285.281 122.431 284.76 122.431C283.842 122.494 281.395 124.251 281.395 124.439C281.395 124.628 279.135 124.628 277.113 125.505C275.091 126.382 272.106 126.884 272.106 126.884C272.106 126.884 266.295 126.696 265.756 127.262C265.218 127.827 264.655 131.215 265.817 133.912C266.98 136.608 268.264 138.626 269.237 138.994C270.21 139.361 276.382 137.237 281.389 136.737C286.396 136.237 291.832 132.155 291.832 132.155C291.832 132.155 297.815 129.955 298.852 126.259C299.888 122.563 297.57 102.226 297.57 102.226C297.57 102.226 295.814 92.7536 290.868 95.3244Z" fill="#333333"/>
<path d="M291.422 95.7016C291.422 95.7016 285.681 106.934 286.354 111.199C287.027 115.464 288.917 120.297 288.002 121.425C287.689 121.854 287.283 122.203 286.817 122.443C286.35 122.683 285.836 122.808 285.314 122.808C284.396 122.871 281.949 124.628 281.949 124.813C281.949 124.999 279.692 125.002 277.667 125.882C275.642 126.762 272.66 127.262 272.66 127.262C272.66 127.262 266.848 127.073 266.307 127.639C265.765 128.205 265.209 131.592 266.368 134.289C267.527 136.986 268.815 139.003 269.788 139.371C270.76 139.739 276.933 137.614 281.94 137.111C286.947 136.608 292.382 132.532 292.382 132.532C292.382 132.532 298.368 130.332 299.417 126.633C300.467 122.934 298.151 102.603 298.151 102.603C298.151 102.603 296.365 93.1434 291.422 95.7016Z" fill="white"/>
<path opacity="0.1" d="M291.297 125.829C291.297 125.829 286.708 124.886 288.305 126.457C289.902 128.029 289.893 129.405 291.847 129.342C293.802 129.279 291.297 125.829 291.297 125.829Z" fill="#333333"/>
<path opacity="0.1" d="M299.05 159.639C299.05 159.639 296.977 161.081 300.944 164.406C304.911 167.732 299.05 159.639 299.05 159.639Z" fill="#333333"/>
<path opacity="0.1" d="M295.092 171.497C295.092 171.685 294.358 178.411 297.105 180.092C299.852 181.774 295.092 171.497 295.092 171.497Z" fill="#333333"/>
<path d="M251.481 118.786C249.267 118.864 244.483 119.559 246.964 124.314C249.157 128.522 252.842 125.709 254.916 123.575C254.41 121.586 253.181 119.871 251.481 118.786Z" fill="#FFB0B1"/>
<path d="M254.944 123.537L255.035 123.44L254.944 123.537Z" fill="#FFB0B1"/>
<path opacity="0.1" d="M290.688 89.6863C288.339 91.3362 286.369 92.7285 285.984 93.0176C284.931 93.819 282.925 98.5238 281.631 100.925C280.6 102.858 277.251 103.354 275.988 103.477L276.15 102.041C279.022 100.721 281.221 96.5156 281.221 96.5156L286.898 86.2889L288.853 88.1148C288.853 88.1148 289.587 88.7434 290.688 89.6863Z" fill="#333333"/>
<path d="M290.688 89.4977C288.339 91.1477 286.369 92.54 285.984 92.8322C284.931 93.6305 282.925 98.3353 281.631 100.736C280.6 102.669 277.251 103.166 275.988 103.288L276.15 101.852C279.022 100.532 281.221 96.327 281.221 96.327L286.898 86.1003L288.853 87.92C288.853 87.92 289.587 88.5423 290.688 89.4977Z" fill="#DCE7FF"/>
<path d="M286.167 81.4898C286.168 83.3764 285.612 85.2189 284.57 86.7729C283.341 88.6103 281.511 89.9339 279.413 90.5036C277.315 91.0733 275.087 90.8514 273.135 89.878C271.182 88.9047 269.634 87.2444 268.771 85.1985C267.908 83.1526 267.787 80.8566 268.431 78.727C269.074 76.5975 270.44 74.7756 272.279 73.5919C274.118 72.4081 276.309 71.941 278.455 72.2752C280.6 72.6094 282.558 73.7229 283.973 75.4135C285.388 77.1042 286.167 79.26 286.167 81.4898Z" fill="#FFB0B1"/>
<path opacity="0.1" d="M301.999 112.839C300.757 112.054 299.745 110.938 299.072 109.608C298.561 108.571 298.221 107.374 297.35 106.639C296.564 105.979 295.514 105.818 294.536 105.523C291.318 104.545 288.62 101.528 288.519 98.0838C288.47 96.4621 288.963 94.8436 288.739 93.2376C288.612 92.3287 288.261 91.4684 287.718 90.7391C287.448 90.3902 287.153 90.0635 286.834 89.7617C286.406 89.3468 285.956 88.9445 285.564 88.5045C285.318 88.2321 285.102 87.9316 284.922 87.6088C284.777 87.3447 284.659 87.0656 284.57 86.776C283.959 84.8526 284.515 82.5709 283.842 80.6255L283.806 80.5187C283.552 79.8272 283.035 79.1358 282.316 79.0824C281.597 79.029 280.983 79.6418 280.297 79.9152C278.863 80.4872 277.315 79.513 276.119 78.5198C274.923 77.5267 273.574 76.3922 272.054 76.6122C271.048 76.7599 270.253 77.4639 269.326 77.8284C269.117 77.9117 268.901 77.9758 268.68 78.0201C269.465 76.0103 270.906 74.3439 272.756 73.3072C274.606 72.2705 276.75 71.9282 278.819 72.3391C280.888 72.7501 282.753 73.8885 284.094 75.559C285.435 77.2295 286.168 79.3276 286.167 81.4929C286.168 82.1468 286.101 82.7989 285.968 83.4383C285.984 83.4823 285.999 83.5232 286.017 83.5672C286.372 84.51 286.773 85.478 287.124 86.314L288.853 87.9231C288.853 87.9231 289.587 88.5517 290.688 89.4945C293.083 91.5688 297.221 95.2207 299.356 97.4553C301.234 99.4289 301.822 107.079 301.999 112.839Z" fill="#333333"/>
<path d="M269.219 72.0865C269.656 71.172 269.873 70.1474 270.396 69.28C271.164 68.0229 272.504 67.2183 273.88 66.7312C277.474 65.4583 285.069 63.6104 287.339 66.7312C287.785 67.3597 288.155 68.0574 288.773 68.4911C289.244 68.8211 289.813 68.9626 290.33 69.2109C291.777 69.9086 292.7 71.4297 293.193 72.9822C293.685 74.5348 293.832 76.2004 294.193 77.8001C294.655 79.8524 295.466 81.7978 296.273 83.7306C297.224 86.0123 298.234 88.3788 300.069 89.9911C302.574 92.191 303.128 95.3056 305.452 97.7192C308.205 100.585 308.116 105.315 306.697 109.071C306.511 109.564 306.299 110.08 306.373 110.605C306.446 111.13 306.826 111.607 307.183 112.025L308.688 113.77C305.128 114.653 301.1 112.742 299.442 109.388C298.931 108.351 298.592 107.157 297.717 106.419C296.934 105.759 295.882 105.601 294.906 105.306C291.688 104.325 288.99 101.305 288.889 97.8607C288.84 96.2421 289.333 94.6236 289.11 93.0207C288.985 92.1057 288.632 91.2395 288.085 90.5065C287.244 89.3782 285.974 88.6208 285.289 87.3637C284.13 85.2612 285.011 82.5301 284.176 80.2735C283.919 79.5821 283.405 78.8907 282.686 78.8373C281.967 78.7838 281.353 79.3967 280.664 79.6701C279.233 80.2421 277.685 79.271 276.489 78.2747C275.293 77.2784 273.944 76.147 272.421 76.3702C271.415 76.5147 270.623 77.2187 269.696 77.5864C269.011 77.8567 267.622 78.0987 267.023 77.5047C265.756 76.3073 268.69 73.2054 269.219 72.0865Z" fill="#591D4B"/>
<path opacity="0.1" d="M300.292 108.351C299.778 107.314 299.442 106.12 298.567 105.385C297.784 104.725 296.732 104.564 295.753 104.269C292.538 103.291 289.841 100.271 289.737 96.8267C289.688 95.2082 290.18 93.5865 289.96 91.9836C289.832 91.0745 289.479 90.2143 288.935 89.4851C288.091 88.3568 286.822 87.5994 286.139 86.3423C284.98 84.2429 285.861 81.5118 285.023 79.2521C284.769 78.5639 284.252 77.8724 283.537 77.8159C282.821 77.7593 282.2 78.3784 281.515 78.6519C280.083 79.2239 278.532 78.2496 277.34 77.2565C276.147 76.2633 274.792 75.1288 273.271 75.3488C272.265 75.4965 271.47 76.2005 270.546 76.565C269.861 76.8353 268.469 77.0805 267.87 76.4865C266.61 75.2293 269.543 72.1337 270.069 71.0211C270.506 70.1034 270.724 69.082 271.25 68.2146C271.277 68.1675 271.308 68.1203 271.338 68.0732C270.945 68.4082 270.605 68.8048 270.332 69.2486C269.809 70.116 269.592 71.1343 269.154 72.0551C268.625 73.1677 265.692 76.2728 266.955 77.5205C267.567 78.1176 268.943 77.8724 269.629 77.6022C270.546 77.2345 271.348 76.5305 272.354 76.3859C273.883 76.1628 275.229 77.2973 276.422 78.2904C277.615 79.2836 279.175 80.2578 280.6 79.6858C281.285 79.4124 281.885 78.7964 282.619 78.853C283.353 78.9096 283.842 79.5978 284.109 80.2893C284.944 82.5458 284.063 85.2769 285.222 87.3794C285.907 88.6146 287.176 89.3877 288.018 90.5222C288.565 91.2552 288.918 92.1215 289.042 93.0365C289.265 94.6393 288.773 96.2579 288.822 97.8764C288.923 101.333 291.621 104.341 294.838 105.322C295.808 105.617 296.866 105.774 297.649 106.434C298.527 107.173 298.873 108.367 299.375 109.404C301.032 112.758 305.061 114.668 308.621 113.785L307.911 112.962C304.825 113.009 301.702 111.205 300.292 108.351Z" fill="#333333"/>
<path opacity="0.1" d="M279.205 94.0076C278.805 94.6362 277.658 97.8544 276.7 100.664C275.804 100.306 274.99 98.021 274.99 98.021L279.768 91.0377C280.258 91.7291 279.936 92.8762 279.205 94.0076Z" fill="#333333"/>
<path d="M279.389 93.819C278.988 94.4476 277.841 97.6658 276.884 100.476C275.988 100.12 275.174 97.8324 275.174 97.8324L279.952 90.8522C280.441 91.5405 280.12 92.6908 279.389 93.819Z" fill="#DCE7FF"/>
<path d="M251.61 125.926L248.961 117.343C248.93 117.242 248.918 117.137 248.926 117.031C248.935 116.926 248.964 116.824 249.011 116.73C249.058 116.636 249.123 116.553 249.201 116.485C249.28 116.417 249.371 116.366 249.469 116.334C249.666 116.271 249.879 116.29 250.063 116.388C250.246 116.486 250.384 116.654 250.447 116.856L253.096 125.429L252.833 127.224L251.61 125.926Z" fill="#BE8B87"/>
<path opacity="0.1" d="M249.212 116.589C249.409 116.524 249.623 116.543 249.807 116.641C249.992 116.739 250.13 116.908 250.194 117.11L252.842 125.684L252.644 127.029L252.836 127.237L253.099 125.442L250.435 116.868C250.372 116.666 250.234 116.498 250.05 116.401C249.867 116.303 249.654 116.283 249.456 116.347C249.29 116.402 249.147 116.513 249.05 116.661C249.102 116.632 249.156 116.608 249.212 116.589Z" fill="white"/>
<path d="M251.61 125.926L253.096 125.442L252.879 126.913L252.833 127.236L252.399 126.771L251.61 125.926Z" fill="#EFC8C4"/>
<path d="M252.399 126.771C252.425 126.738 252.457 126.71 252.494 126.69C252.515 126.676 252.54 126.668 252.566 126.668C252.591 126.668 252.616 126.676 252.637 126.69C252.658 126.716 252.676 126.744 252.689 126.775C252.71 126.809 252.737 126.839 252.77 126.861C252.803 126.883 252.84 126.898 252.879 126.903L252.833 127.218L252.399 126.771Z" fill="#727A9C"/>
<path d="M248.946 120.392C248.946 120.392 254.259 120.36 253.008 122.683C251.757 125.005 249.802 125.285 249.802 125.285L248.946 120.392Z" fill="#FFB0B1"/>
<path d="M215.902 16.1603H215.673C206.546 16.1603 198.474 21.1228 193.831 28.4455C189.188 21.1228 181.116 16.1603 171.988 16.1603H171.759C164.909 16.2273 158.362 19.0693 153.54 24.0684C148.718 29.0676 146.011 35.8201 146.008 42.8584C146.008 51.5986 149.733 64.0001 156.998 74.2048C170.838 93.6493 193.831 110.661 193.831 110.661C193.831 110.661 216.823 93.6524 230.661 74.2048C237.928 64.0001 241.651 51.5986 241.651 42.8584C241.647 35.8206 238.94 29.0686 234.119 24.0695C229.298 19.0704 222.751 16.2282 215.902 16.1603ZM212.62 75.7007C211.581 75.6967 210.567 75.3697 209.711 74.7629C208.856 74.156 208.199 73.2976 207.827 72.3002H202.371C202.011 72.2979 201.662 72.1804 201.37 71.964C201.079 71.7477 200.861 71.4433 200.746 71.0934L199.07 65.9046L193.766 84.9469C193.663 85.3134 193.447 85.6357 193.15 85.8652C192.853 86.0947 192.492 86.2191 192.121 86.2197H192.014C191.626 86.2005 191.257 86.0452 190.967 85.7797C190.678 85.5143 190.486 85.1549 190.423 84.7614L184.957 50.9826L180.963 70.9708C180.871 71.3505 180.658 71.6878 180.358 71.9287C180.058 72.1697 179.689 72.3005 179.308 72.3002H171.621C171.391 72.3102 171.161 72.2723 170.945 72.1886C170.729 72.1049 170.532 71.9772 170.366 71.8132C170.199 71.6492 170.067 71.4524 169.976 71.2344C169.886 71.0164 169.839 70.7819 169.839 70.545C169.839 70.308 169.886 70.0735 169.976 69.8555C170.067 69.6376 170.199 69.4407 170.366 69.2767C170.532 69.1127 170.729 68.9851 170.945 68.9014C171.161 68.8177 171.391 68.7797 171.621 68.7897H177.962L183.621 41.9156C183.714 41.5182 183.938 41.1664 184.255 40.9202C184.573 40.674 184.963 40.5487 185.361 40.5658C185.758 40.5829 186.137 40.7412 186.434 41.0138C186.73 41.2864 186.925 41.6562 186.985 42.0601L192.567 76.5179L197.321 59.4807C197.42 59.1219 197.629 58.8056 197.917 58.579C198.206 58.3524 198.557 58.2278 198.92 58.2236H198.954C199.313 58.2237 199.664 58.3404 199.955 58.5572C200.246 58.7739 200.463 59.0795 200.575 59.4304L203.606 68.7991H207.76C208.055 67.8772 208.593 67.0571 209.313 66.4292C210.033 65.8014 210.909 65.3902 211.842 65.2411C212.775 65.092 213.731 65.2108 214.603 65.5844C215.474 65.958 216.229 66.5717 216.783 67.358C217.336 68.1443 217.668 69.0725 217.741 70.0402C217.813 71.0079 217.625 71.9774 217.195 72.8417C216.765 73.7061 216.112 74.4317 215.306 74.9384C214.5 75.4451 213.574 75.7133 212.63 75.7133L212.62 75.7007Z" fill="#FFD000"/>
</g>
<defs>
<linearGradient id="paint0_linear_618_2809" x1="108.991" y1="243.527" x2="108.991" y2="50.1372" gradientUnits="userSpaceOnUse">
<stop stop-color="#808080" stop-opacity="0.25"/>
<stop offset="0.54" stop-color="#808080" stop-opacity="0.12"/>
<stop offset="1" stop-color="#808080" stop-opacity="0.1"/>
</linearGradient>
<linearGradient id="paint1_linear_618_2809" x1="273.275" y1="241.082" x2="273.275" y2="64.4558" gradientUnits="userSpaceOnUse">
<stop stop-color="#808080" stop-opacity="0.25"/>
<stop offset="0.54" stop-color="#808080" stop-opacity="0.12"/>
<stop offset="1" stop-color="#808080" stop-opacity="0.1"/>
</linearGradient>
<clipPath id="clip0_618_2809">
<rect width="338" height="246" rx="16" fill="white"/>
</clipPath>
</defs>
</svg>
