<svg width="336" height="246" viewBox="0 0 336 246" fill="none" xmlns="http://www.w3.org/2000/svg">
<rect width="336" height="246" rx="16" fill="white"/>
<g clip-path="url(#clip0_618_3239)">
<rect width="250" height="240" transform="translate(43 6)" fill="white"/>
<path d="M268.136 238.512C269.083 238.571 269.606 237.395 268.89 236.709L268.819 236.426C268.828 236.403 268.838 236.38 268.847 236.357C269.804 234.074 273.049 234.089 273.998 236.377C274.841 238.407 275.913 240.44 276.178 242.587C276.296 243.534 276.243 244.5 276.033 245.429C278.007 241.115 279.046 236.404 279.046 231.666C279.046 230.476 278.98 229.286 278.847 228.098C278.738 227.127 278.587 226.162 278.391 225.205C277.335 220.035 275.047 215.111 271.747 210.998C270.16 210.13 268.838 208.774 268.038 207.149C267.751 206.562 267.526 205.932 267.42 205.289C267.6 205.313 268.101 202.562 267.964 202.393C268.216 202.011 268.666 201.821 268.941 201.448C270.308 199.595 272.191 199.918 273.174 202.437C275.273 203.498 275.294 205.256 274.005 206.947C273.186 208.023 273.073 209.479 272.354 210.631C272.428 210.726 272.505 210.817 272.579 210.912C273.935 212.653 275.109 214.525 276.098 216.491C275.819 214.306 276.232 211.673 276.935 209.976C277.736 208.043 279.238 206.415 280.56 204.743C282.148 202.735 285.405 203.612 285.685 206.157C285.688 206.181 285.691 206.206 285.693 206.231C285.497 206.341 285.304 206.459 285.116 206.584C284.044 207.293 284.415 208.956 285.685 209.152L285.714 209.156C285.643 209.864 285.521 210.566 285.344 211.256C287.04 217.819 283.378 220.209 278.149 220.316C278.033 220.376 277.921 220.435 277.805 220.491C278.335 221.984 278.759 223.514 279.072 225.066C279.353 226.437 279.549 227.823 279.658 229.215C279.794 230.97 279.783 232.735 279.635 234.488L279.643 234.426C280.019 232.495 281.067 230.692 282.588 229.443C284.855 227.58 288.057 226.894 290.501 225.397C291.678 224.676 293.186 225.608 292.981 226.973L292.971 227.038C292.607 227.186 292.252 227.358 291.909 227.55C291.712 227.661 291.52 227.779 291.332 227.903C290.26 228.613 290.63 230.275 291.901 230.472L291.929 230.476C291.95 230.479 291.968 230.482 291.988 230.485C291.364 231.968 290.494 233.345 289.405 234.533C288.344 240.262 283.788 240.806 278.915 239.137H278.912C278.38 241.459 277.601 243.727 276.601 245.888H268.343C268.314 245.797 268.287 245.702 268.26 245.61C269.024 245.657 269.793 245.613 270.545 245.474C269.933 244.722 269.32 243.964 268.707 243.212C268.692 243.197 268.681 243.182 268.669 243.167C268.358 242.782 268.044 242.4 267.734 242.015L267.733 242.015C267.714 240.833 267.856 239.655 268.136 238.512L268.136 238.512V238.512Z" fill="#F2F2F2"/>
<path d="M116.206 245.454C116.206 245.757 116.448 246 116.751 246H292.39C292.693 246 292.936 245.757 292.936 245.454C292.936 245.152 292.693 244.909 292.39 244.909H116.751C116.448 244.909 116.206 245.152 116.206 245.454Z" fill="#CCCCCC"/>
<path d="M142.857 245.768H62.0119C52.1543 245.768 44.1344 237.744 44.1344 227.882V54.0599C44.1344 44.1978 52.1543 36.1742 62.0119 36.1742H142.857C152.715 36.1742 160.735 44.1978 160.735 54.0599V227.882C160.735 237.744 152.715 245.768 142.857 245.768Z" fill="#3F3D56"/>
<path d="M160.735 100.112C160.317 100.112 159.978 100.451 159.978 100.868V125.081C159.978 125.498 160.317 125.838 160.735 125.838C161.152 125.838 161.491 125.498 161.491 125.081V100.868C161.491 100.451 161.152 100.112 160.735 100.112Z" fill="#3F3D56"/>
<path d="M159.033 54.0601V227.879C159.033 236.463 152.355 243.485 143.911 244.029H143.907C143.782 244.037 143.657 244.045 143.529 244.048C143.306 244.06 143.083 244.064 142.856 244.064C142.856 244.064 142.024 244.003 140.503 243.89C138.968 243.776 136.733 243.606 133.946 243.383C133.111 243.318 132.229 243.246 131.299 243.171C129.446 243.019 127.412 242.853 125.23 242.664C124.36 242.592 123.46 242.512 122.541 242.433C117.845 242.028 112.584 241.555 107.037 241.018C106.099 240.931 105.154 240.84 104.201 240.746C103.951 240.719 103.698 240.696 103.444 240.67C99.4889 240.28 45.8362 229.907 45.8362 227.879V54.0601C45.8362 45.1202 53.0779 37.8752 62.0137 37.8752H71.6717C73.2146 37.8752 74.4549 39.0783 74.5873 40.6181C74.5986 40.7203 74.61 40.8224 74.6289 40.9246C74.9087 42.4719 76.3268 43.5502 77.8999 43.5502H126.969C128.543 43.5502 129.961 42.4719 130.24 40.9246C130.259 40.8224 130.271 40.7203 130.282 40.6181C130.414 39.0783 131.655 37.8752 133.198 37.8752H142.856C151.791 37.8752 159.033 45.1202 159.033 54.0601Z" fill="white"/>
<path d="M43.7563 81.9518C43.3392 81.9518 43 82.2912 43 82.7085V88.7617C43 89.179 43.3392 89.5184 43.7563 89.5184C44.1734 89.5184 44.5126 89.179 44.5126 88.7617V82.7085C44.5126 82.2912 44.1734 81.9518 43.7563 81.9518Z" fill="#3F3D56"/>
<path d="M43.7563 100.112C43.3392 100.112 43 100.451 43 100.868V112.596C43 113.014 43.3392 113.353 43.7563 113.353C44.1734 113.353 44.5126 113.014 44.5126 112.596V100.868C44.5126 100.451 44.1734 100.112 43.7563 100.112Z" fill="#3F3D56"/>
<path d="M43.7563 116.758C43.3392 116.758 43 117.097 43 117.515V129.243C43 129.66 43.3392 129.999 43.7563 129.999C44.1734 129.999 44.5126 129.66 44.5126 129.243V117.515C44.5126 117.097 44.1734 116.758 43.7563 116.758Z" fill="#3F3D56"/>
<path d="M71.4085 40.525H56.9448C56.8663 40.525 56.8026 40.5887 56.8026 40.6672V42.2744C56.8026 42.353 56.8663 42.4167 56.9448 42.4167H71.4085C71.487 42.4167 71.5506 42.353 71.5506 42.2744V40.6672C71.5506 40.5887 71.487 40.525 71.4085 40.525Z" fill="#E6E6E6"/>
<path d="M135.587 42.4166C136.423 42.4166 137.1 41.7391 137.1 40.9033C137.1 40.0675 136.423 39.39 135.587 39.39C134.752 39.39 134.075 40.0675 134.075 40.9033C134.075 41.7391 134.752 42.4166 135.587 42.4166Z" fill="#E6E6E6"/>
<path d="M139.747 42.4166C140.583 42.4166 141.26 41.7391 141.26 40.9033C141.26 40.0675 140.583 39.39 139.747 39.39C138.912 39.39 138.234 40.0675 138.234 40.9033C138.234 41.7391 138.912 42.4166 139.747 42.4166Z" fill="#E6E6E6"/>
<path d="M143.907 42.4166C144.742 42.4166 145.419 41.7391 145.419 40.9033C145.419 40.0675 144.742 39.39 143.907 39.39C143.071 39.39 142.394 40.0675 142.394 40.9033C142.394 41.7391 143.071 42.4166 143.907 42.4166Z" fill="#E6E6E6"/>
<path d="M134.322 142.855H70.1685C69.1579 142.855 68.3356 142.033 68.3356 141.021C68.3356 140.01 69.1579 139.188 70.1685 139.188H134.322C135.333 139.188 136.155 140.01 136.155 141.021C136.155 142.033 135.333 142.855 134.322 142.855Z" fill="#E6E6E6"/>
<path d="M102.476 213.915C117.154 213.915 129.054 202.01 129.054 187.325C129.054 172.64 117.154 160.735 102.476 160.735C87.7969 160.735 75.8975 172.64 75.8975 187.325C75.8975 202.01 87.7969 213.915 102.476 213.915Z" fill="#FFD000"/>
<path d="M106.7 178.643C104.457 178.735 101.921 178.889 100.263 180.611C98.8226 182.107 98.507 184.327 99.9676 185.924C101.432 187.526 103.709 187.742 105.397 188.991C107.379 190.458 107.089 193.36 105.171 194.75C102.909 196.39 99.9883 195.625 97.9205 194.066C97.3906 193.666 96.8762 194.561 97.4001 194.956C99.2528 196.354 101.67 197.132 103.961 196.463C106.028 195.859 107.631 194.173 107.794 191.979C107.872 190.932 107.574 189.87 106.923 189.043C106.236 188.171 105.247 187.634 104.247 187.197C102.525 186.445 99.5606 185.472 100.061 183.023C100.668 180.055 104.279 179.774 106.7 179.675C107.361 179.647 107.364 178.616 106.7 178.643L106.7 178.643Z" fill="white"/>
<path d="M102.538 177.239L102.44 199.884C102.437 200.547 103.468 200.548 103.471 199.884L103.569 177.239C103.572 176.575 102.541 176.574 102.538 177.239Z" fill="white"/>
<path d="M243.291 6H112.252C107.445 6 103.536 9.91058 103.536 14.7197V104.558C103.536 109.367 107.445 113.278 112.252 113.278H243.291C248.098 113.278 252.007 109.367 252.007 104.558V14.7197C252.007 9.91058 248.098 6 243.291 6Z" fill="white"/>
<path d="M177.169 59.4169C185.268 59.4169 191.833 52.8487 191.833 44.7464C191.833 36.6441 185.268 30.0759 177.169 30.0759C169.07 30.0759 162.505 36.6441 162.505 44.7464C162.505 52.8487 169.07 59.4169 177.169 59.4169Z" fill="#FFD000"/>
<path d="M179.951 38.1998C178.136 38.2747 176.092 38.3898 174.719 39.7412C173.582 40.8607 173.184 42.6034 174.229 43.9214C175.33 45.3091 177.16 45.5725 178.596 46.4593C179.489 47.0105 180.08 47.8455 180.1 48.9186C180.118 49.9232 179.654 50.8618 178.879 51.4915C176.979 53.0363 174.386 52.3968 172.588 51.0458C172.234 50.7799 171.891 51.3767 172.241 51.6396C173.731 52.7585 175.648 53.4084 177.501 52.927C179.207 52.4838 180.581 51.1413 180.766 49.3473C180.961 47.4565 179.72 46.1691 178.111 45.4305C176.64 44.7554 174.06 44.0361 174.304 41.9387C174.613 39.2721 177.876 38.9731 179.951 38.8875C180.391 38.8693 180.394 38.1816 179.951 38.1998V38.1998Z" fill="white"/>
<path d="M176.796 36.9527L176.714 55.8218C176.712 56.2644 177.399 56.2649 177.401 55.8218L177.483 36.9527C177.485 36.5102 176.798 36.5096 176.796 36.9527Z" fill="white"/>
<path d="M243.291 6H112.252C107.445 6 103.536 9.91058 103.536 14.7197V104.558C103.536 109.367 107.445 113.278 112.252 113.278H243.291C248.098 113.278 252.007 109.367 252.007 104.558V14.7197C252.007 9.91058 248.098 6 243.291 6ZM251.09 104.558C251.09 108.863 247.594 112.361 243.291 112.361H112.252C107.949 112.361 104.453 108.863 104.453 104.558V14.7197C104.453 10.4149 107.949 6.9169 112.252 6.9169H243.291C247.594 6.9169 251.09 10.4149 251.09 14.7197V104.558Z" fill="#3F3D56"/>
<path d="M162.663 14.8711H149.805C149.159 14.8711 148.632 15.3983 148.632 16.0447C148.632 16.6957 149.159 17.223 149.805 17.223H162.663C163.309 17.223 163.836 16.6957 163.836 16.0447C163.836 15.3983 163.309 14.8711 162.663 14.8711Z" fill="#E6E6E6"/>
<path d="M184.201 14.8711H171.342C170.696 14.8711 170.169 15.3983 170.169 16.0447C170.169 16.6957 170.696 17.223 171.342 17.223H184.201C184.847 17.223 185.374 16.6957 185.374 16.0447C185.374 15.3983 184.847 14.8711 184.201 14.8711Z" fill="#E6E6E6"/>
<path d="M205.738 14.8711H192.88C192.234 14.8711 191.707 15.3983 191.707 16.0447C191.707 16.6957 192.234 17.223 192.88 17.223H205.738C206.384 17.223 206.911 16.6957 206.911 16.0447C206.911 15.3983 206.384 14.8711 205.738 14.8711Z" fill="#E6E6E6"/>
<path d="M226.946 67.6691H128.598C124.506 67.6691 121.179 70.9974 121.179 75.0914V81.794C121.179 85.888 124.506 89.2163 128.598 89.2163H226.946C231.038 89.2163 234.365 85.888 234.365 81.794V75.0914C234.365 70.9974 231.038 67.6691 226.946 67.6691Z" fill="#FFD000"/>
<path d="M76.5338 102.959L72.7625 101.172C74.3093 103.331 75.6422 106.704 76.3558 109.388C77.5639 106.888 79.5115 103.829 81.4394 102.002L77.4535 103.028C79.9096 90.9849 89.1475 82.3395 99.7261 82.3395V81.4226C88.6764 81.4226 79.0415 90.4301 76.5338 102.959Z" fill="#3F3D56"/>
<path d="M93.8917 121.308H70.0631C69.0524 121.308 68.2301 120.485 68.2301 119.474C68.2301 118.463 69.0524 117.64 70.0631 117.64H93.8917C94.9023 117.64 95.7246 118.463 95.7246 119.474C95.7246 120.485 94.9023 121.308 93.8917 121.308Z" fill="#E6E6E6"/>
<path d="M252.407 115.335L252.166 134.058L247.51 150.748L243.788 149.359L245.44 134.061L245.223 113.358L252.407 115.335Z" fill="#FFB6B6"/>
<path d="M247.494 153.439C247.931 151.04 247.13 148.884 245.706 148.624C244.282 148.365 242.773 150.1 242.336 152.5C241.9 154.9 242.7 157.056 244.124 157.315C245.549 157.575 247.057 155.839 247.494 153.439Z" fill="#FFB6B6"/>
<path d="M246.756 93.0423C246.756 93.0423 254.733 93.1521 254.726 97.3914C254.723 99.7849 254.209 121.517 252.779 134.718C251.676 144.899 249.571 147.555 249.571 147.555L244.531 136.094L246.756 93.0423Z" fill="#E6E6E6"/>
<path d="M246.551 131.294H219.612C221.87 126.253 223.259 121.453 221.089 117.634L246.551 116.157C245.279 121.312 245.123 126.371 246.551 131.294Z" fill="#FFB6B6"/>
<path d="M243.23 86.6216L232.528 85.8832L228.1 91.4211L225.855 91.8295C222.49 92.4416 220.094 95.4461 220.244 98.8648L221.117 118.722L246.696 120.588L252.825 94.7299L245.444 91.7903L243.23 86.6216V86.6216Z" fill="#E6E6E6"/>
<path d="M177.966 92.6116C178.726 93.295 179.268 94.0932 179.554 94.8675L187.198 100.92L184.213 104.475L176.78 97.9523C175.98 97.7491 175.13 97.294 174.37 96.6106C172.636 95.0495 172.035 92.8888 173.028 91.7844C174.021 90.6801 176.232 91.0505 177.966 92.6116L177.966 92.6116Z" fill="#FFB6B6"/>
<path d="M232.01 97.7072V97.7072L202.721 117.494L181.726 102.876L184.878 97.1642L201.402 106.772L216.641 95.0655C222.067 89.966 228.868 90.9545 232.01 97.7072H232.01Z" fill="#E6E6E6"/>
<path d="M237.245 84.2249C241.629 84.2249 245.184 80.6687 245.184 76.2818C245.184 71.8949 241.629 68.3387 237.245 68.3387C232.86 68.3387 229.305 71.8949 229.305 76.2818C229.305 80.6687 232.86 84.2249 237.245 84.2249Z" fill="#FFB6B6"/>
<path d="M248.036 74.3303V75.8708L239.082 73.3493L232.369 74.7567C232.291 73.7344 231.989 72.7303 231.484 71.8409C231.835 73.2674 231.874 74.371 231.503 74.9401L230.6 75.128C230.453 74.7292 230.169 74.3808 229.798 74.1699C229.761 74.147 229.716 74.1286 229.674 74.1424C229.61 74.1653 229.606 74.2478 229.606 74.312C229.615 74.6513 229.624 74.9905 229.638 75.3298L227.044 75.8708V74.3303C224.556 68.729 231.114 63.8821 237.542 63.8318C240.443 63.8091 243.064 65.0054 244.966 66.9034C246.863 68.806 248.036 71.4284 248.036 74.3303Z" fill="#2F2E41"/>
<path d="M253.073 92.3926L252.397 92.3366C252.445 92.1153 252.493 91.8969 252.537 91.6757C252.912 89.8192 252.087 87.4558 252.027 85.6721C251.708 87.5566 252.253 89.8752 251.69 91.6645C251.627 91.8633 249.18 93.1463 249.113 93.3423C246.405 92.3516 243.585 89.186 240.392 91.035C238.503 92.1285 236.349 91.6492 234.204 91.1485C233.674 91.0245 233.6 88.4024 233.075 88.2994C232.134 88.1149 230.752 90.4985 229.867 90.5916L233.533 76.3796C233.533 68.6483 232.817 60.5367 242.606 63.2705C245.068 63.958 247.505 64.497 249.322 66.5299C251.139 68.5657 252.433 71.4107 252.891 74.6505C253.168 76.605 254.893 83.2415 253.073 92.3926Z" fill="#2F2E41"/>
<path d="M246.752 235.309L242.382 235.412L239.946 215.77L246.395 215.617L246.752 235.309Z" fill="#FFB7B7"/>
<path d="M231.759 244.43C231.759 245.169 232.283 245.768 232.929 245.768H241.603C241.603 245.768 242.457 242.335 245.937 240.857L246.177 245.768H250.652L250.11 237.872C250.11 237.872 251.307 233.648 248.821 231.489C246.335 229.33 248.348 229.63 248.348 229.63L247.371 224.744L240.609 225.539L240.559 233.21L237.278 240.824L232.465 243.203C232.036 243.414 231.759 243.897 231.759 244.43H231.759H231.759Z" fill="#2F2E41"/>
<path d="M233.457 232.108L229.256 233.317L221.918 214.936L228.117 213.151L233.457 232.108Z" fill="#FFB7B7"/>
<path d="M221.268 244.737C221.455 245.451 222.114 245.898 222.739 245.734L231.129 243.531C231.129 243.531 231.084 239.994 234.076 237.682L235.554 242.37L239.882 241.234L237.355 233.735C237.355 233.735 237.441 229.345 234.489 227.888C231.537 226.43 233.561 226.21 233.561 226.21L231.375 221.731L225.037 224.218L226.934 231.65L225.691 239.848L221.639 243.371C221.279 243.684 221.133 244.221 221.268 244.737L221.268 244.737L221.268 244.737Z" fill="#2F2E41"/>
<path d="M244.072 130.134L246.822 131.051C251.121 138.994 252.943 149.542 252.702 162.261L247.818 219.39H239.828L233.98 155.747L223.67 179.634L231.213 219.39L223.67 220.159L208.476 178.82L219.057 130.773L244.072 130.134Z" fill="#2F2E41"/>
</g>
<defs>
<clipPath id="clip0_618_3239">
<rect width="250" height="240" fill="white" transform="translate(43 6)"/>
</clipPath>
</defs>
</svg>
