<svg width="338" height="247" viewBox="0 0 338 247" fill="none" xmlns="http://www.w3.org/2000/svg">
<rect width="338" height="246" rx="16" fill="white"/>
<g clip-path="url(#clip0_618_3537)">
<rect y="35" width="338" height="211.24" rx="16" fill="white"/>
<path d="M0 245.543C0 245.869 0.261277 246.13 0.586638 246.13H337.413C337.739 246.13 338 245.869 338 245.543C338 245.218 337.739 244.957 337.413 244.957H0.586638C0.261277 244.957 0 245.218 0 245.543Z" fill="#3F3D56"/>
<path d="M139.749 245.982H34.4653C30.2608 245.982 26.8402 242.561 26.8402 238.357V42.6251C26.8402 38.4205 30.2608 35 34.4653 35H139.749C143.954 35 147.374 38.4205 147.374 42.6251V238.357C147.374 242.561 143.954 245.982 139.749 245.982ZM34.4653 35.9859C30.8045 35.9859 27.8261 38.9643 27.8261 42.6251V238.357C27.8261 242.018 30.8045 244.996 34.4653 244.996H139.749C143.41 244.996 146.388 242.018 146.388 238.357V42.6251C146.388 38.9643 143.41 35.9859 139.749 35.9859H34.4653Z" fill="#3F3D56"/>
<path d="M328.567 134.53C328.151 133.828 326.35 134.579 326.019 133.942C325.689 133.308 327.362 132.341 328.318 130.132C328.49 129.734 329.576 127.223 328.772 126.449C327.248 124.981 320.274 131.039 317.833 129.057C317.298 128.622 316.924 127.753 315.303 126.343C314.658 125.782 314.268 125.528 313.89 125.623C313.355 125.756 313.312 126.473 312.738 127.882C311.877 129.996 311.368 129.868 310.866 131.554C310.493 132.806 310.578 133.534 310.14 133.675C309.52 133.876 308.949 132.548 308.163 132.667C307.361 132.789 306.876 134.334 306.723 135.492C306.435 137.664 307.233 139.097 307.675 140.604C308.155 142.242 308.44 144.732 307.331 148.258L296.349 179.199C298.774 172.85 305.794 155.446 308.743 148.978C309.595 147.111 310.535 145.218 312.466 144.47C314.324 143.751 316.877 144.18 320.131 143.396C320.511 143.305 321.566 143.036 321.698 142.416C321.808 141.903 321.188 141.617 321.283 141.137C321.411 140.492 322.631 140.484 324.13 139.741C325.187 139.217 325.846 138.594 326.412 138.058C326.583 137.896 329.121 135.464 328.567 134.53H328.567V134.53Z" fill="#F2F2F2"/>
<path d="M285.362 150.818C284.898 150.82 284.747 151.92 284.339 151.899C283.932 151.878 283.94 150.778 283.132 149.671C282.986 149.472 282.068 148.214 281.456 148.386C280.295 148.71 281.257 153.881 279.579 154.507C279.211 154.644 278.677 154.577 277.517 154.966C277.056 155.121 276.819 155.239 276.756 155.451C276.667 155.753 277.007 155.98 277.533 156.669C278.321 157.701 278.112 157.915 278.795 158.647C279.302 159.191 279.683 159.359 279.626 159.616C279.546 159.978 278.73 159.875 278.561 160.295C278.389 160.724 279.008 161.408 279.532 161.817C280.515 162.585 281.448 162.607 282.316 162.825C283.258 163.061 284.563 163.64 285.973 165.202L297.991 179.519C295.574 176.497 289.057 168.03 286.734 164.716C286.064 163.76 285.405 162.752 285.596 161.589C285.779 160.469 286.726 159.34 287.28 157.517C287.345 157.304 287.518 156.709 287.251 156.465C287.031 156.263 286.712 156.485 286.504 156.299C286.224 156.051 286.572 155.45 286.64 154.499C286.688 153.829 286.572 153.326 286.472 152.893C286.442 152.763 285.981 150.816 285.362 150.818V150.818H285.362Z" fill="#F2F2F2"/>
<path d="M294.63 152.898L294.35 150.4L294.478 150.211C295.069 149.335 295.371 148.479 295.375 147.668C295.375 147.538 295.369 147.409 295.363 147.278C295.339 146.757 295.309 146.109 295.647 145.354C295.836 144.933 296.368 143.958 297.168 144.079C297.383 144.109 297.546 144.208 297.67 144.324C297.688 144.295 297.706 144.266 297.726 144.234C297.975 143.854 298.173 143.691 298.363 143.535C298.509 143.414 298.659 143.29 298.896 142.995C299 142.866 299.08 142.753 299.149 142.658C299.355 142.369 299.626 142.025 300.102 142.032C300.611 142.056 300.878 142.477 301.055 142.755C301.37 143.252 301.513 143.611 301.608 143.848C301.642 143.935 301.681 144.033 301.701 144.063C301.865 144.304 303.199 144.079 303.701 143.997C304.83 143.808 305.806 143.646 306.209 144.357C306.497 144.866 306.283 145.54 305.553 146.412C305.326 146.683 305.084 146.889 304.869 147.051C305.047 147.157 305.206 147.32 305.271 147.576C305.423 148.181 304.902 148.788 303.724 149.382C303.432 149.53 303.038 149.728 302.486 149.823C302.226 149.868 301.992 149.879 301.792 149.885C301.787 150.001 301.76 150.126 301.69 150.255C301.483 150.635 301.052 150.816 300.403 150.773C299.689 150.735 299.101 150.599 298.582 150.48C298.129 150.376 297.739 150.288 297.433 150.308C296.864 150.354 296.426 150.809 295.913 151.399L294.63 152.898H294.63Z" fill="#F2F2F2"/>
<path d="M295.928 138.023L293.582 138.928L293.367 138.852C292.369 138.502 291.465 138.427 290.679 138.629C290.554 138.661 290.431 138.7 290.305 138.739C289.807 138.895 289.188 139.088 288.372 138.953C287.917 138.877 286.839 138.609 286.753 137.805C286.727 137.589 286.782 137.406 286.862 137.258C286.83 137.247 286.797 137.237 286.762 137.225C286.331 137.081 286.123 136.931 285.923 136.787C285.77 136.677 285.611 136.562 285.267 136.408C285.115 136.341 284.985 136.291 284.876 136.249C284.544 136.122 284.143 135.948 284.028 135.486C283.923 134.987 284.262 134.623 284.487 134.381C284.888 133.95 285.198 133.721 285.404 133.569C285.479 133.513 285.564 133.451 285.588 133.424C285.78 133.204 285.223 131.971 285.016 131.506C284.548 130.462 284.143 129.559 284.729 128.989C285.148 128.581 285.854 128.617 286.883 129.102C287.203 129.253 287.464 129.435 287.675 129.602C287.732 129.403 287.849 129.207 288.08 129.08C288.628 128.779 289.347 129.129 290.219 130.118C290.437 130.363 290.729 130.694 290.961 131.204C291.07 131.444 291.14 131.667 291.196 131.86C291.309 131.834 291.438 131.829 291.58 131.864C292 131.968 292.285 132.339 292.407 132.978C292.552 133.678 292.57 134.281 292.586 134.813C292.6 135.278 292.614 135.678 292.712 135.969C292.9 136.507 293.451 136.815 294.152 137.162L295.928 138.023L295.928 138.023H295.928V138.023Z" fill="#F2F2F2"/>
<path d="M294.63 130.663L294.35 128.165L294.478 127.975C295.069 127.099 295.371 126.244 295.375 125.432C295.375 125.303 295.369 125.174 295.363 125.043C295.339 124.521 295.309 123.874 295.647 123.118C295.836 122.697 296.368 121.723 297.168 121.843C297.383 121.873 297.546 121.972 297.67 122.088C297.688 122.059 297.706 122.03 297.726 121.999C297.975 121.619 298.173 121.456 298.363 121.299C298.509 121.179 298.659 121.054 298.896 120.76C299 120.631 299.08 120.518 299.149 120.422C299.355 120.134 299.626 119.79 300.102 119.796C300.611 119.82 300.878 120.241 301.055 120.52C301.37 121.017 301.513 121.375 301.608 121.613C301.642 121.7 301.681 121.797 301.701 121.828C301.865 122.069 303.199 121.843 303.701 121.761C304.83 121.573 305.806 121.41 306.209 122.122C306.497 122.631 306.283 123.304 305.553 124.176C305.326 124.448 305.084 124.654 304.869 124.816C305.047 124.922 305.206 125.085 305.271 125.341C305.423 125.946 304.902 126.553 303.724 127.146C303.432 127.295 303.038 127.493 302.486 127.588C302.226 127.633 301.992 127.643 301.792 127.649C301.787 127.765 301.76 127.891 301.69 128.02C301.483 128.4 301.052 128.581 300.403 128.537C299.689 128.5 299.101 128.364 298.582 128.244C298.129 128.14 297.739 128.052 297.433 128.073C296.864 128.119 296.426 128.574 295.913 129.163L294.63 130.663H294.63Z" fill="#F2F2F2"/>
<path d="M297.186 179.158L296.662 178.83L296.536 178.226L296.662 178.83L296.052 178.9C296.042 178.843 296.009 178.713 295.959 178.509C295.686 177.392 294.853 173.992 294.158 168.639C293.673 164.901 293.399 161.059 293.342 157.217C293.285 153.369 293.467 150.455 293.613 148.114C293.724 146.348 293.858 144.666 293.989 143.028C294.339 138.651 294.669 134.517 294.423 129.94C294.369 128.919 294.255 126.792 293.013 124.529C292.292 123.216 291.299 122.051 290.061 121.066L290.831 120.099C292.197 121.187 293.295 122.478 294.096 123.935C295.474 126.444 295.598 128.762 295.657 129.875C295.907 134.533 295.574 138.707 295.22 143.126C295.09 144.758 294.956 146.432 294.846 148.191C294.701 150.511 294.521 153.399 294.577 157.198C294.633 160.994 294.904 164.789 295.382 168.479C296.069 173.766 296.89 177.115 297.159 178.215C297.303 178.802 297.333 178.925 297.186 179.158V179.158Z" fill="#F2F2F2"/>
<path d="M287.796 123.029C287.745 123.029 287.694 123.028 287.642 123.024C286.59 122.968 285.616 122.338 284.746 121.153C284.338 120.596 284.13 119.96 283.713 118.692C283.649 118.497 283.335 117.505 283.145 116.141C283.02 115.249 283.035 114.877 283.212 114.547C283.408 114.181 283.725 113.925 284.083 113.752C284.067 113.634 284.079 113.512 284.131 113.388C284.341 112.873 284.901 112.94 285.204 112.973C285.357 112.992 285.548 113.018 285.755 113.007C286.079 112.991 286.253 112.895 286.518 112.75C286.77 112.611 287.085 112.439 287.551 112.343C288.47 112.152 289.24 112.412 289.494 112.498C290.83 112.943 291.489 113.982 292.251 115.184C292.403 115.426 292.925 116.304 293.269 117.508C293.518 118.376 293.483 118.762 293.408 119.049C293.256 119.639 292.897 119.977 291.986 120.723C291.034 121.503 290.556 121.894 290.146 122.132C289.191 122.683 288.592 123.029 287.796 123.029V123.029H287.796Z" fill="#F2F2F2"/>
<path d="M147.668 122.008H26.5466V153.468H147.668V122.008Z" fill="#FFD000"/>
<path d="M103.624 35.493H72.1637V245.489H103.624V35.493Z" fill="#FFD000"/>
<path opacity="0.2" d="M104.787 151.1C105.009 150.233 105.142 149.333 105.174 148.404L144.522 112.57L110.702 96.0536L95.797 135.801C94.7782 135.535 93.7149 135.379 92.6127 135.379C92.0276 135.379 91.4563 135.433 90.8923 135.51L76.0962 96.0536L42.2766 112.57L80.0775 146.996C80.0531 147.316 80.0287 147.636 80.0287 147.963C80.0287 149.048 80.1806 150.095 80.4389 151.1C57.2679 158.341 47.7821 180.209 47.7821 180.209L76.8827 203.804C75.1471 186.448 85.7462 168.68 91.4762 160.489C91.8512 160.523 92.2291 160.547 92.6128 160.547C92.9965 160.547 93.3743 160.523 93.7493 160.489C99.4793 168.68 110.078 186.448 108.343 203.804L137.443 180.209C137.443 180.209 127.958 158.341 104.787 151.1L104.787 151.1H104.787Z" fill="black"/>
<path d="M109.059 195.302C108.72 195.302 108.378 195.228 108.055 195.077C107.238 194.696 106.722 193.901 106.708 193.003C106.469 177.787 97.793 162.853 92.6423 155.306C92.2984 154.802 91.7043 154.501 91.053 154.501H91.0501C90.375 154.501 89.7809 154.802 89.437 155.306C84.2865 162.853 75.6104 177.787 75.3716 193.003C75.3574 193.901 74.8413 194.696 74.0244 195.077C73.1993 195.464 72.2476 195.347 71.5411 194.774L47.3534 175.162C46.4901 174.462 46.2366 173.235 46.751 172.245C49.196 167.537 58.6089 151.667 77.0822 145.141C77.9066 144.85 78.4073 144.029 78.2994 143.145C78.2395 142.651 78.2092 142.155 78.2092 141.671C78.2104 141.093 77.9897 140.568 77.6036 140.217L42.83 108.548C42.2533 108.023 41.975 107.248 42.0853 106.476C42.1958 105.704 42.6803 105.038 43.3812 104.696L72.3335 90.5568C72.9273 90.2665 73.6203 90.2408 74.2352 90.4849C74.8497 90.7294 75.3352 91.225 75.5675 91.8441L88.9917 127.642C89.2687 128.381 89.9793 128.863 90.7859 128.843C91.3941 128.829 92.011 128.864 92.626 128.944C93.4939 129.06 94.313 128.571 94.6168 127.759L108.085 91.8441C108.317 91.225 108.803 90.7294 109.417 90.4849C110.032 90.241 110.725 90.2668 111.319 90.5568L140.271 104.696C140.972 105.038 141.457 105.704 141.567 106.477C141.677 107.248 141.399 108.023 140.822 108.548L104.391 141.727C104.051 142.036 103.84 142.458 103.796 142.915C103.786 143.014 103.776 143.113 103.764 143.211C103.664 144.042 104.18 144.853 104.991 145.139C123.469 151.664 132.883 167.536 135.329 172.245C135.843 173.235 135.59 174.462 134.726 175.162L110.538 194.774C110.108 195.123 109.587 195.302 109.059 195.302H109.059H109.059Z" fill="#FFD000"/>
<path d="M313.346 246.175H211.767C207.563 246.175 204.142 242.754 204.142 238.55V186.866C204.142 182.662 207.563 179.241 211.767 179.241H313.346C317.55 179.241 320.971 182.662 320.971 186.866V238.55C320.971 242.754 317.55 246.175 313.346 246.175ZM211.767 180.227C208.106 180.227 205.128 183.205 205.128 186.866V238.55C205.128 242.211 208.106 245.189 211.767 245.189H313.346C317.006 245.189 319.985 242.211 319.985 238.55V186.866C319.985 183.205 317.006 180.227 313.346 180.227H211.767Z" fill="#3F3D56"/>
<path d="M272.752 179.3H255.397V246.116H272.752V179.3Z" fill="#FFD000"/>
<path d="M320.478 204.464H204.635V221.819H320.478V204.464Z" fill="#FFD000"/>
<path opacity="0.2" d="M259.169 223.939C259.647 224.062 260.144 224.136 260.656 224.153L280.423 245.859L289.535 227.203L267.608 218.98C267.755 218.418 267.841 217.832 267.841 217.224C267.841 216.901 267.811 216.586 267.769 216.275L289.535 208.113L280.423 189.456L261.433 210.309C261.256 210.295 261.079 210.282 260.899 210.282C260.301 210.282 259.723 210.366 259.169 210.508C255.174 197.726 243.111 192.493 243.111 192.493L230.095 208.546C239.669 207.589 249.471 213.436 253.989 216.597C253.97 216.804 253.957 217.012 253.957 217.224C253.957 217.435 253.97 217.644 253.989 217.851C249.471 221.012 239.669 226.859 230.095 225.901L243.111 241.954C243.111 241.954 255.174 236.722 259.169 223.939L259.169 223.939V223.939Z" fill="black"/>
<path d="M281.136 242.875C280.743 242.875 280.365 242.71 280.096 242.415L261.792 222.316C261.641 222.15 261.422 222.046 261.173 222.02L261.094 222.012C260.647 221.963 260.239 222.204 260.099 222.602C256.487 232.845 247.691 238.058 245.081 239.411C244.493 239.718 243.763 239.563 243.344 239.046L232.524 225.701C232.181 225.279 232.112 224.709 232.343 224.214C232.571 223.726 233.045 223.418 233.58 223.41C241.945 223.281 250.164 218.507 254.319 215.672C254.568 215.501 254.718 215.207 254.717 214.884C254.718 214.547 254.569 214.253 254.319 214.082C250.165 211.248 241.947 206.473 233.58 206.344C233.045 206.336 232.571 206.028 232.343 205.54C232.112 205.046 232.181 204.476 232.524 204.053L243.344 190.708C243.764 190.192 244.494 190.038 245.081 190.342C247.69 191.696 256.484 196.909 260.098 207.149C260.238 207.545 260.638 207.793 261.041 207.744C261.479 207.689 261.915 207.676 262.337 207.708L280.096 188.207C280.411 187.862 280.874 187.695 281.336 187.762C281.798 187.828 282.196 188.118 282.401 188.538L290.202 204.51C290.376 204.866 290.391 205.281 290.245 205.649C290.098 206.016 289.802 206.306 289.431 206.445L269.683 213.851C269.32 213.987 269.082 214.342 269.092 214.734L269.094 214.877C269.094 215.184 269.072 215.497 269.03 215.806C268.976 216.203 269.224 216.599 269.62 216.748L289.432 224.177C289.802 224.316 290.098 224.607 290.245 224.974C290.391 225.342 290.375 225.757 290.202 226.112L282.401 242.085C282.196 242.504 281.798 242.794 281.336 242.86C281.269 242.87 281.203 242.875 281.136 242.875Z" fill="#FFD000"/>
<path d="M189.139 119.634H173.253V114.403C173.253 105.635 180.372 98.5168 189.139 98.5168H189.139V119.634V119.634Z" fill="#333333"/>
<path d="M185.618 109.869L188.35 122.154L172.344 119.496L178.866 107.878L185.618 109.869Z" fill="#FFB6B6"/>
<path opacity="0.1" d="M185.618 109.869L188.35 122.154L172.344 119.496L178.866 107.878L185.618 109.869Z" fill="black"/>
<path d="M185.618 136.113H170.273V158.824H185.618V136.113Z" fill="#FFB6B6"/>
<path d="M195.593 177.392L192.217 195.499C192.217 195.499 194.365 208.082 187.92 220.972L183.623 234.169L177.178 233.248C177.178 233.248 181.168 223.427 181.168 219.131C181.168 214.834 182.089 198.261 182.089 198.261L181.628 179.35L195.593 177.392V177.392Z" fill="#FFB6B6"/>
<path d="M176.258 232.941C176.258 232.941 183.623 230.179 184.237 234.169L183.93 236.01C183.93 236.01 186.692 244.297 182.703 244.911C178.713 245.524 175.03 246.445 174.723 244.604C174.416 242.762 174.421 240.464 175.186 238.851C175.951 237.238 176.258 232.941 176.258 232.941Z" fill="#333333"/>
<path d="M172.36 174.583L170.567 192.915C170.567 192.915 165.004 204.404 167.61 218.578L168.067 232.449L174.513 233.357C174.513 233.357 173.412 222.814 174.607 218.687C175.802 214.56 179.527 198.384 179.527 198.384L185.228 180.348L172.36 174.583V174.583Z" fill="#FFB6B6"/>
<path d="M175.483 233.318C175.483 233.318 169.176 228.617 167.477 232.278L167.26 234.132C167.26 234.132 162.389 243.297 166.051 244.996C169.713 246.695 172.907 246.631 173.714 244.947C174.521 243.264 175.155 241.055 174.869 239.293C174.583 237.531 175.483 233.318 175.483 233.318L175.483 233.318Z" fill="#333333"/>
<path d="M191.603 148.236L204.8 176.164C204.8 176.164 178.252 189.514 162.6 189.514L170.372 148.236H191.603L191.603 148.236V148.236Z" fill="#333333"/>
<path d="M179.787 115.55L187.46 116.778L186.846 136.113L195.439 153.3L184.391 158.824C184.391 158.824 175.797 142.558 174.263 132.43C172.728 122.302 173.649 114.936 173.649 114.936L179.787 115.55L179.787 115.55Z" fill="#E6E6E6"/>
<path d="M173.956 116.164L166.283 117.392L166.897 136.727L165.056 154.527L169.352 159.438C169.352 159.438 177.946 143.172 179.48 133.044C181.015 122.916 180.094 115.55 180.094 115.55L173.956 116.164L173.956 116.164V116.164Z" fill="#E6E6E6"/>
<path d="M185.772 117.238L187.46 116.778C187.46 116.778 193.444 116.011 194.365 118.466C195.286 120.921 194.979 135.346 194.979 135.346C194.979 135.346 196.562 153.049 190.4 153.251C184.237 153.453 185.465 138.722 185.465 138.722L185.772 117.238Z" fill="#E6E6E6"/>
<path d="M182.94 113.24C187.327 113.24 190.883 109.684 190.883 105.297C190.883 100.911 187.327 97.3544 182.94 97.3544C178.553 97.3544 174.997 100.911 174.997 105.297C174.997 109.684 178.553 113.24 182.94 113.24Z" fill="#FFB6B6"/>
<path d="M180.455 116.229C182.159 115.797 184.091 117.617 184.771 120.295C185.057 121.361 185.084 122.481 184.848 123.559L185.581 126.604L185.635 126.601L191.41 140.212C192.753 143.377 192.611 147.01 190.898 149.99C189.879 151.764 188.542 152.956 186.971 151.739C184.365 149.72 182.663 138.159 181.886 131.517L180.089 124.767C179.368 123.931 178.857 122.934 178.601 121.86C177.921 119.182 178.751 116.661 180.455 116.229H180.455V116.229Z" fill="#FFB6B6"/>
<path d="M173.035 117.238L171.347 116.778C171.347 116.778 165.362 116.011 164.442 118.466C163.521 120.921 163.828 135.346 163.828 135.346C163.828 135.346 162.244 153.049 168.407 153.251C174.57 153.453 173.342 138.722 173.342 138.722L173.035 117.238Z" fill="#E6E6E6"/>
<path d="M178.352 116.229C176.648 115.797 174.716 117.617 174.036 120.295C173.75 121.361 173.723 122.481 173.958 123.559L173.226 126.604L173.172 126.601L167.397 140.212C166.054 143.377 166.196 147.01 167.909 149.99C168.928 151.764 170.265 152.956 171.835 151.739C174.441 149.72 176.143 138.159 176.921 131.517L178.718 124.767C179.439 123.931 179.949 122.934 180.206 121.86C180.886 119.182 180.056 116.661 178.352 116.229H178.352V116.229Z" fill="#FFB6B6"/>
<path d="M167.733 111.723C168.137 110.495 168.935 109.419 169.292 108.176C169.765 106.526 170.774 110.187 170.873 108.473C171.06 105.215 176.033 96.8333 178.872 95.2234C181.711 93.6134 183.341 94.0988 186.233 95.6108C186.233 95.6108 187.637 95.7001 189.385 96.563C191.133 97.426 192.706 98.808 193.386 100.635C193.925 102.083 193.866 103.673 194.046 105.208C194.547 109.483 196.944 113.549 196.429 117.822C196.269 119.156 195.762 120.535 194.672 121.319C193.582 122.103 191.82 122.018 191.103 120.883C190.858 120.495 190.754 120.036 190.544 119.628C190.335 119.221 189.955 118.841 189.497 118.854C188.809 118.873 188.458 119.797 188.73 120.43C189.001 121.063 189.639 121.445 190.238 121.785C188.812 122.427 187.042 122.227 185.794 121.283C184.546 120.339 183.872 118.69 184.102 117.143C184.426 114.962 187.603 115.413 187.977 113.24C188.249 111.659 189.206 109.012 188.946 107.428C188.685 105.845 187.433 107.762 188.752 106.847C187.301 107.547 184.198 102.762 182.68 102.227C181.161 101.691 179.873 100.53 179.183 99.0755C177.572 101.411 176.155 100.776 175.578 103.554C175.001 106.331 175.535 112.641 177.91 114.192C176.959 114.84 176.202 115.768 175.756 116.829C175.503 117.43 175.339 118.087 174.92 118.586C174.119 119.54 172.64 119.598 171.461 119.197C169.999 118.7 168.749 117.608 168.06 116.227C167.371 114.845 167.251 113.19 167.733 111.723L167.733 111.723L167.733 111.723Z" fill="#333333"/>
</g>
<defs>
<clipPath id="clip0_618_3537">
<rect y="35" width="338" height="211.24" rx="16" fill="white"/>
</clipPath>
</defs>
</svg>
