<svg width="338" height="246" viewBox="0 0 338 246" fill="none" xmlns="http://www.w3.org/2000/svg">
<rect width="338" height="246" rx="16" fill="white"/>
<g clip-path="url(#clip0_618_3741)">
<path opacity="0.1" d="M169 245.825C260.127 245.825 334 222.777 334 194.347C334 165.917 260.127 142.87 169 142.87C77.873 142.87 4 165.917 4 194.347C4 222.777 77.873 245.825 169 245.825Z" fill="#FFD000"/>
<g opacity="0.8">
<path d="M123.911 80.481C126.709 84.4036 128.855 95.8274 129.453 99.2698L134.453 99.1678C134.194 96.2103 128.377 84.1811 126.76 80.8805C125.861 80.7394 124.9 80.6016 123.911 80.481Z" fill="#65617D"/>
<path d="M61.5075 77.9288L61.4486 81.0486L63.6633 81.0904L63.7222 77.9706L61.5075 77.9288Z" fill="#DCE0ED"/>
<path opacity="0.1" d="M61.5075 77.9288L61.4883 78.9446C61.644 78.9923 61.8057 79.0172 61.9684 79.0187L63.7021 79.0367L63.7223 77.9707L61.5075 77.9288Z" fill="#333333"/>
<path d="M64.8075 70.0399L62.7164 70.0004C62.217 69.9911 61.7262 70.131 61.3067 70.4022C60.8873 70.6734 60.5583 71.0635 60.3619 71.5228C59.7209 73.0187 59.1574 75.406 60.4746 77.8224C60.6218 78.0924 60.8383 78.3182 61.1018 78.4766C61.3653 78.635 61.6663 78.7203 61.9738 78.7236L64.643 78.7511L64.8075 70.0399Z" fill="#DCE0ED"/>
<path d="M66.9645 74.4378C67.01 72.0323 66.0442 70.0633 64.8075 70.0399C63.5707 70.0166 62.5313 71.9477 62.4859 74.3533C62.4405 76.7588 63.4062 78.7278 64.6429 78.7512C65.8797 78.7745 66.9191 76.8434 66.9645 74.4378Z" fill="#F0F0F4"/>
<path d="M81.1809 78.3373L81.1293 81.0688L83.344 81.1106L83.3956 78.3791L81.1809 78.3373Z" fill="#DCE0ED"/>
<path opacity="0.1" d="M81.1809 78.3373L81.1645 79.2055C81.3201 79.2531 81.4818 79.2781 81.6446 79.2795L83.3783 79.2975L83.3956 78.3791L81.1809 78.3373Z" fill="#333333"/>
<path d="M84.4808 70.4484L82.3897 70.4089C81.8903 70.3996 81.3995 70.5395 80.9801 70.8107C80.5606 71.0819 80.2316 71.4721 80.0352 71.9313C79.3943 73.4272 78.8307 75.8145 80.148 78.2309C80.2951 78.5009 80.5116 78.7267 80.7751 78.8851C81.0387 79.0435 81.3397 79.1288 81.6471 79.1321L84.3163 79.1596L84.4808 70.4484Z" fill="#DCE0ED"/>
<path d="M86.6375 74.8463C86.6829 72.4408 85.7172 70.4718 84.4804 70.4484C83.2437 70.4251 82.2043 72.3562 82.1588 74.7617C82.1134 77.1673 83.0792 79.1363 84.3159 79.1596C85.5527 79.183 86.5921 77.2518 86.6375 74.8463Z" fill="#F0F0F4"/>
<path d="M83.8919 72.03C83.8919 72.03 84.7155 72.1777 84.2653 73.26C84.0274 73.7856 83.8507 74.3367 83.7385 74.9027C83.7385 74.9027 82.9044 75.3166 82.9643 73.8965C83.0241 72.4763 83.8919 72.03 83.8919 72.03Z" fill="#DCE0ED"/>
<path d="M179.714 136.103C179.863 128.193 174.134 121.67 166.917 121.534C159.701 121.398 153.73 127.7 153.58 135.609C153.431 143.519 159.16 150.042 166.376 150.178C173.593 150.314 179.564 144.013 179.714 136.103Z" fill="#636780"/>
<path opacity="0.1" d="M162.004 122.335C168.834 122.924 174.133 129.249 173.989 136.86C173.873 142.995 170.255 148.161 165.27 150.108C158.441 149.519 153.142 143.193 153.286 135.583C153.401 129.448 157.02 124.282 162.004 122.335Z" fill="#333333"/>
<path d="M75.5735 102.824C75.7178 95.1856 71.0862 88.9042 65.2287 88.7935C59.3711 88.6829 54.5057 94.785 54.3615 102.423C54.2172 110.061 58.8488 116.342 64.7063 116.453C70.5638 116.564 75.4293 110.461 75.5735 102.824Z" fill="#636780"/>
<path opacity="0.1" d="M68.1821 89.4288C72.549 91.1976 75.6606 96.5606 75.542 102.842C75.4152 109.554 71.6418 115.08 66.7534 116.245C62.3865 114.477 59.2749 109.114 59.3935 102.832C59.5203 96.1198 63.2937 90.5944 68.1821 89.4288Z" fill="#333333"/>
<path d="M104.864 100.423L104.761 95.399C104.761 95.399 105.787 93.252 106.775 93.0738C107.763 92.8955 110.029 92.8152 110.029 92.8152C110.029 92.8152 111.665 100.059 110.443 102.202C109.22 104.345 104.864 100.423 104.864 100.423Z" fill="#65617D"/>
<path opacity="0.1" d="M104.864 100.423L104.761 95.399C104.761 95.399 105.787 93.252 106.775 93.0738C107.763 92.8955 110.029 92.8152 110.029 92.8152C110.029 92.8152 111.665 100.059 110.443 102.202C109.22 104.345 104.864 100.423 104.864 100.423Z" fill="#333333"/>
<path d="M123.034 100.224C123.034 100.224 123.776 93.275 119.952 93.0775C119.46 93.0521 118.968 93.031 118.479 92.9742C115.832 92.6674 108.612 91.973 109.447 93.6412C109.447 93.6412 111.055 99.7273 109.845 101.231L123.034 100.224Z" fill="#65617D"/>
<path d="M68.5794 112.107L63.4458 112.158C63.4458 112.158 62.7384 102.692 62.457 101.948C62.1757 101.204 62.095 97.6579 63.0644 97.1593C64.0339 96.6606 67.2571 96.0938 67.2571 96.0938L69.5177 101.528L69.6102 106.403L68.5794 112.107Z" fill="#65617D"/>
<path opacity="0.1" d="M68.5794 112.107L63.4458 112.158C63.4458 112.158 62.7384 102.692 62.457 101.948C62.1757 101.204 62.095 97.6579 63.0644 97.1593C64.0339 96.6606 67.2571 96.0938 67.2571 96.0938L69.5177 101.528L69.6102 106.403L68.5794 112.107Z" fill="#333333"/>
<path d="M81.278 96.654L81.3208 95.6021C81.3242 95.5191 81.3105 95.4364 81.2806 95.3589C81.2507 95.2815 81.2053 95.211 81.1471 95.1518C81.0889 95.0926 81.0192 95.0459 80.9423 95.0148C80.8654 94.9836 80.7829 94.9685 80.6999 94.9704C78.1548 95.0297 68.8933 95.2982 67.2571 96.0938C67.2571 96.0938 68.78 109.305 66.7644 112.405L67.2294 122.975L89.9254 121.705L81.278 96.654Z" fill="#65617D"/>
<path opacity="0.1" d="M83.3641 80.0461C82.7363 79.9722 81.989 79.8901 81.1531 79.8094L81.1293 81.0688L83.344 81.1106L83.3641 80.0461Z" fill="#333333"/>
<path opacity="0.1" d="M61.4516 80.8891L61.4486 81.0486L63.6633 81.0904L63.6814 80.1322C62.9095 80.2907 62.1605 80.545 61.4516 80.8891Z" fill="#333333"/>
<path d="M49.748 112.084L53.0942 112.196L60.2476 99.7586L61.4417 97.6824L60.6561 92.3505L59.9513 93.6252L49.748 112.084Z" fill="#DCE0ED"/>
<path d="M80.3076 97.2013L81.6463 99.2945L85.8708 93.803L87.8043 91.2871L86.7008 89.7408L85.8142 90.7755L80.3076 97.2013Z" fill="#DCE0ED"/>
<path opacity="0.1" d="M85.8142 90.7755C85.8063 90.8817 85.7983 90.9908 85.7888 91.1014L85.8707 93.803L87.8044 91.2872L86.7007 89.7406L85.8142 90.7755Z" fill="#333333"/>
<path opacity="0.1" d="M59.9513 93.6252L60.2475 99.7586L61.4416 97.6824L60.656 92.3505L59.9513 93.6252Z" fill="#333333"/>
<path d="M89.6587 94.7691C89.6587 94.7691 91.5442 82.4563 85.5633 80.4971C85.4865 80.4724 85.4077 80.4547 85.3278 80.444C83.9465 80.2507 71.0681 78.5189 64.3332 80.1608C64.3332 80.1608 59.7431 80.7633 59.7459 83.2251L61.1958 113.334L64.4932 113.396L63.786 93.4927C63.786 93.4927 62.3747 84.8009 64.9943 84.2596C67.6139 83.7183 79.4935 82.958 83.6545 84.2182C83.6545 84.2182 86.7189 83.5868 86.0846 91.1075L86.2052 95.1469L89.6587 94.7691Z" fill="#DCE0ED"/>
<path d="M79.5494 98.246C79.5281 97.9198 79.5911 97.5935 79.7325 97.2986C79.8739 97.0038 80.0888 96.7504 80.3566 96.5627C81.2927 95.8788 84.1635 94.4191 84.1635 94.4191L85.0849 94.5104L87.7236 101.428L87.2637 116.005L82.1642 122.075L79.5494 98.246Z" fill="#65617D"/>
<path opacity="0.1" d="M79.5494 98.246C79.5281 97.9198 79.5911 97.5935 79.7325 97.2986C79.8739 97.0038 80.0888 96.7504 80.3566 96.5627C81.2927 95.8788 84.1635 94.4191 84.1635 94.4191L85.0849 94.5104L87.7236 101.428L87.2637 116.005L82.1642 122.075L79.5494 98.246Z" fill="#333333"/>
<path d="M99.144 113.903L99.3282 98.9396C99.3282 98.9396 99.8808 93.1405 96.413 92.9765C96.413 92.9765 88.2284 92.8816 84.6525 93.9686C84.5396 94.0026 84.4357 94.0614 84.3483 94.1405C84.2609 94.2197 84.1922 94.3173 84.1473 94.4264C84.1023 94.5354 84.0822 94.653 84.0884 94.7708C84.0946 94.8886 84.1269 95.0035 84.183 95.1072C84.8675 96.3527 85.9996 99.6365 86.4177 108.013L86.2483 116.983L99.144 113.903Z" fill="#65617D"/>
<path d="M81.7011 123.137L96.5964 123.071L96.6112 123.072L103.932 123.04L103.268 113.242L99.2044 113.314L86.2308 115.948L82.1641 122.075L81.7011 123.137Z" fill="#65617D"/>
<path opacity="0.1" d="M81.7011 123.137L96.5964 123.071L96.6112 123.072L103.932 123.04L103.268 113.242L99.2044 113.314L86.2308 115.948L82.1641 122.075L81.7011 123.137Z" fill="#333333"/>
<path d="M81.7011 123.137L96.5964 123.071L96.9652 116.521L86.2308 115.948L82.1641 122.075L81.7011 123.137Z" fill="#65617D"/>
<path opacity="0.1" d="M96.6111 123.072L103.932 123.04L103.267 113.242C103.267 113.242 100.91 116.854 96.9652 116.521L96.6111 123.072Z" fill="white"/>
<path d="M43.9448 129.994C44.1871 132.805 46.1887 132.399 46.1887 132.399L46.5615 132.372L50.256 132.107L50.1907 127.749C48.9404 127.653 47.6833 127.705 46.445 127.902C45.0562 128.163 43.837 128.745 43.9448 129.994Z" fill="#DCE0ED"/>
<path opacity="0.1" d="M43.9448 129.994C44.1871 132.805 46.1887 132.399 46.1887 132.399L46.5615 132.372C46.9732 131.751 47.1915 131.022 47.1889 130.277C47.2359 129.421 46.9717 128.578 46.445 127.902C45.0562 128.163 43.837 128.745 43.9448 129.994Z" fill="#333333"/>
<path d="M95.4219 102.435C95.336 106.988 97.9986 110.731 101.369 110.794C104.739 110.858 107.542 107.219 107.627 102.666C107.713 98.1129 105.051 94.3705 101.68 94.3069C98.3099 94.2432 95.5079 97.8824 95.4219 102.435ZM97.7249 103.02C97.7873 99.7178 99.9201 97.0799 102.489 97.1284C105.057 97.1769 107.089 99.8935 107.027 103.196C106.964 106.499 104.831 109.136 102.263 109.088C99.6942 109.039 97.6625 106.323 97.7249 103.02V103.02Z" fill="#636780"/>
<path d="M101.181 105.08L98.274 107.831L97.2878 105.301L101.468 102.968L101.181 105.08Z" fill="#636780"/>
<path d="M97.4979 77.2351L95.0069 77.4908L94.0643 78.5687L95.3434 84.8849L98.122 95.0747L99.9394 102.069L101.231 106.319L101.998 111.927L102.799 115.787L105.371 118.457L110.818 112.268L111.732 110.188L113.909 105.947L108.541 103.311L102.61 102.675L99.9501 95.4589L97.8356 87.1167L97.4979 77.2351Z" fill="#FFD000"/>
<path d="M147.206 108.164L149.939 135.491L109.073 132.996L114.051 119.699L122.022 114.729L104.003 114.684L104.046 107.201L111.36 105.764L126.048 104.86L137.082 104.576L147.549 108.22" fill="#65617D"/>
<path opacity="0.1" d="M147.206 108.164L149.939 135.491L109.073 132.996L114.051 119.699L122.022 114.729L104.003 114.684L104.046 107.201L111.36 105.764L126.048 104.86L137.082 104.576L147.549 108.22" fill="#333333"/>
<path d="M90.8171 134.282C90.6891 141.058 92.8236 147.268 99.0829 146.711C106.965 146.691 107.684 141.379 107.812 134.603C107.94 127.828 104.231 122.713 99.5378 122.625C94.8448 122.536 90.9451 127.507 90.8171 134.282Z" fill="#636780"/>
<path opacity="0.1" d="M90.7677 134.293C90.8668 129.047 93.2269 124.884 96.4654 123.312C100.57 124.174 103.647 128.971 103.53 135.153C103.426 140.706 102.922 145.274 98.4066 146.754C92.6315 146.853 90.6441 140.837 90.7677 134.293Z" fill="#333333"/>
<path d="M82.9912 123.497L85.3415 126.294L81.0313 125.47L77.8552 122.438L75.0813 116.618L71.0659 114.052L61.0814 115.218L51.8583 115.393L48.513 112.307L52.3184 111.862L56.1637 111.848L65.8211 111.812L77.3145 111.723L79.5546 118.057L81.2639 122.415L82.9912 123.497Z" fill="#FFD000"/>
<path d="M49.7267 134.091C49.9175 134.39 56.3467 135.497 56.3467 135.497L74.1005 139.081L104.705 140.102L108.355 137.118L110.236 137.489L110.312 137.504L135.431 142.455L135.843 142.404L142.731 141.555L178.709 137.118L178.406 131.901L178.227 128.823L177.855 122.431L177.542 120.75L174.352 120.397L172.862 120.232L149.614 117.655L146.575 117.319L144.871 117.13L128.278 114.552L104.004 114.685L104.046 107.201L95.0068 77.4907C92.8845 77.7947 92.9063 79.2234 92.9063 79.2234L100.55 107.184L100.327 124.264C83.3031 125.659 82.8253 121.947 80.1131 123.144L77.0609 112.699L48.5134 112.307C47.3549 113.663 49.7267 134.091 49.7267 134.091Z" fill="#65617D"/>
<path d="M120.841 119.925L111.418 139.195L108.347 140.121L107.669 136.958L111.269 126.243L114.881 120.059L120.841 119.925Z" fill="#65617D"/>
<path opacity="0.15" d="M120.841 119.925L111.418 139.195L108.347 140.121L107.669 136.958L111.269 126.243L114.881 120.059L120.841 119.925Z" fill="#333333"/>
<path d="M142.73 141.755C142.925 131.481 135.739 123.013 126.681 122.842C117.623 122.671 110.123 130.861 109.929 141.136C109.735 151.41 116.921 159.878 125.979 160.049C135.036 160.22 142.536 152.03 142.73 141.755Z" fill="#636780"/>
<path opacity="0.1" d="M120.81 123.892C129.381 124.652 136.027 132.863 135.84 142.749C135.69 150.718 131.144 157.432 124.886 159.965C116.314 159.205 109.669 150.993 109.855 141.107C110.006 133.139 114.552 126.425 120.81 123.892Z" fill="#333333"/>
<path d="M170.906 109.745L171.646 113.587L173.91 125.359L184.61 124.527C184.61 124.527 185.287 122.571 183.628 121.801C183.628 121.801 183.204 115.127 181.27 112.992C181.063 112.749 180.8 112.558 180.505 112.437L170.906 109.745Z" fill="#65617D"/>
<path opacity="0.1" d="M171.646 113.587L173.91 125.359L184.61 124.527C184.61 124.527 185.287 122.571 183.628 121.801C183.628 121.801 183.204 115.127 181.27 112.992L171.646 113.587Z" fill="white"/>
<path d="M146.82 110.324C145.399 112.61 148.342 133.985 148.342 133.985L174.657 130.148L174.074 111.478C173.596 108.121 171.635 107.691 171.635 107.691C162.47 102.84 141.228 101.454 141.228 101.454C121.823 101.826 104.046 107.201 104.046 107.201C126.159 104.222 146.82 110.324 146.82 110.324Z" fill="#65617D"/>
<path opacity="0.1" d="M148.342 133.985L174.657 130.148L174.074 111.478C173.596 108.121 171.635 107.691 171.635 107.691C171.635 107.691 152.524 105.507 146.82 110.324C145.399 112.61 148.342 133.985 148.342 133.985Z" fill="#333333"/>
<path d="M151.139 132.806L173.142 129.524L172.661 113.595C172.262 110.731 170.623 110.365 170.623 110.365C170.623 110.365 154.644 108.508 149.874 112.619C148.685 114.57 151.139 132.806 151.139 132.806Z" fill="#65617D"/>
<path opacity="0.1" d="M156.193 119.805C156.25 116.788 154.952 114.317 153.294 114.286C151.636 114.254 150.245 116.675 150.188 119.692C150.131 122.709 151.429 125.18 153.087 125.212C154.745 125.243 156.136 122.823 156.193 119.805Z" fill="#333333"/>
<path d="M156.195 119.658C156.252 116.641 154.954 114.169 153.296 114.138C151.638 114.107 150.248 116.527 150.191 119.544C150.134 122.561 151.432 125.033 153.09 125.064C154.748 125.095 156.138 122.675 156.195 119.658Z" fill="#DCE0ED"/>
<path d="M152.876 115.558C152.876 115.558 154.102 115.778 153.432 117.39C153.078 118.173 152.814 118.994 152.647 119.837C152.647 119.837 151.405 120.453 151.494 118.338C151.583 116.223 152.876 115.558 152.876 115.558Z" fill="#F0F0F4"/>
<path opacity="0.1" d="M172.13 117.94C172.183 115.121 170.971 112.812 169.421 112.782C167.872 112.753 166.573 115.015 166.52 117.834C166.466 120.653 167.679 122.963 169.228 122.992C170.778 123.021 172.077 120.759 172.13 117.94Z" fill="#333333"/>
<path d="M172.133 117.793C172.186 114.973 170.973 112.664 169.424 112.635C167.875 112.606 166.576 114.867 166.522 117.687C166.469 120.506 167.682 122.815 169.231 122.844C170.781 122.874 172.08 120.612 172.133 117.793Z" fill="#DCE0ED"/>
<path d="M169.01 113.696C169.01 113.696 170.237 113.916 169.566 115.529C169.212 116.311 168.949 117.132 168.782 117.975C168.782 117.975 167.539 118.592 167.628 116.477C167.718 114.361 169.01 113.696 169.01 113.696Z" fill="#F0F0F4"/>
<path opacity="0.1" d="M156.723 115.187C156.882 117.209 157.584 132.189 157.584 132.189L159.259 131.941L160.191 131.805L161.432 131.622L161.581 131.6L166.471 130.88L165.808 114.991C165.786 114.48 165.569 113.998 165.202 113.643C164.834 113.288 164.344 113.089 163.833 113.085C163.785 113.086 163.735 113.086 163.684 113.09C163.347 113.113 162.983 113.141 162.604 113.176C162.445 113.19 162.283 113.205 162.119 113.223C161.65 113.27 161.166 113.329 160.69 113.398C160.448 113.435 160.209 113.473 159.973 113.514C159.575 113.587 159.189 113.666 158.833 113.759C158.591 113.821 158.361 113.889 158.15 113.963C157.264 114.265 156.682 114.665 156.723 115.187Z" fill="#333333"/>
<path d="M163.833 113.085L164.45 130.94L164.993 130.902L164.383 113.166C164.204 113.114 164.02 113.087 163.833 113.085Z" fill="#65617D"/>
<path d="M162.119 113.223L162.672 131.251L163.509 131.267L162.604 113.176C162.445 113.19 162.283 113.205 162.119 113.223Z" fill="#65617D"/>
<path d="M159.973 113.514L161.041 131.615L161.582 131.625L161.581 131.6L160.69 113.398C160.448 113.435 160.209 113.473 159.973 113.514Z" fill="#65617D"/>
<path d="M158.15 113.963L159.259 131.941L159.261 131.975L160.198 131.894L160.191 131.805L158.833 113.759C158.591 113.821 158.361 113.889 158.15 113.963Z" fill="#65617D"/>
<path opacity="0.1" d="M177.905 128.241C177.905 128.241 179.89 118.936 175.765 118.378C171.64 117.82 158.038 118.56 158.371 122.407C158.705 126.253 159.038 132.094 159.038 132.094L161.855 131.519C161.855 131.519 159.917 122.694 163.208 122.424C166.5 122.154 174.564 121.383 174.564 121.383C174.564 121.383 176.749 121.055 175.348 128.746L177.905 128.241Z" fill="#333333"/>
<path d="M177.889 129.126C177.889 129.126 179.885 119.231 175.76 118.673C171.635 118.115 158.032 118.855 158.366 122.702C158.699 126.549 159.032 132.389 159.032 132.389L161.849 131.814C161.849 131.814 159.911 122.99 163.203 122.72C166.494 122.449 174.558 121.679 174.558 121.679C174.558 121.679 176.732 121.941 175.331 129.632L177.889 129.126Z" fill="#DCE0ED"/>
<path d="M104.705 140.102L108.347 140.121C111.226 128.458 115.745 121.257 115.745 121.257C117.236 120.497 133.376 120.901 133.376 120.901C135.045 121.228 135.388 126.551 135.388 126.551C135.388 126.551 133.937 127.754 135.299 128.569C135.908 128.932 137.933 129.036 140.269 128.961C143.171 128.865 146.554 128.489 148.308 127.977C151.478 127.052 149.002 125.184 149.002 125.184C149.002 125.184 148.57 124.585 148.336 121.331C148.169 119.431 147.591 117.59 146.641 115.936C146.509 115.707 146.426 115.583 146.426 115.583C146.263 115.423 146.069 115.296 145.857 115.212C141.717 113.391 121.235 114.664 121.235 114.664L113.611 116.934C113.399 117.014 113.066 117.542 112.651 118.388C110.159 123.48 104.705 140.102 104.705 140.102Z" fill="#65617D"/>
<path opacity="0.1" d="M104.705 140.102L108.347 140.121C111.226 128.458 115.745 121.257 115.745 121.257C117.236 120.497 133.376 120.901 133.376 120.901C135.045 121.228 135.388 126.551 135.388 126.551C135.388 126.551 133.937 127.754 135.299 128.569C135.908 128.932 137.933 129.036 140.269 128.961C143.171 128.865 146.554 128.489 148.308 127.977C151.478 127.052 149.002 125.184 149.002 125.184C149.002 125.184 148.57 124.585 148.336 121.331C148.169 119.431 147.591 117.59 146.641 115.936C146.509 115.707 146.426 115.583 146.426 115.583C146.263 115.423 146.069 115.296 145.857 115.212C141.717 113.391 121.235 114.664 121.235 114.664L113.611 116.934C113.399 117.014 113.066 117.542 112.651 118.388C110.159 123.48 104.705 140.102 104.705 140.102Z" fill="#333333"/>
<path d="M112.651 118.388C119.7 115.802 138.954 117.609 138.954 117.609C141.035 115.897 144.889 115.854 146.641 115.936C146.509 115.707 146.426 115.583 146.426 115.583C146.263 115.423 146.069 115.296 145.857 115.212C141.717 113.391 121.235 114.664 121.235 114.664L113.611 116.934C113.399 117.014 113.066 117.542 112.651 118.388Z" fill="#65617D"/>
<path d="M137.807 118.326C138.221 119.859 139.927 125.998 139.927 125.998C140.098 126.978 140.212 127.967 140.269 128.961C143.171 128.865 146.554 128.489 148.308 127.977C151.477 127.052 149.002 125.184 149.002 125.184C149.002 125.184 148.57 124.585 148.336 121.331C148.158 119.292 147.503 117.323 146.426 115.583C146.263 115.423 146.069 115.296 145.857 115.212C143.108 115.806 137.494 117.165 137.807 118.326Z" fill="#65617D"/>
<path opacity="0.1" d="M137.807 118.326C138.221 119.859 139.927 125.998 139.927 125.998C140.098 126.978 140.212 127.967 140.269 128.961C143.171 128.865 146.554 128.489 148.308 127.977C151.477 127.052 149.002 125.184 149.002 125.184C149.002 125.184 148.57 124.585 148.336 121.331C148.158 119.292 147.503 117.323 146.426 115.583C146.263 115.423 146.069 115.296 145.857 115.212C143.108 115.806 137.494 117.165 137.807 118.326Z" fill="white"/>
<path d="M95.0068 77.4907L104.046 107.201L141.739 101.747L136.759 83.8918C136.759 83.8918 135.987 79.8155 134.036 79.4832C134.036 79.4832 103.904 73.6708 95.0068 77.4907ZM99.2022 82.1486C97.9855 78.1377 115.893 80.1376 115.893 80.1376C118.304 79.9512 121.21 80.1538 123.911 80.481C124.9 80.6016 125.861 80.7394 126.76 80.8804C128.768 81.196 130.472 81.5325 131.491 81.7452C132.14 81.8801 132.512 81.9654 132.512 81.9654C136.072 83.1403 137.823 97.9435 137.823 97.9435C138.089 99.4993 136.25 99.1323 136.25 99.1323L136.13 99.1344L134.453 99.1678L129.453 99.2698L105.073 99.762C103.636 99.5871 103.447 97.885 103.447 97.885C102.695 96.6523 99.2022 82.1486 99.2022 82.1486H99.2022Z" fill="#65617D"/>
<path d="M136.13 99.1345L136.25 99.1323C136.25 99.1323 138.089 99.4994 137.823 97.9435C137.823 97.9435 136.072 83.1404 132.512 81.9654C132.512 81.9654 132.14 81.8801 131.491 81.7452C132.744 84.3064 136.751 93.0713 136.13 99.1345Z" fill="#65617D"/>
<path opacity="0.1" d="M136.13 99.1345L136.25 99.1323C136.25 99.1323 138.089 99.4994 137.823 97.9435C137.823 97.9435 136.072 83.1404 132.512 81.9654C132.512 81.9654 132.14 81.8801 131.491 81.7452C132.744 84.3064 136.751 93.0713 136.13 99.1345Z" fill="#333333"/>
<path opacity="0.1" d="M132.135 135.488C132.341 135.89 132.658 136.225 133.048 136.453C133.438 136.682 133.885 136.794 134.336 136.777L135.089 136.759L142.19 136.588L144.75 136.525L147.116 136.373L178.406 131.901L178.227 128.823L174.629 129.269L173.141 129.453L151.057 132.188L148.151 132.548L146.741 132.723L140.786 132.567L134.339 132.398C134.013 132.389 133.689 132.445 133.385 132.563C132.827 132.773 132.372 133.19 132.113 133.727C131.978 134.001 131.91 134.304 131.913 134.61C131.917 134.916 131.993 135.217 132.135 135.488Z" fill="#333333"/>
<path d="M132.129 135.783C132.336 136.185 132.652 136.52 133.042 136.748C133.432 136.977 133.879 137.089 134.331 137.073L144.744 136.82L147.11 136.669L180.478 131.899L183.101 131.525L184.53 131.32C187.347 130.782 186.563 127.961 186.563 127.961C186.391 126.677 181.589 125.405 180.014 125.425C178.955 125.438 178.777 127.067 178.774 128.134C178.773 128.657 178.813 129.045 178.813 129.045L177.253 129.238L146.736 133.018L134.334 132.694C133.874 132.677 133.419 132.793 133.024 133.029C132.629 133.264 132.311 133.609 132.108 134.022C131.973 134.297 131.904 134.599 131.908 134.905C131.912 135.211 131.987 135.512 132.129 135.783Z" fill="#DCE0ED"/>
<path opacity="0.1" d="M182.244 127.239C182.244 127.239 180.885 128.838 178.813 129.045C178.813 129.045 179.684 127.24 182.244 127.239Z" fill="#333333"/>
<path opacity="0.1" d="M182.502 131.823C182.502 131.823 186.884 131.807 186.84 134.17C186.795 136.532 184.032 136.874 184.032 136.874L144.763 143.665L133.636 143.651C133.636 143.651 129.807 140.477 133.869 139.176L145.084 139.683L182.519 133.546C182.519 133.546 181.56 132.199 182.502 131.823Z" fill="#333333"/>
<path d="M133.631 143.947L144.757 143.96L179.673 137.922L182.228 137.48L184.026 137.169C184.026 137.169 186.79 136.827 186.834 134.465C186.866 132.77 184.617 132.299 183.345 132.169C182.845 132.118 182.496 132.119 182.496 132.119C181.554 132.494 182.514 133.841 182.514 133.841L181.151 134.065L145.079 139.979L133.863 139.471C129.802 140.773 133.631 143.947 133.631 143.947Z" fill="#DCE0ED"/>
<path d="M179.241 129.841L176.948 128.764L175.767 128.693L175.678 138.636L179.334 137.967L180.878 137.011L181.694 132.891C181.694 132.891 181.432 131.163 181.287 131.012C181.142 130.862 179.241 129.841 179.241 129.841Z" fill="#DCE0ED"/>
<path opacity="0.1" d="M179.241 129.841L176.948 128.764L175.767 128.693L175.678 138.636L179.334 137.967L180.878 137.011L181.694 132.891C181.694 132.891 181.432 131.163 181.287 131.012C181.142 130.862 179.241 129.841 179.241 129.841Z" fill="#333333"/>
<path opacity="0.1" d="M179.673 137.922C179.645 137.955 179.63 137.973 179.63 137.973L182.198 137.528C182.208 137.512 182.219 137.496 182.228 137.48C183.619 135.33 183.767 133.567 183.345 132.169C182.845 132.118 182.496 132.119 182.496 132.119C181.554 132.494 182.514 133.841 182.514 133.841L181.151 134.065C181.206 136.013 179.929 137.619 179.673 137.922Z" fill="#333333"/>
<path opacity="0.1" d="M176.062 128.698C176.492 128.873 176.888 129.053 177.253 129.238C178.893 130.067 179.899 130.981 180.478 131.899L183.101 131.525C182.012 129.147 179.324 128.021 179.324 128.021L178.774 128.134L176.062 128.698Z" fill="#333333"/>
<path d="M179.03 128.016C179.03 128.016 186.161 131.006 181.902 137.523L179.334 137.967C179.334 137.967 184.513 132.255 175.767 128.693L179.03 128.016Z" fill="#DCE0ED"/>
<path d="M161.842 130.891L159.186 130.743L159.427 141.431L163.724 140.724L165.562 139.873L166.439 137.772L167.069 135.667L165.678 133.721L164.074 132.607L161.842 130.891Z" fill="#DCE0ED"/>
<path opacity="0.1" d="M161.842 130.891L159.186 130.743L159.427 141.431L163.724 140.724L165.562 139.873L166.439 137.772L167.069 135.667L165.678 133.721L164.074 132.607L161.842 130.891Z" fill="#333333"/>
<path d="M163.313 136.433C163.335 135.237 162.781 134.257 162.074 134.243C161.367 134.23 160.776 135.189 160.754 136.385C160.731 137.581 161.286 138.561 161.992 138.574C162.699 138.588 163.29 137.629 163.313 136.433Z" fill="#DCE0ED"/>
<path d="M174.182 139.579C174.271 139.618 174.351 139.675 174.417 139.746C174.483 139.818 174.533 139.902 174.564 139.994C174.595 140.086 174.606 140.184 174.597 140.281C174.588 140.377 174.559 140.471 174.512 140.556C174.212 141.093 173.85 141.788 173.879 141.974C173.929 142.289 173.232 142.018 173.142 141.942C173.051 141.867 171.776 141.916 171.718 141.047C171.711 140.785 171.773 140.526 171.897 140.295C172.021 140.064 172.204 139.87 172.426 139.732L172.167 137.825L173.923 137.71L173.872 139.445L174.182 139.579Z" fill="#636780"/>
<path opacity="0.1" d="M174.182 139.579C174.271 139.618 174.351 139.675 174.417 139.746C174.483 139.818 174.533 139.902 174.564 139.994C174.595 140.086 174.606 140.184 174.597 140.281C174.588 140.377 174.559 140.471 174.512 140.556C174.212 141.093 173.85 141.788 173.879 141.974C173.929 142.289 173.232 142.018 173.142 141.942C173.051 141.867 171.776 141.916 171.718 141.047C171.711 140.785 171.773 140.526 171.897 140.295C172.021 140.064 172.204 139.87 172.426 139.732L172.167 137.825L173.923 137.71L173.872 139.445L174.182 139.579Z" fill="#333333"/>
<path opacity="0.1" d="M173.704 139.534C173.704 139.534 173.075 141.553 173.332 141.632C173.589 141.711 173.704 139.534 173.704 139.534Z" fill="#333333"/>
<path opacity="0.1" d="M173.049 139.042C173.049 139.042 172.42 141.061 172.677 141.139C172.934 141.218 173.049 139.042 173.049 139.042Z" fill="#333333"/>
<path d="M166.089 132.793L166.958 138.915C166.958 138.915 168.18 138.771 168.854 138.639C169.002 138.622 169.146 138.58 169.28 138.516C169.315 138.482 169.387 138.487 169.483 138.508L169.484 138.508C169.811 138.58 170.39 138.863 170.508 138.636C170.517 138.619 170.528 138.603 170.542 138.588L170.543 138.587C170.661 138.463 170.884 138.559 171.1 138.596C171.216 138.627 171.339 138.613 171.445 138.557C171.629 138.439 171.993 138.641 172.293 138.711C172.482 138.756 172.647 138.751 172.725 138.581C172.755 138.526 172.798 138.479 172.85 138.443C172.901 138.408 172.961 138.385 173.023 138.377L173.024 138.377C173.309 138.311 173.705 138.367 173.935 138.323C174.026 138.307 174.088 138.274 174.11 138.212C174.157 138.08 174.412 138.022 174.685 137.975C175.015 137.918 175.37 137.879 175.399 137.745C175.408 137.701 175.44 137.682 175.489 137.682C175.672 137.713 175.852 137.76 176.026 137.825L176.027 137.825C176.174 137.865 176.297 137.868 176.334 137.763C176.375 137.647 176.544 137.663 176.737 137.714C176.892 137.755 177.064 137.819 177.196 137.853C177.315 137.882 177.401 137.888 177.417 137.832C177.469 137.636 178.1 138.091 178.255 137.7C178.41 137.309 180.478 134.739 177.933 131.294C177.933 131.294 177.227 131.329 176.686 131.417C176.506 131.438 176.33 131.484 176.163 131.553C176.16 131.553 176.159 131.554 176.156 131.556C175.846 131.636 175.525 131.667 175.206 131.647C175.023 131.646 174.841 131.685 174.675 131.763C174.609 131.797 174.557 131.852 174.524 131.918C174.438 132.104 174.248 132.139 174.042 132.123C173.763 132.102 173.455 131.989 173.34 132.043C173.337 132.045 173.334 132.046 173.33 132.048C173.122 132.132 172.351 132.032 172.217 132.158C172.213 132.161 172.21 132.165 172.207 132.17C172.149 132.251 171.848 132.158 171.54 132.111L171.539 132.111C171.436 132.081 171.329 132.073 171.223 132.087C171.117 132.102 171.016 132.139 170.926 132.196C170.788 132.301 170.615 132.348 170.443 132.328C170.234 132.309 170.024 132.313 169.816 132.342C169.768 132.354 169.724 132.38 169.691 132.417C169.563 132.57 169.263 132.544 168.996 132.552C168.859 132.544 168.722 132.576 168.603 132.644C168.56 132.673 168.511 132.692 168.46 132.7C168.063 132.729 167.663 132.701 167.274 132.618L166.089 132.793Z" fill="#636780"/>
<path opacity="0.1" d="M176.737 137.714C176.893 137.755 177.064 137.819 177.196 137.853C179.254 134.79 177.615 132.403 176.686 131.417C176.506 131.438 176.33 131.484 176.163 131.553C178.126 133.908 177.14 136.784 176.737 137.714Z" fill="#333333"/>
<path opacity="0.1" d="M175.489 137.682C175.672 137.713 175.852 137.76 176.026 137.825L176.027 137.825C177.795 134.832 176.078 132.537 175.206 131.647C175.023 131.646 174.841 131.685 174.675 131.763C176.55 133.893 175.933 136.486 175.489 137.682Z" fill="#333333"/>
<path opacity="0.1" d="M173.935 138.323C174.026 138.307 174.088 138.274 174.11 138.212C174.157 138.08 174.412 138.022 174.685 137.975C176.237 135.263 174.934 133.134 174.042 132.123C173.763 132.101 173.455 131.989 173.34 132.043C173.337 132.045 173.334 132.046 173.33 132.048C175.402 134.462 174.324 137.447 173.935 138.323Z" fill="#333333"/>
<path opacity="0.1" d="M172.293 138.711C172.482 138.756 172.647 138.751 172.725 138.581C172.755 138.526 172.798 138.479 172.85 138.443C172.901 138.408 172.961 138.385 173.023 138.377L173.024 138.377C174.833 135.358 173.091 133.043 172.217 132.158C172.213 132.161 172.21 132.165 172.207 132.17C172.149 132.251 171.848 132.158 171.54 132.111C173.979 134.668 172.637 137.978 172.293 138.711Z" fill="#333333"/>
<path opacity="0.1" d="M170.543 138.587C170.661 138.463 170.884 138.559 171.1 138.596C172.981 135.6 171.348 133.28 170.443 132.328C170.234 132.309 170.024 132.313 169.817 132.342C171.902 134.673 170.969 137.576 170.543 138.587Z" fill="#333333"/>
<path opacity="0.1" d="M168.854 138.639C169.002 138.622 169.146 138.58 169.28 138.516C169.315 138.482 169.387 138.487 169.483 138.508L169.484 138.508C171.153 135.771 169.903 133.609 168.996 132.552C168.859 132.544 168.722 132.575 168.603 132.644C168.56 132.673 168.511 132.692 168.46 132.7C170.184 135.014 169.243 137.744 168.854 138.639Z" fill="#333333"/>
<path d="M129.082 142.384C129.205 135.86 125.713 130.504 121.283 130.421C116.852 130.337 113.16 135.557 113.037 142.081C112.914 148.604 116.406 153.961 120.836 154.044C125.267 154.128 128.958 148.907 129.082 142.384Z" fill="#636780"/>
<path opacity="0.1" d="M127.159 142.52C127.259 137.233 124.729 132.898 121.508 132.837C118.287 132.776 115.595 137.013 115.495 142.3C115.395 147.586 117.925 151.921 121.146 151.982C124.367 152.043 127.059 147.807 127.159 142.52Z" fill="#333333"/>
<path d="M127.165 142.225C127.264 136.938 124.734 132.603 121.513 132.542C118.292 132.481 115.6 136.718 115.5 142.004C115.401 147.291 117.931 151.626 121.152 151.687C124.373 151.748 127.065 147.511 127.165 142.225Z" fill="#F0F0F4"/>
<path d="M121.085 135.685C121.097 135.032 120.798 134.498 120.418 134.491C120.037 134.483 119.719 135.006 119.707 135.659C119.694 136.311 119.993 136.846 120.373 136.853C120.754 136.86 121.072 136.337 121.085 135.685Z" fill="#636780"/>
<path d="M118.133 145.968C118.146 145.316 117.847 144.781 117.467 144.774C117.086 144.767 116.768 145.29 116.755 145.942C116.743 146.594 117.041 147.129 117.422 147.136C117.803 147.143 118.121 146.62 118.133 145.968Z" fill="#636780"/>
<path d="M125.658 141.187C125.67 140.534 125.372 140 124.991 139.993C124.611 139.985 124.292 140.508 124.28 141.161C124.267 141.813 124.566 142.348 124.947 142.355C125.327 142.362 125.646 141.839 125.658 141.187Z" fill="#636780"/>
<path d="M123.51 148.039C123.522 147.387 123.224 146.852 122.843 146.845C122.463 146.838 122.144 147.361 122.132 148.013C122.12 148.665 122.418 149.2 122.799 149.207C123.179 149.214 123.498 148.691 123.51 148.039Z" fill="#636780"/>
<path d="M62.7576 119.272C62.7576 119.272 56.7093 134.518 56.9865 135.483C56.9865 135.483 54.5224 136.914 53.9388 136.534C53.3552 136.153 54.0002 129.371 54.0002 129.371L55.2205 123.413L56.5425 119.893L62.7576 119.272Z" fill="#65617D"/>
<path opacity="0.15" d="M62.7576 119.272C62.7576 119.272 56.7093 134.518 56.9865 135.483C56.9865 135.483 54.5224 136.914 53.9388 136.534C53.3552 136.153 54.0002 129.371 54.0002 129.371L55.2205 123.413L56.5425 119.893L62.7576 119.272Z" fill="#333333"/>
<path d="M117.27 139.551C117.282 138.899 116.984 138.364 116.603 138.357C116.223 138.35 115.904 138.873 115.892 139.525C115.879 140.178 116.178 140.712 116.559 140.72C116.939 140.727 117.258 140.204 117.27 139.551Z" fill="#636780"/>
<path d="M122.285 142.502C122.314 140.952 121.435 139.679 120.32 139.658C119.206 139.637 118.279 140.876 118.249 142.425C118.22 143.975 119.1 145.248 120.214 145.269C121.329 145.29 122.256 144.051 122.285 142.502Z" fill="#636780"/>
<path d="M55.9473 139.673C55.7794 148.562 58.5796 156.709 66.7908 155.977C77.1303 155.951 78.0742 148.983 78.2421 140.094C78.41 131.206 73.5441 124.497 67.3875 124.381C61.231 124.265 56.1152 130.785 55.9473 139.673Z" fill="#636780"/>
<path opacity="0.1" d="M55.8826 139.687C56.0125 132.806 59.1086 127.345 63.357 125.283C68.7413 126.412 72.7784 132.707 72.6252 140.816C72.4877 148.1 71.8274 154.093 65.9035 156.035C58.3275 156.164 55.7204 148.272 55.8826 139.687Z" fill="#333333"/>
<path opacity="0.1" d="M51.6628 135.826C51.6628 135.826 53.1156 137.109 53.9443 136.238C53.9443 136.238 56.2387 120.33 58.7502 120.304L67.3889 120.393C67.3889 120.393 68.4141 120.855 68.8208 122.783L74.1061 138.786L104.711 139.807L107.141 134.954L81.8178 134.549L81.815 134.537C81.687 134.045 77.7422 118.857 74.934 116.924C74.9326 116.923 74.9311 116.923 74.9296 116.921C74.8347 116.854 74.7308 116.801 74.6209 116.763C74.6209 116.763 64.0906 115.161 60.6028 116.055C60.6028 116.055 56.9701 116.799 56.0633 117.89C56.0606 117.892 56.0581 117.895 56.0557 117.898C55.9353 118.02 54.536 119.537 54.0281 123.981L51.6628 135.826Z" fill="#333333"/>
<path d="M51.6572 136.121C51.6572 136.121 53.11 137.404 53.9388 136.534C53.9388 136.534 56.2332 120.625 58.7446 120.599L67.3834 120.688C67.3834 120.688 68.4086 121.151 68.8152 123.079L74.1005 139.081L104.705 140.102L107.135 135.249L81.8122 134.845L81.8095 134.833C81.6814 134.34 77.7366 119.153 74.9284 117.22C74.927 117.218 74.9255 117.218 74.9241 117.216C74.8291 117.15 74.7252 117.096 74.6154 117.059C74.6154 117.059 64.0851 115.456 60.5972 116.351C60.5972 116.351 56.9645 117.094 56.0577 118.185C56.055 118.188 56.0525 118.191 56.0502 118.194C55.9297 118.316 54.5304 119.833 54.0226 124.276L51.6572 136.121Z" fill="#65617D"/>
<path opacity="0.1" d="M51.6572 136.121C51.6572 136.121 53.11 137.404 53.9388 136.534C53.9388 136.534 56.2332 120.625 58.7446 120.599L67.3834 120.688C67.3834 120.688 68.4086 121.151 68.8152 123.079L74.1005 139.081L104.705 140.102L107.135 135.249L81.8122 134.845L81.8095 134.833C81.6814 134.34 77.7366 119.153 74.9284 117.22C74.927 117.218 74.9255 117.218 74.9241 117.216C74.8291 117.15 74.7252 117.096 74.6154 117.059C74.6154 117.059 64.0851 115.456 60.5972 116.351C60.5972 116.351 56.9645 117.094 56.0577 118.185C56.055 118.188 56.0525 118.191 56.0502 118.194C55.9297 118.316 54.5304 119.833 54.0226 124.276L51.6572 136.121Z" fill="#333333"/>
<path d="M70.7376 119.053C71.4493 120.47 77.4719 137.864 77.4719 137.864L81.8122 134.845L81.8095 134.833C81.6814 134.34 77.7325 119.136 74.9241 117.216C73.0696 117.498 70.2535 118.091 70.7376 119.053Z" fill="#65617D"/>
<path d="M79.155 111.31L82.41 122.744L100.507 122.569L100.327 124.264C100.327 124.264 86.1137 126.064 80.1131 123.144L77.061 112.698L48.513 112.307L53.9755 111.13L79.155 111.31Z" fill="#65617D"/>
<path opacity="0.1" d="M79.155 111.31L82.41 122.744L100.507 122.569L100.327 124.264C100.327 124.264 86.1137 126.064 80.1131 123.144L77.061 112.698L48.513 112.307L53.9755 111.13L79.155 111.31Z" fill="white"/>
<path opacity="0.1" d="M163.616 130.826C163.616 130.826 173.219 135.882 165.947 140.323L164.019 140.73C164.019 140.73 171.153 135.793 159.482 130.748L163.616 130.826Z" fill="#333333"/>
<path d="M163.32 130.821C163.32 130.821 172.924 135.876 165.652 140.317L163.724 140.724C163.724 140.724 170.858 135.788 159.186 130.743L163.32 130.821Z" fill="#DCE0ED"/>
<path d="M68.1783 141.16C68.2746 136.063 65.9398 131.886 62.9635 131.83C59.9871 131.774 57.4963 135.86 57.4001 140.956C57.3038 146.053 59.6386 150.23 62.6149 150.286C65.5912 150.342 68.0821 146.256 68.1783 141.16Z" fill="#636780"/>
<path opacity="0.1" d="M66.8852 141.335C66.9632 137.204 65.2723 133.823 63.1086 133.782C60.9448 133.741 59.1275 137.056 59.0494 141.187C58.9714 145.317 60.6623 148.698 62.8261 148.739C64.9899 148.78 66.8072 145.465 66.8852 141.335Z" fill="#333333"/>
<path d="M66.8907 141.039C66.9688 136.909 65.2779 133.528 63.1141 133.487C60.9503 133.446 59.133 136.761 59.055 140.891C58.977 145.022 60.6679 148.403 62.8316 148.444C64.9954 148.485 66.8127 145.17 66.8907 141.039Z" fill="#F0F0F4"/>
<path d="M62.8197 135.943C62.8293 135.433 62.6299 135.016 62.3742 135.011C62.1186 135.007 61.9036 135.416 61.894 135.925C61.8843 136.435 62.0838 136.852 62.3394 136.857C62.595 136.862 62.8101 136.453 62.8197 135.943Z" fill="#636780"/>
<path d="M60.8157 143.982C60.8253 143.473 60.6259 143.056 60.3702 143.051C60.1146 143.046 59.8996 143.455 59.8899 143.965C59.8803 144.475 60.0797 144.892 60.3354 144.896C60.591 144.901 60.806 144.492 60.8157 143.982Z" fill="#636780"/>
<path d="M65.8807 140.232C65.8903 139.722 65.6909 139.305 65.4352 139.3C65.1796 139.295 64.9646 139.705 64.9549 140.214C64.9453 140.724 65.1447 141.141 65.4004 141.146C65.656 141.151 65.871 140.741 65.8807 140.232Z" fill="#636780"/>
<path d="M64.4235 145.589C64.4331 145.079 64.2337 144.662 63.9781 144.658C63.7224 144.653 63.5074 145.062 63.4978 145.572C63.4881 146.081 63.6876 146.498 63.9432 146.503C64.1989 146.508 64.4139 146.099 64.4235 145.589Z" fill="#636780"/>
<path d="M60.2488 138.971C60.2585 138.462 60.059 138.045 59.8034 138.04C59.5478 138.035 59.3327 138.444 59.3231 138.954C59.3135 139.464 59.5129 139.881 59.7685 139.885C60.0242 139.89 60.2392 139.481 60.2488 138.971Z" fill="#636780"/>
<path d="M63.6121 141.266C63.635 140.055 63.0466 139.063 62.298 139.049C61.5493 139.034 60.9239 140.004 60.901 141.215C60.8782 142.425 61.4665 143.418 62.2152 143.432C62.9638 143.446 63.5893 142.476 63.6121 141.266Z" fill="#636780"/>
<path opacity="0.1" d="M141.818 101.49C141.818 101.49 125.418 101.771 104.046 107.201L141.818 101.49Z" fill="#333333"/>
<path d="M64.1648 71.3223C64.1648 71.3223 65.0521 71.4815 64.5671 72.6474C64.3108 73.2137 64.1203 73.8075 63.9995 74.4172C63.9995 74.4172 63.1009 74.8632 63.1654 73.3332C63.2299 71.8031 64.1648 71.3223 64.1648 71.3223Z" fill="#DCE0ED"/>
<path d="M98.6552 99.3801L99.9616 104.58L104.462 100.636" stroke="#333333" stroke-miterlimit="10"/>
<path d="M106.43 105.506L93.1243 103.222L90.8799 116.299L104.186 118.582L106.43 105.506Z" fill="white"/>
<path d="M96.9823 116.716L97.2325 115.258C96.4519 115.122 95.7248 114.77 95.1326 114.244L95.6451 113.336C96.2559 113.855 96.9934 114.202 97.7824 114.342C98.8074 114.518 99.6021 114.045 99.7433 113.222C99.8796 112.428 99.4008 111.84 98.4067 111.224C97.0332 110.393 96.4023 109.601 96.6179 108.345C96.8236 107.147 97.7491 106.369 99.1146 106.381L99.3649 104.923L100.095 105.048L99.8549 106.448C100.513 106.567 101.129 106.852 101.645 107.276L101.121 108.167C100.659 107.748 100.084 107.473 99.4681 107.378C98.3564 107.187 97.9884 107.808 97.8893 108.385C97.7604 109.136 98.0655 109.575 99.2324 110.31C100.615 111.172 101.402 112.079 101.181 113.365C100.986 114.505 100.008 115.437 98.4791 115.427L98.2213 116.929L96.9823 116.716Z" fill="#636780"/>
<path d="M96.756 164.102C96.8712 164.098 96.9803 164.05 97.0604 163.967C97.1405 163.884 97.1852 163.773 97.1852 163.658C97.1852 163.543 97.1405 163.432 97.0604 163.349C96.9803 163.266 96.8712 163.218 96.756 163.214C96.6408 163.218 96.5317 163.266 96.4516 163.349C96.3715 163.432 96.3268 163.543 96.3268 163.658C96.3268 163.773 96.3715 163.884 96.4516 163.967C96.5317 164.05 96.6408 164.098 96.756 164.102Z" fill="#65617D"/>
</g>
<path opacity="0.1" d="M200.669 204.722C203.725 204.722 206.202 204.304 206.202 203.787C206.202 203.27 203.725 202.852 200.669 202.852C197.614 202.852 195.137 203.27 195.137 203.787C195.137 204.304 197.614 204.722 200.669 204.722Z" fill="#FFD000"/>
<path d="M196.954 199.441C196.954 199.441 200.11 199.344 201.061 198.667C202.012 197.989 205.915 197.181 206.151 198.267C206.387 199.353 210.894 203.669 207.331 203.698C203.768 203.726 199.052 203.143 198.103 202.565C197.154 201.986 196.954 199.441 196.954 199.441Z" fill="#A8A8A8"/>
<path opacity="0.2" d="M207.394 203.32C203.831 203.348 199.116 202.765 198.166 202.186C197.444 201.746 197.155 200.166 197.059 199.437C196.992 199.44 196.954 199.441 196.954 199.441C196.954 199.441 197.154 201.986 198.103 202.565C199.052 203.143 203.768 203.726 207.331 203.698C208.359 203.689 208.715 203.324 208.695 202.782C208.552 203.109 208.16 203.313 207.394 203.32Z" fill="#333333"/>
<path opacity="0.1" d="M232.759 193.609C235.11 193.609 237.016 193.287 237.016 192.889C237.016 192.492 235.11 192.169 232.759 192.169C230.408 192.169 228.502 192.492 228.502 192.889C228.502 193.287 230.408 193.609 232.759 193.609Z" fill="#FFD000"/>
<path d="M229.9 189.545C229.9 189.545 232.328 189.47 233.06 188.949C233.792 188.428 236.796 187.805 236.977 188.641C237.159 189.477 240.627 192.798 237.885 192.82C235.143 192.843 231.515 192.393 230.784 191.948C230.054 191.503 229.9 189.545 229.9 189.545Z" fill="#A8A8A8"/>
<path opacity="0.2" d="M237.934 192.529C235.192 192.552 231.564 192.102 230.833 191.657C230.277 191.319 230.055 190.103 229.981 189.542C229.93 189.544 229.9 189.545 229.9 189.545C229.9 189.545 230.054 191.503 230.784 191.948C231.515 192.393 235.143 192.842 237.885 192.82C238.677 192.814 238.95 192.532 238.935 192.115C238.825 192.367 238.523 192.525 237.934 192.529Z" fill="#333333"/>
<path opacity="0.1" d="M213.443 240.107C219.056 240.107 223.606 239.337 223.606 238.388C223.606 237.44 219.056 236.67 213.443 236.67C207.829 236.67 203.279 237.44 203.279 238.388C203.279 239.337 207.829 240.107 213.443 240.107Z" fill="#FFD000"/>
<path d="M206.617 230.405C206.617 230.405 212.414 230.226 214.162 228.982C215.909 227.738 223.08 226.252 223.513 228.248C223.946 230.243 232.225 238.172 225.68 238.224C219.135 238.277 210.472 237.205 208.728 236.143C206.984 235.08 206.617 230.405 206.617 230.405Z" fill="#A8A8A8"/>
<path opacity="0.2" d="M225.797 237.53C219.252 237.583 210.589 236.51 208.845 235.448C207.517 234.639 206.988 231.736 206.811 230.397C206.688 230.402 206.617 230.405 206.617 230.405C206.617 230.405 206.984 235.08 208.728 236.143C210.472 237.205 219.135 238.277 225.68 238.224C227.57 238.209 228.222 237.537 228.186 236.541C227.924 237.143 227.203 237.518 225.797 237.53Z" fill="#333333"/>
<path d="M320.755 177.909C320.756 184.73 318.122 191.289 313.403 196.215C308.684 201.141 302.245 204.055 295.43 204.348C288.614 204.641 281.949 202.29 276.825 197.787C271.701 193.284 268.514 186.976 267.928 180.18C267.89 179.75 267.861 179.32 267.848 178.884V178.861C267.835 178.544 267.829 178.226 267.829 177.909C267.831 170.892 270.62 164.163 275.583 159.202C280.546 154.241 287.275 151.454 294.292 151.454C301.309 151.454 308.039 154.241 313.001 159.202C317.964 164.163 320.753 170.892 320.755 177.909Z" fill="#65617D"/>
<path opacity="0.2" d="M320.755 177.909C320.756 184.73 318.122 191.289 313.403 196.215C308.684 201.141 302.245 204.055 295.43 204.348C288.614 204.641 281.949 202.29 276.825 197.787C271.701 193.284 268.514 186.976 267.928 180.18C267.89 179.75 267.861 179.32 267.848 178.884V178.861C267.835 178.544 267.829 178.226 267.829 177.909C267.831 170.892 270.62 164.163 275.583 159.202C280.546 154.241 287.275 151.454 294.292 151.454C301.309 151.454 308.039 154.241 313.001 159.202C317.964 164.163 320.753 170.892 320.755 177.909Z" fill="#333333"/>
<path d="M294.291 192.343C302.263 192.343 308.726 185.881 308.726 177.909C308.726 169.937 302.263 163.474 294.291 163.474C286.319 163.474 279.857 169.937 279.857 177.909C279.857 185.881 286.319 192.343 294.291 192.343Z" fill="#DCE0ED"/>
<path d="M294.291 186.569C299.075 186.569 302.952 182.692 302.952 177.909C302.952 173.126 299.075 169.248 294.291 169.248C289.508 169.248 285.631 173.126 285.631 177.909C285.631 182.692 289.508 186.569 294.291 186.569Z" fill="#65617D"/>
<path d="M179.48 177.909C179.48 184.73 176.846 191.289 172.127 196.215C167.408 201.141 160.97 204.055 154.154 204.348C147.339 204.641 140.674 202.29 135.549 197.787C130.425 193.284 127.238 186.976 126.653 180.18C126.614 179.75 126.586 179.32 126.573 178.884V178.861C126.56 178.544 126.553 178.226 126.553 177.909C126.556 170.892 129.345 164.163 134.307 159.202C139.27 154.241 146 151.454 153.017 151.454C160.034 151.454 166.763 154.241 171.726 159.202C176.688 164.163 179.478 170.892 179.48 177.909Z" fill="#65617D"/>
<path opacity="0.2" d="M179.48 177.909C179.48 184.73 176.846 191.289 172.127 196.215C167.408 201.141 160.97 204.055 154.154 204.348C147.339 204.641 140.674 202.29 135.549 197.787C130.425 193.284 127.238 186.976 126.653 180.18C126.614 179.75 126.586 179.32 126.573 178.884V178.861C126.56 178.544 126.553 178.226 126.553 177.909C126.556 170.892 129.345 164.163 134.307 159.202C139.27 154.241 146 151.454 153.017 151.454C160.034 151.454 166.763 154.241 171.726 159.202C176.688 164.163 179.478 170.892 179.48 177.909Z" fill="#333333"/>
<path d="M153.016 192.343C160.988 192.343 167.45 185.881 167.45 177.909C167.45 169.937 160.988 163.474 153.016 163.474C145.044 163.474 138.581 169.937 138.581 177.909C138.581 185.881 145.044 192.343 153.016 192.343Z" fill="#DCE0ED"/>
<path d="M153.016 186.569C157.799 186.569 161.677 182.692 161.677 177.909C161.677 173.126 157.799 169.248 153.016 169.248C148.233 169.248 144.355 173.126 144.355 177.909C144.355 182.692 148.233 186.569 153.016 186.569Z" fill="#65617D"/>
<path d="M329.009 172.95L320.18 172.566L312.118 157.594L283.709 155.291L269.889 173.334L270.656 178.325L268.737 182.931L178.52 183.699V181.396H177.752L176.985 177.941H183.895L178.904 172.566L161.245 157.594C161.245 157.594 130.917 158.362 130.533 157.594C130.149 156.826 132.26 148.956 132.26 148.956L145.313 145.117L189.845 141.662C199.635 126.114 208.464 118.82 208.464 118.82H322.867L328.242 146.461V146.526L329.009 172.95Z" fill="#444053"/>
<path d="M265.282 174.87C265.282 174.87 276.799 153.371 285.628 153.371H307.127C307.127 153.371 312.502 153.371 314.805 157.594L323.635 174.87H316.724C316.724 174.87 310.966 158.746 304.44 158.362C297.913 157.978 286.78 158.362 286.78 158.362C286.78 158.362 282.941 158.362 280.638 162.969C278.334 167.575 270.546 177.61 270.546 177.61C270.546 177.61 262.211 180.244 265.282 174.87Z" fill="#33323D"/>
<path d="M334 171.415H319.559L319.412 182.931L334 179.476V171.415Z" fill="#33323D"/>
<path d="M125.158 164.504C125.158 164.504 125.926 158.746 131.3 156.442L166.619 154.523C166.619 154.523 172.378 154.907 175.449 162.201L185.43 177.173V179.476H174.297C174.297 179.476 168.923 159.13 153.567 159.897H135.139C135.139 159.897 130.916 159.897 129.381 166.808L125.158 164.504Z" fill="#33323D"/>
<path d="M208.081 121.123H325.938C325.938 120.003 325.493 118.929 324.701 118.137C323.909 117.345 322.835 116.901 321.715 116.901H212.303C211.749 116.901 211.2 117.01 210.687 117.222C210.175 117.434 209.71 117.745 209.317 118.137C208.925 118.53 208.614 118.995 208.402 119.507C208.19 120.02 208.081 120.569 208.081 121.123Z" fill="#33323D"/>
<path opacity="0.3" d="M233.338 143.774H200.724C200.357 143.774 199.995 143.682 199.672 143.507C199.35 143.331 199.076 143.078 198.875 142.77C198.675 142.462 198.555 142.109 198.526 141.743C198.497 141.376 198.56 141.009 198.709 140.673L203.87 129.062C204.666 127.27 205.965 125.748 207.609 124.68C209.252 123.612 211.171 123.043 213.131 123.043H232.946C233.311 123.043 233.672 123.115 234.008 123.254C234.345 123.394 234.651 123.598 234.909 123.856C235.166 124.113 235.371 124.419 235.51 124.756C235.65 125.093 235.721 125.454 235.721 125.818V141.39C235.721 141.703 235.66 142.013 235.54 142.302C235.42 142.591 235.245 142.854 235.023 143.075C234.802 143.297 234.539 143.472 234.25 143.592C233.961 143.712 233.651 143.774 233.338 143.774Z" fill="#FFD000"/>
<path opacity="0.3" d="M274.39 123.043H245.808C244.902 123.043 244.167 123.778 244.167 124.684V142.133C244.167 143.039 244.902 143.774 245.808 143.774H274.39C275.296 143.774 276.031 143.039 276.031 142.133V124.684C276.031 123.778 275.296 123.043 274.39 123.043Z" fill="#FFD000"/>
<path d="M328.242 146.461V146.526L278.718 147.229L277.428 118.82H322.867L328.242 146.461Z" fill="#33323D"/>
<path opacity="0.3" d="M317.771 123.043H284.582C283.676 123.043 282.941 123.778 282.941 124.684V142.133C282.941 143.039 283.676 143.774 284.582 143.774H317.771C318.677 143.774 319.412 143.039 319.412 142.133V124.684C319.412 123.778 318.677 123.043 317.771 123.043Z" fill="#FFD000"/>
<path d="M237.503 151.068H226.261C225.973 151.068 225.74 151.301 225.74 151.589V152.85C225.74 153.138 225.973 153.371 226.261 153.371H237.503C237.791 153.371 238.025 153.138 238.025 152.85V151.589C238.025 151.301 237.791 151.068 237.503 151.068Z" fill="#33323D"/>
<path d="M272.822 151.068H261.58C261.292 151.068 261.059 151.301 261.059 151.589V152.85C261.059 153.138 261.292 153.371 261.58 153.371H272.822C273.11 153.371 273.344 153.138 273.344 152.85V151.589C273.344 151.301 273.11 151.068 272.822 151.068Z" fill="#33323D"/>
<path d="M300.152 120.75H285.936V134.721H300.152V120.75Z" fill="white"/>
<path d="M292.343 134.068V132.51C291.509 132.507 290.692 132.272 289.983 131.831L290.354 130.798C291.08 131.227 291.907 131.456 292.751 131.461C293.846 131.461 294.586 130.829 294.586 129.949C294.586 129.101 293.985 128.577 292.843 128.114C291.27 127.497 290.474 126.787 290.474 125.445C290.474 124.165 291.296 123.193 292.715 122.962V121.404H293.496V122.9C294.199 122.906 294.89 123.091 295.501 123.44L295.115 124.458C294.562 124.105 293.916 123.923 293.26 123.934C292.072 123.934 291.801 124.643 291.801 125.26C291.801 126.062 292.196 126.463 293.538 127.019C295.126 127.666 296.104 128.469 296.104 129.841C296.104 131.06 295.256 132.202 293.667 132.464V134.068L292.343 134.068Z" fill="#636780"/>
<path d="M129.578 207.754C129.578 211.859 127.993 215.805 125.154 218.77C122.314 221.734 118.44 223.487 114.339 223.664C110.237 223.84 106.227 222.426 103.143 219.716C100.06 217.006 98.1421 213.21 97.7901 209.121C97.7669 208.862 97.7495 208.603 97.7418 208.341V208.327C97.7341 208.136 97.7302 207.945 97.7302 207.754C97.7357 203.534 99.4158 199.489 102.401 196.508C105.387 193.526 109.434 191.851 113.654 191.851C117.874 191.851 121.921 193.526 124.907 196.508C127.892 199.489 129.572 203.534 129.578 207.754Z" fill="#65617D"/>
<path d="M113.654 216.44C118.451 216.44 122.339 212.551 122.339 207.754C122.339 202.957 118.451 199.068 113.654 199.068C108.857 199.068 104.968 202.957 104.968 207.754C104.968 212.551 108.857 216.44 113.654 216.44Z" fill="#DCE0ED"/>
<path d="M113.654 212.966C116.532 212.966 118.865 210.632 118.865 207.754C118.865 204.876 116.532 202.543 113.654 202.543C110.775 202.543 108.442 204.876 108.442 207.754C108.442 210.632 110.775 212.966 113.654 212.966Z" fill="#65617D"/>
<path d="M71.8352 177.514L33.4906 178.286V172.625C33.8342 168.076 38.4994 166.48 42.7573 165.98C46.0772 165.603 49.4383 165.855 52.6648 166.723C60.8004 168.877 65.9887 169.294 68.5365 169.334C69.097 169.343 69.6374 169.545 70.0664 169.905C70.4954 170.266 70.7868 170.764 70.8913 171.315C71.0129 171.961 71.1326 172.666 71.2445 173.361C71.3295 173.905 71.4105 174.441 71.4839 174.941C71.6943 176.391 71.8352 177.514 71.8352 177.514Z" fill="#65617D"/>
<path d="M102.426 208.783H22.7705C22.1555 208.789 21.5522 208.615 21.0357 208.281C20.5192 207.947 20.1123 207.468 19.8656 206.905C19.2653 205.471 20.105 204.556 21.0006 204.019C22.8334 202.933 24.2227 201.233 24.9226 199.221C25.7719 196.721 26.6019 192.786 26.9281 186.652C27.2639 180.307 29.5608 177.171 32.043 175.652H32.0449C35.2509 173.691 38.7657 174.426 38.7657 174.426L71.0631 174.685C71.638 174.945 72.1698 175.292 72.6401 175.713C75.5179 178.393 71.3218 181.89 71.3218 181.89C62.3137 191.411 69.133 201.062 69.133 201.062H85.659C88.7467 201.078 91.7661 200.154 94.3158 198.412C96.549 196.87 97.4137 195.376 97.7476 194.473C98.0024 193.782 98.261 193.093 98.5698 192.425C102.905 183.023 97.6762 167.728 95.4198 162.009C94.86 160.587 94.4837 159.757 94.4837 159.757L99.6661 159.365L102.944 159.116L102.976 159.114C110.199 171.571 112.884 184.372 113.787 193.857C113.872 194.751 113.942 195.617 113.998 196.449C114.1 198.031 113.877 199.618 113.342 201.11C112.807 202.602 111.971 203.969 110.886 205.125C109.802 206.281 108.491 207.203 107.036 207.832C105.581 208.461 104.012 208.785 102.426 208.783Z" fill="#FFD000"/>
<path opacity="0.1" d="M71.4839 174.941H33.4906V173.361H71.2445C71.3295 173.905 71.4105 174.441 71.4839 174.941Z" fill="#333333"/>
<path opacity="0.1" d="M72.64 175.713H32.3499C32.2451 175.714 32.1412 175.693 32.0449 175.652C35.2509 173.691 38.7657 174.426 38.7657 174.426L71.0631 174.685C71.638 174.945 72.1698 175.292 72.64 175.713Z" fill="#333333"/>
<path d="M72.976 173.747H18.2532C17.8169 173.747 17.4632 174.101 17.4632 174.537C17.4632 174.974 17.8169 175.327 18.2532 175.327H72.976C73.4123 175.327 73.766 174.974 73.766 174.537C73.766 174.101 73.4123 173.747 72.976 173.747Z" fill="#DCE0ED"/>
<path opacity="0.1" d="M113.787 193.857C111.952 195.853 110.6 196.638 110.664 194.533C110.857 188.163 99.6661 159.365 99.6661 159.365L102.976 159.114C110.199 171.571 112.884 184.372 113.787 193.857Z" fill="#333333"/>
<path opacity="0.1" d="M129.481 206.009C127.58 206.465 125.229 206.928 122.33 207.353C121.253 207.511 120.098 207.663 118.864 207.808C115.905 208.159 112.482 208.466 108.529 208.702C107.41 208.769 106.247 208.83 105.042 208.885C102.783 208.987 100.366 209.066 97.79 209.121L97.7418 208.341V208.327C101.342 206.874 107.005 202.996 107.918 192.896C110.193 192.019 112.638 191.676 115.067 191.894C117.495 192.111 119.841 192.883 121.924 194.15C124.007 195.417 125.772 197.145 127.082 199.201C128.392 201.257 129.213 203.586 129.481 206.009Z" fill="#333333"/>
<path d="M94.7404 208.783C94.7404 208.783 113.019 206.803 106.727 178.949C106.727 178.949 115.759 187.228 121.377 191.83C126.994 196.432 137.007 202.776 137.007 202.776C137.007 202.776 131.027 208.365 94.7404 208.783Z" fill="#FFD000"/>
<path opacity="0.1" d="M94.7404 208.783C94.7404 208.783 113.019 206.803 106.727 178.949C106.727 178.949 115.759 187.228 121.377 191.83C126.994 196.432 137.007 202.776 137.007 202.776C137.007 202.776 131.027 208.365 94.7404 208.783Z" fill="white"/>
<path d="M45.9073 223.678C54.7018 223.678 61.8312 216.549 61.8312 207.754C61.8312 198.96 54.7018 191.83 45.9073 191.83C37.1129 191.83 29.9835 198.96 29.9835 207.754C29.9835 216.549 37.1129 223.678 45.9073 223.678Z" fill="#65617D"/>
<path d="M45.9073 216.44C50.7043 216.44 54.5931 212.551 54.5931 207.754C54.5931 202.957 50.7043 199.068 45.9073 199.068C41.1103 199.068 37.2216 202.957 37.2216 207.754C37.2216 212.551 41.1103 216.44 45.9073 216.44Z" fill="#DCE0ED"/>
<path d="M45.9074 212.966C48.7855 212.966 51.1188 210.632 51.1188 207.754C51.1188 204.876 48.7855 202.543 45.9074 202.543C43.0292 202.543 40.6959 204.876 40.6959 207.754C40.6959 210.632 43.0292 212.966 45.9074 212.966Z" fill="#65617D"/>
<path opacity="0.1" d="M63.7613 202.972C63.7613 192.689 55.595 184.352 45.5213 184.352C35.4476 184.352 27.2813 192.689 27.2813 202.972C27.2813 203.406 27.2971 203.836 27.3257 204.263H63.717C63.7456 203.836 63.7613 203.406 63.7613 202.972Z" fill="#333333"/>
<path d="M63.0858 202.651C63.0858 192.748 55.2219 184.721 45.5213 184.721C35.8207 184.721 27.9568 192.748 27.9568 202.651C27.9568 203.069 27.972 203.483 27.9996 203.894H63.043C63.0706 203.483 63.0858 203.069 63.0858 202.651Z" fill="#FFD000"/>
<path opacity="0.1" d="M63.0857 202.651C63.0857 202.938 63.078 203.224 63.0645 203.508C63.0587 203.637 63.051 203.764 63.0433 203.894H27.9993C27.9916 203.764 27.9839 203.637 27.9781 203.508C27.9646 203.224 27.9568 202.938 27.9568 202.651C27.9568 192.749 35.8203 184.721 45.5213 184.721C55.2223 184.721 63.0857 192.749 63.0857 202.651Z" fill="white"/>
<path opacity="0.1" d="M63.0645 203.508C63.0587 203.637 63.051 203.764 63.0433 203.894H27.9993C27.9916 203.764 27.9839 203.637 27.9781 203.508H63.0645Z" fill="#333333"/>
<path opacity="0.1" d="M110.648 177.033C111.811 176.507 111.68 173.705 110.355 170.776C109.031 167.846 107.014 165.898 105.85 166.424C104.687 166.95 104.818 169.751 106.143 172.681C107.468 175.61 109.485 177.559 110.648 177.033Z" fill="#333333"/>
<path d="M110.841 176.84C112.004 176.314 111.873 173.512 110.548 170.583C109.224 167.653 107.207 165.705 106.043 166.231C104.88 166.757 105.011 169.558 106.336 172.488C107.661 175.417 109.678 177.366 110.841 176.84Z" fill="#DCE0ED"/>
<path opacity="0.1" d="M102.944 159.116V162.141H97.0566C96.5084 162.141 95.961 162.097 95.4198 162.009C94.8601 160.587 94.4837 159.757 94.4837 159.757L99.6662 159.365L102.944 159.116Z" fill="#333333"/>
<path d="M102.944 161.754H97.0566C91.8865 161.754 87.6953 157.886 87.6953 153.114V152.313C87.6953 147.541 91.8865 143.673 97.0566 143.673L102.944 144.207V161.754Z" fill="#FFD000"/>
<path d="M93.2445 148.788C93.2445 148.788 96.767 150.67 94.7404 153.854C94.7404 153.854 92.2553 157.932 88.3467 157.546L86.9232 148.788C86.9232 148.788 91.6039 148.353 93.2445 148.788Z" fill="#FFD000"/>
<path opacity="0.1" d="M91.8923 148.618C92.4515 148.639 92.9987 148.786 93.4937 149.048C93.9886 149.309 94.4188 149.677 94.7524 150.127C95.3797 150.995 95.7537 152.262 94.7404 153.854C94.7404 153.854 92.2553 157.932 88.3467 157.546L86.9232 148.788C88.575 148.636 90.2341 148.58 91.8923 148.618Z" fill="#333333"/>
<path opacity="0.1" d="M102.751 144.207C103.372 144.207 103.986 144.33 104.56 144.567C105.134 144.805 105.655 145.153 106.094 145.592C106.533 146.031 106.882 146.553 107.119 147.126C107.357 147.7 107.479 148.315 107.479 148.936V157.025C107.479 158.28 106.981 159.482 106.094 160.369C105.208 161.256 104.005 161.754 102.751 161.754V144.207Z" fill="#333333"/>
<path d="M102.944 144.207C104.198 144.207 105.401 144.705 106.287 145.592C107.174 146.479 107.672 147.682 107.672 148.936V157.025C107.672 158.28 107.174 159.482 106.287 160.369C105.401 161.256 104.198 161.754 102.944 161.754V144.207Z" fill="#DCE0ED"/>
<path d="M86.5156 158.101C88.6757 158.101 90.4267 155.97 90.4267 153.343C90.4267 150.715 88.6757 148.585 86.5156 148.585C84.3556 148.585 82.6045 150.715 82.6045 153.343C82.6045 155.97 84.3556 158.101 86.5156 158.101Z" fill="#FFD000"/>
<path d="M44.8658 175.338L46.5747 179.144L49.4307 175.338" stroke="#333333" stroke-miterlimit="10"/>
<path d="M53.3951 179.303H39.4598V192.998H53.3951V179.303Z" fill="white"/>
<path d="M45.7408 192.357V190.83C44.9229 190.828 44.1218 190.597 43.4274 190.165L43.7903 189.152C44.5022 189.573 45.3131 189.797 46.1402 189.802C47.2138 189.802 47.9395 189.182 47.9395 188.32C47.9395 187.488 47.3499 186.974 46.2309 186.521C44.6886 185.916 43.9085 185.22 43.9085 183.905C43.9085 182.65 44.7144 181.697 46.1055 181.47V179.943H46.8704V181.41C47.5601 181.415 48.2369 181.598 48.8362 181.939L48.4581 182.937C47.9152 182.591 47.2827 182.412 46.6391 182.423C45.4748 182.423 45.2089 183.119 45.2089 183.723C45.2089 184.51 45.5958 184.903 46.9113 185.447C48.4687 186.082 49.4275 186.868 49.4275 188.214C49.4275 189.409 48.5959 190.528 47.0385 190.785V192.357L45.7408 192.357Z" fill="#636780"/>
<path d="M21.1813 143.101H19.1077V175.094H21.1813V143.101Z" fill="#DCE0ED"/>
<path d="M19.1077 143.101C19.1077 143.101 11.4057 143.397 9.9246 143.99C8.44345 144.582 4 144.286 4 144.286V152.58C4 152.58 9.03591 151.395 11.702 152.284C14.368 153.173 19.9964 151.099 19.9964 151.099L19.1077 143.101Z" fill="#DCE0ED"/>
</g>
<defs>
<clipPath id="clip0_618_3741">
<rect width="330" height="175.825" fill="white" transform="translate(4 70)"/>
</clipPath>
</defs>
</svg>
