<svg width="338" height="246" viewBox="0 0 338 246" fill="none" xmlns="http://www.w3.org/2000/svg">
<rect width="338" height="246" rx="16" fill="white"/>
<rect y="8" width="338" height="230.575" rx="16" fill="white"/>
<path d="M55.8532 170.789C54.2245 170.965 52.4478 171.228 50.5579 171.612C42.5446 173.244 42.3783 178.685 42.4485 179.933L42.3941 179.899C41.5883 181.191 41.0837 182.499 40.7787 183.734L40.4117 167.057C40.649 166.563 40.8649 166.002 41.0449 165.427C41.6447 167.274 42.628 169.019 43.4756 168.903C44.5778 168.753 45.0583 165.51 44.8527 163.205C46.2542 165.01 48.613 166.941 49.5028 166.345C50.2139 165.87 49.7922 163.912 49.0159 162.131C50.6334 163.106 52.4249 163.746 52.9808 163.127C53.7393 162.283 51.9216 159.402 50.2453 157.794C52.4892 158.003 55.343 157.645 55.5301 156.624C55.6842 155.783 53.9858 154.721 52.1679 154.037C53.9938 153.556 55.7013 152.717 55.6447 151.887C55.5774 150.901 53.0424 150.241 50.8554 150.14C52.505 148.85 54.0206 147.066 53.5571 146.259C53.131 145.517 51.1487 145.804 49.3197 146.458C50.4021 144.91 51.163 143.167 50.5835 142.57C49.8616 141.827 47.2996 143.11 45.5511 144.528C45.8914 142.318 45.7194 139.53 44.7284 139.277C43.8994 139.066 42.7245 140.689 41.919 142.456C41.563 140.601 40.8422 138.841 40.0104 138.841C38.8254 138.841 37.8648 142.413 37.8648 144.741C37.8648 144.872 37.8683 144.996 37.8743 145.115C37.7554 144.977 37.6191 144.833 37.4636 144.682C35.7939 143.06 32.5617 141.26 31.7361 142.11C31.1566 142.707 31.9175 144.451 32.9999 145.998C31.1709 145.345 29.1886 145.057 28.7625 145.799C28.1899 146.796 30.6374 149.284 32.6268 150.49C32.5072 150.476 32.3815 150.464 32.2478 150.455C29.9256 150.296 26.2958 151.012 26.2151 152.194C26.1585 153.024 27.866 153.862 29.692 154.344C27.8741 155.027 26.1756 156.089 26.3298 156.931C26.5169 157.952 29.3707 158.309 31.6145 158.1C29.9382 159.708 28.1205 162.59 28.8791 163.434C29.435 164.053 31.2264 163.412 32.8439 162.438C32.0676 164.218 31.646 166.176 32.357 166.652C33.2967 167.28 35.8738 165.093 37.2325 163.21C37.0941 165.513 37.6451 168.677 38.7385 168.802C39.1957 168.854 39.6802 168.366 40.1175 167.616L38.8791 185.541C38.5896 187.629 40.4413 188.991 40.6068 189.851L40.8739 201.99C40.5724 201.125 40.1664 200.24 39.619 199.362L39.5646 199.396C39.6348 198.148 39.4684 192.707 31.4552 191.076C29.5653 190.691 27.7886 190.428 26.1599 190.253C24.2375 190.046 23.4876 192.677 25.2243 193.527C27.7394 194.758 30.1053 196.309 31.3385 198.146C34.4913 202.842 38.8475 200.127 39.4669 199.706C40.1587 200.858 40.6123 202.018 40.8988 203.122L41.0407 209.568C41.0059 209.721 40.9819 209.806 40.98 209.812L41.0465 209.832L41.3898 225.433L44.5743 225.407L43.4352 209.461C43.6266 208.601 44.2155 205.67 43.4352 202.627L42.2962 190.097C42.2934 190.088 42.3608 190.426 42.2962 190.097L40.8104 185.174C41.0264 183.651 41.5279 181.938 42.5462 180.243C43.1656 180.664 47.5218 183.378 50.6746 178.683C51.9078 176.846 54.2737 175.295 56.7888 174.064C58.5255 173.214 57.7756 170.582 55.8532 170.789L55.8532 170.789ZM41.3061 207.701L41.246 204.972C41.3671 206.004 41.361 206.935 41.3061 207.701Z" fill="#F2F2F2"/>
<path d="M299.564 170.789C297.935 170.965 296.158 171.228 294.268 171.612C286.255 173.244 286.089 178.685 286.159 179.933L286.105 179.899C285.299 181.191 284.794 182.499 284.489 183.734L284.122 167.057C284.359 166.563 284.575 166.002 284.755 165.427C285.355 167.274 286.338 169.019 287.186 168.903C288.288 168.753 288.769 165.51 288.563 163.205C289.965 165.01 292.323 166.941 293.213 166.345C293.924 165.87 293.503 163.912 292.726 162.131C294.344 163.106 296.135 163.746 296.691 163.127C297.45 162.283 295.632 159.402 293.956 157.794C296.2 158.003 299.053 157.645 299.241 156.624C299.395 155.783 297.696 154.721 295.878 154.037C297.704 153.556 299.412 152.717 299.355 151.887C299.288 150.901 296.753 150.241 294.566 150.14C296.215 148.85 297.731 147.066 297.268 146.259C296.841 145.517 294.859 145.804 293.03 146.458C294.113 144.91 294.873 143.167 294.294 142.57C293.572 141.827 291.01 143.11 289.262 144.528C289.602 142.318 289.43 139.53 288.439 139.277C287.61 139.066 286.435 140.689 285.629 142.456C285.273 140.601 284.553 138.841 283.721 138.841C282.536 138.841 281.575 142.413 281.575 144.741C281.575 144.872 281.579 144.996 281.585 145.115C281.466 144.977 281.33 144.833 281.174 144.682C279.504 143.06 276.272 141.26 275.447 142.11C274.867 142.707 275.628 144.451 276.71 145.998C274.881 145.345 272.899 145.057 272.473 145.799C271.9 146.796 274.348 149.284 276.337 150.49C276.218 150.476 276.092 150.464 275.958 150.455C273.636 150.296 270.006 151.012 269.926 152.194C269.869 153.024 271.576 153.862 273.402 154.344C271.585 155.027 269.886 156.089 270.04 156.931C270.227 157.952 273.081 158.309 275.325 158.1C273.649 159.708 271.831 162.59 272.59 163.434C273.145 164.053 274.937 163.412 276.554 162.438C275.778 164.218 275.356 166.176 276.067 166.652C277.007 167.28 279.584 165.093 280.943 163.21C280.805 165.513 281.356 168.677 282.449 168.802C282.906 168.854 283.391 168.366 283.828 167.616L282.59 185.541C282.3 187.629 284.152 188.991 284.317 189.851L284.584 201.99C284.283 201.125 283.877 200.24 283.329 199.362L283.275 199.396C283.345 198.148 283.179 192.707 275.166 191.076C273.276 190.691 271.499 190.428 269.87 190.253C267.948 190.046 267.198 192.677 268.935 193.527C271.45 194.758 273.816 196.309 275.049 198.146C278.202 202.842 282.558 200.127 283.177 199.706C283.869 200.858 284.323 202.018 284.609 203.122L284.751 209.568C284.716 209.721 284.692 209.806 284.69 209.812L284.757 209.832L285.1 225.433L288.285 225.407L287.146 209.461C287.337 208.601 287.926 205.67 287.146 202.627L286.007 190.097C286.004 190.088 286.071 190.426 286.007 190.097L284.521 185.174C284.737 183.651 285.238 181.938 286.257 180.243C286.876 180.664 291.232 183.378 294.385 178.683C295.618 176.846 297.984 175.295 300.499 174.064C302.236 173.214 301.486 170.582 299.564 170.789V170.789ZM285.017 207.701L284.957 204.972C285.078 206.004 285.071 206.935 285.017 207.701Z" fill="#F2F2F2"/>
<path d="M250.121 119.734L248.628 84.1345C248.628 84.1345 246.951 62.9996 245.609 55.6191C244.267 48.2387 235.209 50.2515 235.209 50.2515L236.216 71.3865L240.558 93.0153L243.938 122.468C243.764 123.32 243.665 124.246 243.665 125.218C243.665 129.344 245.388 132.689 247.514 132.689C249.639 132.689 251.363 129.344 251.363 125.218C251.363 123.048 250.883 121.099 250.121 119.734V119.734Z" fill="#FFB6B6"/>
<path d="M177.433 110.51C179.021 108.619 180.922 107.334 182.63 106.839L202.715 84.1345C202.715 84.1345 204.392 62.9996 205.734 55.6191C207.076 48.2387 216.134 50.2515 216.134 50.2515L215.127 71.3865L209.424 94.1988L185.922 114.152C185.512 114.899 185.009 115.647 184.406 116.365C181.547 119.77 177.668 121.22 175.742 119.604C173.817 117.987 174.574 113.916 177.433 110.51Z" fill="#FFB6B6"/>
<path d="M221.623 47.4L223.952 38.4433L233.029 38.0067L235.744 50.3532L221.623 47.4Z" fill="#FFB6B6"/>
<path opacity="0.1" d="M221.623 47.4L223.952 38.4433L233.029 38.0067L235.744 50.3532L221.623 47.4Z" fill="#333333"/>
<path d="M198.446 194.135L189.945 193.65L191.06 219.739L196.82 220.068L198.446 194.135Z" fill="#FFB6B6"/>
<path d="M190.323 211.49L193.275 212.837L193.271 214.626C193.271 214.626 193.983 212.555 197.806 212.103L198.262 213.838C198.262 213.838 199.745 215.54 199.49 218.618L198.517 226.86L195.634 226.794L195.169 221.058C195.169 221.058 194.375 219.757 190.717 225.941C190.717 225.941 186.687 226.957 180.447 224.865C179.59 224.577 178.994 223.776 179.005 222.872C179.011 222.373 179.206 221.912 179.832 221.746C181.426 221.325 182.981 221.859 184.01 220.587C185.039 219.316 190.323 211.49 190.323 211.49Z" fill="#2F2E41"/>
<path d="M244.07 194.135L235.569 193.65L236.684 219.739L242.445 220.068L244.07 194.135Z" fill="#FFB6B6"/>
<path d="M235.948 211.49L238.899 212.837L238.896 214.626C238.896 214.626 239.608 212.555 243.43 212.103L243.887 213.838C243.887 213.838 245.369 215.54 245.115 218.618L244.142 226.86L241.259 226.794L240.793 221.058C240.793 221.058 239.999 219.757 236.341 225.941C236.341 225.941 232.312 226.957 226.072 224.865C225.214 224.577 224.619 223.776 224.63 222.872C224.636 222.373 224.831 221.912 225.457 221.746C227.05 221.325 228.606 221.859 229.635 220.587C230.664 219.316 235.948 211.49 235.948 211.49Z" fill="#2F2E41"/>
<path d="M228.601 43.7179C234.159 43.7179 238.665 39.212 238.665 33.6537C238.665 28.0953 234.159 23.5894 228.601 23.5894C223.043 23.5894 218.537 28.0953 218.537 33.6537C218.537 39.212 223.043 43.7179 228.601 43.7179Z" fill="#FFB6B6"/>
<path d="M234.308 35.3267C234.308 35.3267 229.883 28.0865 225.454 28.8856C221.025 29.6848 218.715 30.4063 218.715 30.4063C218.715 30.4063 216.912 24.6336 222.967 21.8641C222.967 21.8641 214.398 14.6889 223.531 10.0841C232.665 5.47924 238.348 9.94206 238.348 9.94206C238.348 9.94206 245.908 16.3532 237.527 22.2864C237.527 22.2864 244.781 30.5498 237.454 38.4433C237.454 38.4433 238.747 32.4329 236.988 33.665C235.228 34.8972 234.308 35.3267 234.308 35.3267Z" fill="#2F2E41"/>
<path d="M235.377 48.0709L221.623 46.3936L211.055 54.9482C211.055 54.9482 205.799 69.5918 209.713 78.4314C209.807 78.6432 209.881 93.3601 209.881 93.3601H239.104C239.104 93.3601 239.076 83.343 240.192 79.715C240.352 79.1967 240.535 78.8088 240.745 78.5992C242.422 76.9218 246.448 66.1866 244.435 61.4899C242.422 56.7933 235.377 48.0709 235.377 48.0709V48.0709Z" fill="#FD765E"/>
<path d="M209.713 92.6891L191.262 151.397L187.236 197.693H198.475L208.036 154.752L221.203 129.895L234.203 201.048H245.547L245.274 104.766L239.08 92.6891H209.713Z" fill="#2F2E41"/>
<path d="M338 225.514H0V226.544H338V225.514Z" fill="#3F3D56"/>
<path d="M173.258 104.571C169.907 99.1761 162.091 97.9069 156.286 100.48C150.48 103.054 146.467 108.541 143.739 114.276C141.011 120.01 139.295 126.189 136.491 131.887C128.241 148.652 111.535 159.602 101.026 175.051C93.1294 186.659 88.948 200.754 89.2362 214.79C89.3466 220.166 90.216 225.822 93.5712 230.025C98.5512 236.262 107.368 237.542 115.308 238.363C119.919 238.84 125.58 238.827 127.955 234.845C128.894 233.27 118.798 227.775 118.96 225.948C119.835 216.09 130.988 209.83 131.862 199.972C133.233 206.841 131.476 213.932 131.754 220.931C132.031 227.93 135.481 235.846 142.334 237.293C144.448 237.74 146.836 237.431 148.439 235.981C150.042 234.531 150.51 231.791 149.082 230.169C150.544 231.662 153.012 232.05 154.861 231.078C156.711 230.106 157.791 227.853 157.39 225.802C157.095 224.294 156.122 223.025 155.279 221.74C150.713 214.779 149.523 205.708 152.14 197.805C156.766 183.835 171.956 174.716 174.53 160.227C176.441 149.466 170.989 137.274 176.774 128.002C179.381 123.823 183.809 121.189 187.34 117.756C190.871 114.323 193.632 109.07 191.611 104.578L173.563 104.558" fill="#3F3D56"/>
<path d="M117.598 227.899C117.149 227.899 116.689 227.779 116.244 227.541C115.22 226.991 114.447 225.905 114.276 224.773C113.991 222.89 114.887 221.061 115.608 219.592C117.579 215.574 119.528 211.277 119.815 206.813C120.129 201.938 118.152 197.42 114.778 195.302C112.271 193.728 108.924 193.323 105.353 194.163C102.191 194.906 99.3496 196.427 96.2281 198.19C95.9801 198.33 95.666 198.243 95.526 197.995C95.386 197.748 95.4735 197.433 95.7211 197.293C98.7952 195.556 101.827 193.933 105.117 193.159C108.958 192.257 112.584 192.707 115.326 194.429C119.016 196.746 121.181 201.632 120.844 206.879C120.544 211.532 118.55 215.935 116.533 220.046C115.842 221.456 115.058 223.054 115.294 224.618C115.417 225.428 115.994 226.237 116.731 226.632C117.09 226.825 117.637 226.998 118.206 226.734C118.464 226.613 118.77 226.725 118.891 226.983C119.011 227.241 118.899 227.548 118.641 227.668C118.31 227.822 117.958 227.899 117.598 227.899Z" fill="#2F2E41"/>
<path d="M157.084 104.217C156.409 106.065 157.309 108.136 158.557 109.657C159.805 111.178 161.407 112.401 162.506 114.033C164.81 117.452 164.465 122.127 162.694 125.851C160.924 129.574 157.939 132.558 155.012 135.462C155.228 134.217 154.598 132.96 153.74 132.032C152.882 131.104 151.802 130.415 150.843 129.592C146.374 125.762 144.976 118.781 147.625 113.526" fill="#2F2E41"/>
<path d="M96.053 214.154C92.268 213.69 89.0708 217.096 85.2935 217.618C80.9255 218.222 76.9085 214.765 74.9651 210.807C73.0217 206.849 72.5229 202.356 71.1859 198.154C69.8489 193.952 67.2695 189.696 63.067 188.361C61.3039 187.801 59.3091 187.831 57.6712 188.691C56.0333 189.551 54.8329 191.307 54.8738 193.157C54.9242 195.432 56.6695 197.254 57.7268 199.27C59.4092 202.478 59.3569 206.277 60.1001 209.822C61.8868 218.345 68.82 225.573 77.2618 227.713C81.6273 228.819 86.5143 228.566 90.2959 226.12C94.0775 223.675 96.3824 218.749 94.9826 214.469" fill="#3F3D56"/>
<path d="M40.0681 26.6542C40.0446 26.6771 40.0229 26.7011 39.9996 26.7242C36.3674 23.1199 30.5179 23.0882 26.8468 26.6528C23.1627 30.2316 23.0382 36.1064 26.5674 39.838L26.5651 39.8403L26.653 39.9308L39.6492 53.312L53.121 40.2279L53.0835 40.1893C53.1061 40.1677 53.1297 40.1478 53.1521 40.1259C56.8723 36.5128 56.959 30.5681 53.346 26.848C49.7329 23.1279 43.7882 23.0411 40.0681 26.6542Z" fill="#FD765E"/>
</svg>
