<svg width="24" height="24" viewBox="0 0 24 24" fill="none" xmlns="http://www.w3.org/2000/svg">
<g clip-path="url(#clip0_618_3838)">
<path d="M1.5 1.63299C-0.385999 3.59199 8.79169e-07 5.67299 8.79169e-07 11.995C8.79169e-07 17.245 -0.915999 22.508 3.878 23.747C5.375 24.132 18.639 24.132 20.134 23.745C22.13 23.23 23.754 21.611 23.976 18.788C24.007 18.394 24.007 5.60299 23.975 5.20099C23.739 2.19399 21.888 0.460986 19.449 0.109985C18.89 0.0289854 18.778 0.00498538 15.91 -1.46218e-05C5.737 0.00498538 3.507 -0.448015 1.5 1.63299Z" fill="url(#paint0_linear_618_3838)"/>
<path d="M11.998 3.13901C8.367 3.13901 4.919 2.81601 3.602 6.19601C3.058 7.59201 3.137 9.40501 3.137 12.001C3.137 14.279 3.064 16.42 3.602 17.805C4.916 21.187 8.392 20.863 11.996 20.863C15.473 20.863 19.058 21.225 20.391 17.805C20.936 16.395 20.856 14.609 20.856 12.001C20.856 8.53901 21.047 6.30401 19.368 4.62601C17.668 2.92601 15.369 3.13901 11.994 3.13901H11.998ZM11.204 4.73601C18.778 4.72401 19.742 3.88202 19.21 15.579C19.021 19.716 15.871 19.262 11.999 19.262C4.939 19.262 4.736 19.06 4.736 11.997C4.736 4.85201 5.296 4.74001 11.204 4.73401V4.73601ZM16.728 6.20701C16.141 6.20701 15.665 6.68301 15.665 7.27001C15.665 7.85701 16.141 8.33301 16.728 8.33301C17.315 8.33301 17.791 7.85701 17.791 7.27001C17.791 6.68301 17.315 6.20701 16.728 6.20701ZM11.998 7.45001C9.485 7.45001 7.448 9.48801 7.448 12.001C7.448 14.514 9.485 16.551 11.998 16.551C14.511 16.551 16.547 14.514 16.547 12.001C16.547 9.48801 14.511 7.45001 11.998 7.45001ZM11.998 9.04701C15.903 9.04701 15.908 14.955 11.998 14.955C8.094 14.955 8.088 9.04701 11.998 9.04701Z" fill="white"/>
</g>
<defs>
<linearGradient id="paint0_linear_618_3838" x1="1.54602" y1="22.4671" x2="23.8515" y2="3.16198" gradientUnits="userSpaceOnUse">
<stop stop-color="#FFDD55"/>
<stop offset="0.5" stop-color="#FF543E"/>
<stop offset="1" stop-color="#C837AB"/>
</linearGradient>
<clipPath id="clip0_618_3838">
<rect width="24" height="24" fill="white"/>
</clipPath>
</defs>
</svg>
