<svg width="16" height="16" viewBox="0 0 16 16" fill="none" xmlns="http://www.w3.org/2000/svg">
<g clip-path="url(#clip0_637_2707)">
<path d="M1.49895 0.685715C0.589474 2.08762 0.404211 3.26095 0.842105 4.76952C1.07789 5.62286 1.07789 5.65333 0.572632 7.04C0.151579 8.16762 0.0336842 8.73143 0.0168421 9.82857L0 11.2L0.926316 11.2914C2.29053 11.4286 3.21684 11.7029 3.68842 12.0838C3.92421 12.2667 4.34526 12.9524 4.63158 13.5924C5.42316 15.3448 6.33263 16 8 16C9.68421 16 10.56 15.3752 11.3684 13.6076C11.6547 12.9524 12.0758 12.2667 12.3116 12.0838C12.7832 11.7029 13.7095 11.4286 15.0737 11.2914L16 11.2L15.9663 9.7981C15.9495 8.70095 15.8316 8.10667 15.4274 7.02476C14.9053 5.6381 14.9053 5.6381 15.1747 4.69333C15.5116 3.50476 15.4105 2.40762 14.8547 1.32571C14.0463 -0.213333 14.1642 -0.198095 12.3284 0.899048L10.7284 1.84381L9.83579 1.61524C9.34737 1.4781 8.52211 1.37143 8 1.37143C7.4779 1.37143 6.65263 1.4781 6.16421 1.61524L5.27158 1.84381L3.72211 0.929524C2.86316 0.411429 2.12211 0 2.05474 0C2.00421 0 1.75158 0.304762 1.49895 0.685715ZM4.07579 2.62095L5.28842 3.35238L5.92842 3.0019C6.82105 2.52952 9.11158 2.51429 10.1053 2.98667L10.7789 3.30667L12.1263 2.48381C13.3389 1.75238 13.4905 1.70667 13.6758 1.92C13.9621 2.27048 14.1137 3.38286 13.9789 3.9619L13.8611 4.44952L13.4063 3.94667L12.9516 3.45905L12.3453 3.82476L11.7221 4.20571L12.3284 4.72381C13.5579 5.80571 14.3663 7.40571 14.6526 9.31048L14.7537 10.0114L13.6253 10.2705C11.5874 10.7429 11.0147 11.2 10.1895 12.9829C9.63369 14.2019 9.34737 14.5676 9.34737 14.0495C9.34737 13.7143 8.92632 13.5619 8 13.5619C7.07368 13.5619 6.65263 13.7143 6.65263 14.0495C6.65263 14.5676 6.36632 14.2019 5.81053 12.9829C4.98526 11.2 4.41263 10.7429 2.37474 10.2705L1.24632 10.0114L1.34737 9.31048C1.63368 7.39048 2.37474 5.91238 3.55368 4.86095L4.27789 4.20571L3.67158 3.84L3.04842 3.45905L2.59368 3.9619L2.12211 4.46476L2.02105 3.90095C1.81895 2.95619 2.24 1.55429 2.66105 1.76762C2.77895 1.82857 3.40211 2.20952 4.07579 2.62095Z" fill="black"/>
<path d="M4.83368 8.2591C4.51368 8.54862 4.59789 9.2191 5.01895 9.56957C5.45684 9.95052 6.18105 10.0115 6.45052 9.70672C6.72 9.41719 5.13684 7.98481 4.83368 8.2591Z" fill="black"/>
<path d="M10.1389 8.80764C9.27995 9.60002 9.2968 9.90479 10.1894 9.90479C11.0484 9.90479 11.7389 8.70098 11.1494 8.25907C10.981 8.12193 10.7452 8.25907 10.1389 8.80764Z" fill="black"/>
</g>
<defs>
<clipPath id="clip0_637_2707">
<rect width="16" height="16" fill="white"/>
</clipPath>
</defs>
</svg>
