<svg width="32" height="39" viewBox="0 0 32 39" fill="none" xmlns="http://www.w3.org/2000/svg">
<path d="M0 4C0 1.79086 1.79086 0 4 0H28C30.2091 0 32 1.79086 32 4V28C32 30.2091 30.2091 32 28 32H14.6321C13.6372 32 12.733 32.5785 12.3161 33.4819V33.4819C11.4041 35.4577 8.59588 35.4577 7.68395 33.4819V33.4819C7.267 32.5785 6.36285 32 5.36789 32H4C1.79086 32 0 30.2091 0 28V4Z" fill="#333333"/>
<g clip-path="url(#clip0_617_3681)">
<path d="M9.49895 8.68571C8.58947 10.0876 8.40421 11.261 8.84211 12.7695C9.07789 13.6229 9.07789 13.6533 8.57263 15.04C8.15158 16.1676 8.03368 16.7314 8.01684 17.8286L8 19.2L8.92632 19.2914C10.2905 19.4286 11.2168 19.7029 11.6884 20.0838C11.9242 20.2667 12.3453 20.9524 12.6316 21.5924C13.4232 23.3448 14.3326 24 16 24C17.6842 24 18.56 23.3752 19.3684 21.6076C19.6547 20.9524 20.0758 20.2667 20.3116 20.0838C20.7832 19.7029 21.7095 19.4286 23.0737 19.2914L24 19.2L23.9663 17.7981C23.9495 16.701 23.8316 16.1067 23.4274 15.0248C22.9053 13.6381 22.9053 13.6381 23.1747 12.6933C23.5116 11.5048 23.4105 10.4076 22.8547 9.32571C22.0463 7.78667 22.1642 7.8019 20.3284 8.89905L18.7284 9.84381L17.8358 9.61524C17.3474 9.4781 16.5221 9.37143 16 9.37143C15.4779 9.37143 14.6526 9.4781 14.1642 9.61524L13.2716 9.84381L11.7221 8.92952C10.8632 8.41143 10.1221 8 10.0547 8C10.0042 8 9.75158 8.30476 9.49895 8.68571ZM12.0758 10.621L13.2884 11.3524L13.9284 11.0019C14.8211 10.5295 17.1116 10.5143 18.1053 10.9867L18.7789 11.3067L20.1263 10.4838C21.3389 9.75238 21.4905 9.70667 21.6758 9.92C21.9621 10.2705 22.1137 11.3829 21.9789 11.9619L21.8611 12.4495L21.4063 11.9467L20.9516 11.459L20.3453 11.8248L19.7221 12.2057L20.3284 12.7238C21.5579 13.8057 22.3663 15.4057 22.6526 17.3105L22.7537 18.0114L21.6253 18.2705C19.5874 18.7429 19.0147 19.2 18.1895 20.9829C17.6337 22.2019 17.3474 22.5676 17.3474 22.0495C17.3474 21.7143 16.9263 21.5619 16 21.5619C15.0737 21.5619 14.6526 21.7143 14.6526 22.0495C14.6526 22.5676 14.3663 22.2019 13.8105 20.9829C12.9853 19.2 12.4126 18.7429 10.3747 18.2705L9.24632 18.0114L9.34737 17.3105C9.63368 15.3905 10.3747 13.9124 11.5537 12.861L12.2779 12.2057L11.6716 11.84L11.0484 11.459L10.5937 11.9619L10.1221 12.4648L10.0211 11.901C9.81895 10.9562 10.24 9.55429 10.6611 9.76762C10.7789 9.82857 11.4021 10.2095 12.0758 10.621Z" fill="#FFC300"/>
<path d="M12.8337 16.2591C12.5137 16.5486 12.5979 17.2191 13.019 17.5696C13.4568 17.9505 14.1811 18.0115 14.4505 17.7067C14.72 17.4172 13.1368 15.9848 12.8337 16.2591Z" fill="#FFC300"/>
<path d="M18.1389 16.8076C17.28 17.6 17.2968 17.9048 18.1895 17.9048C19.0484 17.9048 19.7389 16.701 19.1495 16.2591C18.9811 16.1219 18.7453 16.2591 18.1389 16.8076Z" fill="#FFC300"/>
</g>
<defs>
<clipPath id="clip0_617_3681">
<rect width="16" height="16" fill="white" transform="translate(8 8)"/>
</clipPath>
</defs>
</svg>
